<svg width="24" height="24" fill="none" xmlns="http://www.w3.org/2000/svg"><path d="M8.643 6.069a1.118 1.118 0 00-.343.229c-.48.48-.352 1.292.25 1.588l.19.094 2.9.02 2.9.02-4.188 4.2c-3.255 3.263-4.207 4.24-4.269 4.38-.163.362-.065.86.222 1.128.285.266.746.346 1.095.19.14-.063 1.11-1.01 4.39-4.29L16 9.42v2.863c0 3.228-.01 3.109.299 3.418a.984.984 0 001.402 0c.317-.317.299-.04.299-4.681 0-4.579.013-4.351-.265-4.637a1.028 1.028 0 00-.707-.324c-.136-.009-2.039-.025-4.228-.035-3.527-.015-4-.01-4.157.045" fill="#005AAA" fill-rule="evenodd"/></svg>