<svg width="24" height="24" fill="none" xmlns="http://www.w3.org/2000/svg"><path d="M4.643 5.069C4.291 5.193 4 5.614 4 6c0 .242.119.521.299.701C4.623 7.025 3.977 7 12 7s7.377.025 7.701-.299a.984.984 0 000-1.402c-.324-.324.325-.299-7.718-.296-6.381.003-7.182.01-7.34.066m0 6C4.291 11.193 4 11.614 4 12c0 .242.119.521.299.701.324.324-.322.299 7.701.299s7.377.025 7.701-.299a.984.984 0 000-1.402c-.324-.324.325-.299-7.718-.296-6.381.003-7.182.01-7.34.066m0 6C4.291 17.193 4 17.614 4 18c0 .242.119.521.299.701.324.324-.322.299 7.701.299s7.377.025 7.701-.299a.984.984 0 000-1.402c-.324-.324.325-.299-7.718-.296-6.381.003-7.182.01-7.34.066" fill="#005AAA" fill-rule="evenodd"/></svg>