<svg width="24" height="24" fill="none" xmlns="http://www.w3.org/2000/svg"><path d="M3.709 3.055c-.604.225-.862.841-.586 1.395.058.116 1.249 1.336 3.77 3.86L10.579 12l-3.686 3.69c-2.579 2.583-3.713 3.744-3.778 3.87-.185.361-.105.839.19 1.135.296.295.774.375 1.135.19.126-.065 1.287-1.199 3.87-3.778L12 13.421l3.69 3.686c2.583 2.579 3.744 3.713 3.87 3.778.361.185.839.105 1.135-.19.295-.296.375-.774.19-1.135-.065-.126-1.199-1.287-3.778-3.87L13.421 12l3.686-3.69c2.579-2.583 3.713-3.744 3.778-3.87a1.003 1.003 0 00-.19-1.135 1.003 1.003 0 00-1.135-.19c-.126.065-1.287 1.199-3.87 3.778L12 10.579 8.31 6.893C5.718 4.305 4.568 3.182 4.445 3.121c-.223-.112-.538-.14-.736-.066" fill-rule="evenodd" fill="#000"/></svg>