<svg width="48" height="48" fill="none" xmlns="http://www.w3.org/2000/svg"><path d="M15.44 2.85c-3.93.293-5.762.821-7.39 2.131-1.769 1.423-2.666 3.397-3.057 6.724-.181 1.538-.241 6.63-.186 15.735.05 8.324.072 8.809.478 10.686.48 2.215 1.343 3.748 2.742 4.874 1.384 1.114 3.078 1.711 5.693 2.007 2.594.293 17.966.293 20.56 0 3.812-.431 5.998-1.617 7.399-4.015.979-1.676 1.521-4.649 1.521-8.338 0-1.071-.1-1.369-.56-1.679-.234-.158-.356-.184-.741-.157-.393.028-.502.072-.741.304-.359.348-.437.646-.438 1.678-.002 1.107-.131 2.953-.28 4.002-.529 3.712-2.166 5.223-6.2 5.721-2.449.302-18.035.302-20.48-.001-1.756-.217-2.826-.553-3.84-1.206-.605-.39-.914-.703-1.306-1.323-.573-.907-.919-2.042-1.144-3.753-.111-.844-.14-2.226-.181-8.84-.058-9.213 0-14.09.185-15.6C8 7.504 9.507 6.009 13.862 5.463c1.031-.13 1.982-.143 10.138-.143s9.107.013 10.138.143c2.186.274 3.639.806 4.542 1.661.132.125.38.286.55.357 1.003.419 1.996-.687 1.52-1.692-.169-.355-1.248-1.218-2.027-1.62-1.096-.565-2.475-.937-4.39-1.183-.873-.112-2.225-.132-9.773-.146-4.818-.009-8.922-.005-9.12.01M38.8 12.917c-.632.161-1.01.333-1.6.727-.608.406-11.059 10.841-11.588 11.571-.592.817-.951 1.666-1.888 4.462-.805 2.402-.924 2.825-.923 3.28a2.218 2.218 0 002.243 2.241c.46.002.865-.112 3.28-.925 1.516-.51 2.943-1.016 3.171-1.124 1.197-.566 1.488-.829 7.009-6.337 2.939-2.933 5.484-5.512 5.654-5.732a5.355 5.355 0 00.93-1.936c.19-.812.12-2.208-.146-2.923-.552-1.479-1.749-2.668-3.207-3.185-.636-.226-2.26-.292-2.935-.119m2.472 2.599c.398.203 1.006.812 1.231 1.234.15.28.177.457.177 1.17 0 .774-.018.872-.227 1.25a4.23 4.23 0 01-.607.784l-.38.374-.433-.17c-1.423-.559-2.543-1.641-3.111-3.005l-.255-.614.376-.382c.711-.722 1.476-.99 2.458-.86a2.9 2.9 0 01.771.219M15.379 16.96c-.801.488-.768 1.628.061 2.116.277.162.364.164 7.08.164 7.563 0 7.085.034 7.492-.537.26-.364.26-1.042 0-1.406-.374-.525.049-.497-7.508-.497-6.708.001-6.87.004-7.125.16m20.682 1.997c.617 1.124 1.699 2.223 2.859 2.904.308.181.576.342.597.357.02.016-1.775 1.84-3.99 4.055-3.262 3.262-4.132 4.09-4.591 4.365-.387.232-1.168.541-2.479.981l-1.913.643-.403-.403-.403-.403.641-1.908c.372-1.105.768-2.127.941-2.428.239-.415 1.12-1.342 4.349-4.58 2.227-2.233 4.067-4.06 4.09-4.059.023 0 .158.215.302.476M15.379 24.96c-.801.488-.768 1.628.061 2.116.268.157.4.164 3.08.164 3.107 0 3.11 0 3.492-.537.26-.364.26-1.042 0-1.406-.354-.497-.354-.497-3.508-.497-2.717.001-2.877.009-3.125.16m0 8c-.801.488-.768 1.628.061 2.116.26.152.408.164 2.08.164 1.999 0 2.13-.028 2.492-.537.26-.364.26-1.042 0-1.406-.338-.475-.45-.497-2.508-.497-1.719.001-1.884.013-2.125.16" fill-rule="evenodd" fill="#000"/></svg>