<svg width="48" height="48" fill="none" xmlns="http://www.w3.org/2000/svg"><path d="M11.582 9.808C8.27 11.462 5.443 12.904 5.3 13.012c-.54.407-.5-.706-.5 14.004.001 13.174.003 13.347.16 13.605.22.361.607.578 1.04.582.317.004 1.057-.343 6.178-2.897l5.818-2.902 2.862 1.42c1.858.922 2.946 1.419 3.102 1.416.38-.006.9-.283 1.078-.575.106-.174.162-.405.162-.673 0-.764-.026-.784-3.14-2.352l-2.779-1.4-.001-11.58c0-6.369.018-11.58.04-11.58.022 0 2.164 1.062 4.76 2.36l4.72 2.36v5.284c0 5.816-.022 5.559.497 5.928.364.26 1.042.26 1.406 0 .562-.4.534-.11.56-5.974l.023-5.282 4.757-2.378L40.8 10v6.684c0 7.358-.027 6.955.497 7.328.197.14.368.185.703.185.51 0 .872-.205 1.101-.623.129-.236.139-.802.139-8.054 0-7.724-.002-7.803-.164-8.08-.239-.405-.626-.639-1.068-.644-.327-.003-1.014.319-6.188 2.899L30 12.598l-5.82-2.903c-5.238-2.612-5.858-2.902-6.198-2.899-.334.004-1.083.356-6.4 3.012M16.8 21.6v11.6l-4.72 2.36c-2.596 1.298-4.738 2.36-4.76 2.36-.022 0-.04-5.211-.04-11.58V14.759l4.74-2.375c2.607-1.306 4.749-2.377 4.76-2.38.011-.002.02 5.216.02 11.596m19.696 7.322c-1.341.291-2.459.892-3.485 1.873-2.064 1.974-2.764 4.892-1.825 7.607.409 1.182.958 1.972 2.224 3.198 1.15 1.113 3.838 3.429 4.095 3.529.364.14.857.082 1.184-.139.473-.32 2.906-2.439 3.934-3.426.502-.482 1.067-1.094 1.255-1.36a7.108 7.108 0 001.334-4.164c.013-2.041-.746-3.832-2.223-5.245-1.041-.995-2.148-1.585-3.519-1.876-.688-.145-2.297-.144-2.974.003m2.584 2.454c1.358.294 2.615 1.317 3.238 2.633.331.699.424 1.241.384 2.224-.054 1.343-.445 2.204-1.473 3.248-.733.744-3.122 2.839-3.238 2.839-.116 0-2.426-2.034-3.191-2.809-1.057-1.071-1.447-1.923-1.502-3.278-.04-.983.053-1.525.384-2.224.971-2.053 3.155-3.118 5.398-2.633m-1.701 3.584c-.419.255-.593.604-.559 1.124.045.714.491 1.147 1.18 1.147s1.135-.433 1.18-1.147c.022-.344-.008-.503-.135-.705A1.216 1.216 0 0038 34.801c-.218 0-.463.062-.621.159" fill-rule="evenodd" fill="#000"/></svg>