<svg width="24" height="24" fill="none" xmlns="http://www.w3.org/2000/svg"><path d="M1.752 3.536a1.017 1.017 0 00-.696.617c-.043.119-.053 1.598-.054 7.79-.002 8.441-.019 7.899.249 8.204.071.08.219.188.329.239l.2.093h20.44l.2-.093c.11-.051.258-.159.329-.24.269-.306.253.24.241-8.272l-.01-7.703-.135-.198a.98.98 0 00-.615-.439c-.297-.077-20.192-.075-20.478.002m17.186 2.019c-.021.019-1.59 1.198-3.488 2.62L12 10.76 8.55 8.175a962.835 962.835 0 01-3.488-2.62C5.04 5.535 8.04 5.52 12 5.52c3.96 0 6.96.015 6.938.035M7.27 9.692c2.326 1.744 4.293 3.197 4.37 3.23a1.149 1.149 0 00.72 0c.077-.033 2.044-1.486 4.37-3.23a591.648 591.648 0 014.25-3.172c.011 0 .02 2.7.02 6v6H3v-6c0-3.3.009-6 .02-6 .011 0 1.923 1.427 4.25 3.172" fill-rule="evenodd" fill="#000"/></svg>