<svg width="24" height="24" fill="none" xmlns="http://www.w3.org/2000/svg"><path d="M13.9 1.865c-.702.074-.92.15-1.139.4a.853.853 0 00-.24.644.974.974 0 00.549.894c.164.079.236.089.53.075.787-.038 1.579-.015 1.915.056a5.777 5.777 0 012.078.875c.394.269 1.129 1.004 1.398 1.398.422.618.711 1.306.872 2.073.071.343.097 1.163.06 1.92-.015.307-.006.36.09.548.174.341.494.532.893.532.402 0 .783-.27.907-.643.115-.343.168-1.243.111-1.863-.169-1.846-.835-3.331-2.064-4.608-1.177-1.222-2.556-1.947-4.24-2.228-.36-.06-1.419-.105-1.72-.073M4.26 3.429c-.738.102-1.492.533-1.921 1.099a2.749 2.749 0 00-.571 1.851c.016.352.044.476.229 1.021.981 2.883 2.34 5.588 3.748 7.463.398.529 1.088 1.325 1.46 1.681 1.933 1.852 4.858 3.511 8.475 4.806.903.323 1.116.374 1.58.374.928 0 1.806-.469 2.315-1.238.195-.293.272-.457.397-.846.078-.243.084-.368.098-1.892.01-1.072 0-1.703-.028-1.84a2.073 2.073 0 00-.793-1.217c-.351-.244-2.465-1.407-2.722-1.497a2.068 2.068 0 00-1.087-.059c-.154.038-.714.289-1.371.614l-1.11.549-.21-.073a6.323 6.323 0 01-1.882-1.098 5.968 5.968 0 01-1.611-2.396l-.074-.208.568-1.152c.617-1.251.68-1.442.638-1.923a2.474 2.474 0 00-.091-.468c-.036-.11-.384-.774-.772-1.475-.591-1.07-.743-1.314-.938-1.51a2.157 2.157 0 00-1.019-.551c-.201-.042-3.023-.055-3.308-.015m3.544 3.062c.328.589.596 1.089.596 1.11 0 .022-.27.579-.6 1.238-.329.659-.617 1.279-.639 1.376-.07.315.104.961.488 1.805.806 1.776 2.157 3.099 3.958 3.878.627.272 1.184.437 1.481.439.215.002.297-.033 1.51-.636 1.266-.631 1.283-.638 1.392-.575.06.035.556.31 1.1.612l.99.549v1.41c0 1.399-.001 1.412-.093 1.587-.124.234-.377.424-.614.459-.159.024-.262.003-.69-.142-1.518-.515-3.501-1.387-4.783-2.104-3.049-1.706-4.728-3.503-6.399-6.85A31.68 31.68 0 013.938 6.96c-.271-.754-.259-.994.069-1.308.259-.249.27-.25 1.807-.241l1.394.009.596 1.071m5.665-.97a.918.918 0 00-.52.314c-.139.154-.269.476-.269.668 0 .188.137.505.285.657.261.27.347.297.955.302.605.006.781.043 1.171.247.296.155.654.507.794.78.18.354.207.482.231 1.114.023.605.028.629.145.819.171.276.432.43.765.451.342.022.555-.062.787-.31.24-.257.282-.419.283-1.103.001-.628-.075-1.022-.301-1.566-.257-.616-.81-1.301-1.382-1.708-.286-.204-.89-.483-1.273-.588-.359-.098-1.396-.146-1.671-.077" fill-rule="evenodd" fill="#000"/></svg>