<svg width="24" height="24" fill="none" xmlns="http://www.w3.org/2000/svg"><path d="M6.57 2.044a3.228 3.228 0 00-1.949 1.175 2.846 2.846 0 00-.507.982L4.02 4.5v15l.094.299c.327 1.041 1.127 1.805 2.206 2.106.193.054.399.073.8.072.504 0 .565-.009.914-.129.281-.097 1.977-1.001 6.82-3.633 3.545-1.927 6.554-3.569 6.686-3.647.333-.198.792-.653 1.005-.994.59-.946.601-2.156.031-3.103-.171-.283-.594-.743-.841-.914C21.406 9.33 8.411 2.288 8.14 2.19a3.256 3.256 0 00-1.57-.146" fill="#005AAA" fill-rule="evenodd"/></svg>