<svg width="24" height="24" fill="none" xmlns="http://www.w3.org/2000/svg"><path d="M11.24 1.045a7.546 7.546 0 00-4.581 2.174 7.283 7.283 0 00-2.027 3.785c-.08.396-.092.571-.09 1.336.001.802.011.925.11 1.389.379 1.782 1.287 3.398 2.943 5.246 1.1 1.226 3.293 3.098 4.012 3.425.227.103.559.103.786 0 .68-.309 2.752-2.059 3.86-3.26 1.727-1.872 2.707-3.586 3.095-5.411.098-.461.109-.59.11-1.369.002-.676-.014-.946-.073-1.26a7.322 7.322 0 00-2.044-3.881 7.565 7.565 0 00-6.101-2.174m1.591 2.014c2.054.308 3.761 1.72 4.406 3.646.361 1.077.34 2.269-.06 3.417-.642 1.847-2.372 3.969-4.757 5.836l-.423.331-.249-.193c-2.904-2.263-4.708-4.641-5.152-6.79-.104-.507-.112-1.352-.017-1.886.399-2.227 2.251-3.998 4.561-4.361a6.834 6.834 0 011.691 0m-1.329 1.983a3.492 3.492 0 00-2.044 1.085A3.375 3.375 0 008.52 8.5c0 .908.323 1.726.938 2.373.49.517 1.016.829 1.705 1.013a3.725 3.725 0 001.674 0 3.452 3.452 0 001.705-1.013A3.375 3.375 0 0015.48 8.5c0-.908-.323-1.726-.938-2.373a3.467 3.467 0 00-1.694-1.01c-.361-.092-1.008-.129-1.346-.075m1.107 2.088c.619.283.963.917.87 1.6a1.497 1.497 0 01-.831 1.119c-.244.12-.298.131-.647.131-.33 0-.412-.014-.61-.107a1.514 1.514 0 01-.87-1.603c.077-.555.488-1.031 1.05-1.214.269-.088.762-.053 1.038.074M4.2 15.577c-1.184.408-1.872.778-2.415 1.298-.533.511-.763 1-.763 1.625 0 1.151.911 2.071 2.738 2.767 2.112.804 4.891 1.213 8.24 1.213 2.88 0 5.07-.263 7.16-.861 1.791-.512 2.955-1.178 3.484-1.991a2.046 2.046 0 000-2.256c-.38-.585-1.199-1.165-2.216-1.569-1.208-.48-1.606-.511-2.009-.157-.227.2-.317.407-.317.734 0 .556.217.779 1.028 1.059.868.3 1.572.673 1.787.946.074.094.078.118.03.191-.236.362-1.277.856-2.497 1.185-1.905.515-3.79.727-6.45.727s-4.545-.212-6.45-.727c-1.22-.329-2.261-.823-2.497-1.185-.048-.073-.044-.097.03-.191.215-.273.919-.646 1.787-.946.811-.28 1.028-.503 1.028-1.059 0-.327-.09-.534-.317-.734-.346-.304-.656-.319-1.381-.069" fill-rule="evenodd" fill="#000"/></svg>