<svg width="24" height="24" fill="none" xmlns="http://www.w3.org/2000/svg"><path d="M11.096 1.038A11.27 11.27 0 006 2.79 11.542 11.542 0 002.79 6c-.864 1.332-1.425 2.822-1.677 4.46-.124.804-.124 2.276 0 3.08.252 1.638.813 3.128 1.677 4.46.829 1.277 2.118 2.539 3.41 3.338 2.548 1.576 5.693 2.056 8.54 1.303 1.974-.523 3.602-1.455 5.024-2.877 1.422-1.422 2.354-3.05 2.877-5.024.753-2.847.273-5.992-1.303-8.54-.799-1.292-2.061-2.581-3.338-3.41a11.183 11.183 0 00-4.44-1.671c-.612-.091-1.887-.133-2.464-.081m2.284 2.059a8.957 8.957 0 014.981 2.542 8.95 8.95 0 012.548 5.021c.096.613.096 2.067 0 2.68a8.95 8.95 0 01-2.548 5.021 8.949 8.949 0 01-5.021 2.548c-.613.096-2.067.096-2.68 0A9.167 9.167 0 017.328 19.7c-1.139-.678-2.347-1.884-3.02-3.015-.842-1.415-1.241-2.766-1.296-4.386a8.724 8.724 0 011.13-4.691A9.015 9.015 0 0110.9 3.059c.565-.071 1.922-.051 2.48.038m-3.281 3.498a.973.973 0 00-.577.905c0 .439-.01.427 2.109 2.55L13.578 12l-1.947 1.95c-2.119 2.123-2.109 2.111-2.109 2.55 0 .415.246.78.623.924.213.081.61.061.817-.043.212-.106 4.81-4.721 4.923-4.941a.867.867 0 00.092-.44.867.867 0 00-.092-.44c-.14-.273-4.723-4.848-4.965-4.957-.232-.105-.601-.108-.821-.008" fill-rule="evenodd" fill="#000"/></svg>