<svg width="48" height="48" fill="none" xmlns="http://www.w3.org/2000/svg"><path d="M34.28 4.803c-2.031.201-3.662.968-5.085 2.392-1.195 1.194-1.881 2.451-2.248 4.12-.208.941-.22 2.316-.03 3.237l.138.672-2.527 2.528L22 20.28l-3.877-3.877-3.877-3.876.944-.964c1.005-1.024 1.13-1.252 1.005-1.83-.122-.563-.231-.633-3.648-2.338C10.555 6.4 9.183 5.76 9.042 5.76c-.445 0-.691.176-1.87 1.344C5.983 8.28 5.76 8.586 5.76 9.034c0 .151.605 1.451 1.64 3.524 1.752 3.509 1.763 3.527 2.415 3.65.489.092.815-.1 1.787-1.057l.922-.907 3.878 3.878L20.28 22l-2.526 2.526-2.526 2.526-.634-.132c-1.375-.288-3.226-.116-4.635.429-2.017.78-3.832 2.595-4.608 4.606a8.406 8.406 0 00-.143 5.706c.196.593.5.926.951 1.041.625.158.793.053 2.282-1.428l1.361-1.354h2.278v2.278l-1.354 1.361c-1.44 1.448-1.577 1.659-1.45 2.222.139.616.487.87 1.612 1.177 1.619.44 3.511.325 5.172-.315 1.994-.769 3.816-2.595 4.589-4.598.561-1.456.725-3.189.434-4.597l-.138-.672 1.167-1.167 1.168-1.168 5.5 5.491c3.025 3.02 5.644 5.579 5.82 5.687 1.221.748 2.707.794 3.992.123.688-.359 2.791-2.462 3.15-3.15.671-1.285.625-2.771-.123-3.992-.108-.176-2.667-2.795-5.687-5.82l-5.491-5.5 1.165-1.165 1.165-1.166.704.132c1.893.355 4.039-.008 5.651-.955 3.393-1.995 4.905-6.029 3.666-9.787-.196-.593-.5-.926-.951-1.041-.625-.158-.793-.053-2.282 1.428l-1.361 1.354H35.92V9.802l1.354-1.361c1.438-1.446 1.577-1.659 1.451-2.218-.083-.367-.244-.606-.526-.782-.333-.208-1.519-.541-2.131-.599-1.027-.098-1.16-.101-1.788-.039m.68 2.452c0 .03-.321.382-.713.782-.532.543-.726.798-.764 1.005-.029.153-.041 1.274-.027 2.492.023 2.091.033 2.227.189 2.435.091.122.264.295.386.386.208.156.344.166 2.435.189 1.218.014 2.339.002 2.492-.027.208-.038.464-.234 1.02-.779l.742-.727-.001.394c-.005 1.474-.98 3.252-2.324 4.239-1.438 1.056-3.529 1.395-5.151.837-.551-.189-.912-.203-1.267-.049-.149.065-3.04 2.9-6.912 6.78-7.476 7.492-6.905 6.817-6.629 7.828.242.887.277 1.134.279 1.96.005 1.602-.49 2.847-1.586 3.987-.786.818-1.741 1.368-2.785 1.603-.606.137-1.304.215-1.304.145 0-.025.321-.372.713-.772.532-.543.726-.798.764-1.005.029-.153.041-1.274.027-2.492-.023-2.091-.033-2.227-.189-2.435a2.274 2.274 0 00-.386-.386c-.208-.156-.344-.166-2.435-.189-1.218-.014-2.339-.002-2.492.027-.208.038-.464.234-1.02.779l-.742.727.001-.394c.002-.504.18-1.259.447-1.894.648-1.54 2.07-2.773 3.752-3.256.939-.269 2.373-.237 3.276.074.552.19 1.008.206 1.308.046.261-.139 13.402-13.292 13.528-13.54.132-.262.107-.673-.078-1.238-.241-.739-.3-2.245-.118-3.061a5.754 5.754 0 014.922-4.444c.287-.033.549-.066.582-.071.033-.006.06.014.06.044m-23.829 2.19l1.769.886-.225.234c-.191.199-.287.235-.63.235-.751.001-1.244.494-1.245 1.245 0 .343-.036.439-.235.63l-.234.225-.886-1.769c-.487-.973-.885-1.813-.885-1.867 0-.132.566-.704.697-.704.057 0 .901.398 1.874.885m28.474 26.652c.187.358.198.765.032 1.166-.162.391-1.899 2.148-2.317 2.344-.394.184-.846.194-1.184.025-.141-.07-2.695-2.563-5.676-5.539l-5.42-5.412 1.82-1.821 1.819-1.82 5.386 5.38c2.977 2.974 5.455 5.513 5.54 5.677" fill-rule="evenodd" fill="#000"/></svg>