<svg width="48" height="48" fill="none" xmlns="http://www.w3.org/2000/svg"><path d="M18.703 2.921c-1.704.272-2.777.889-3.633 2.089-.504.706-.911 1.619-1.485 3.325l-.502 1.495-.601.048c-3.933.319-5.908 1.096-7.503 2.953-1.042 1.213-1.685 3.004-1.985 5.529-.25 2.104-.28 13.752-.042 15.96.281 2.601.857 4.342 1.873 5.659 1.536 1.994 3.787 2.89 7.88 3.135 2.048.122 9.049.183 9.518.082.998-.214 1.339-1.351.621-2.069l-.286-.287-1.939-.052a240.252 240.252 0 00-4.419-.06c-4.398-.015-6.27-.249-7.776-.973-1.973-.949-2.793-2.694-3.063-6.515-.113-1.598-.113-11.978 0-13.48.168-2.23.389-3.28.926-4.386 1.004-2.068 2.763-2.827 7.073-3.051 2.008-.105 17.246-.106 19.24-.002 2.628.137 3.753.346 4.99.927.603.282.855.458 1.283.893 1.211 1.234 1.676 2.904 1.835 6.591.058 1.336.091 1.612.224 1.84.478.818 1.623.844 2.108.049.136-.222.159-.404.16-1.225 0-1.251-.127-2.868-.322-4.092-.379-2.372-1.288-4.183-2.674-5.326-1.537-1.268-3.308-1.824-6.684-2.099l-.601-.049-.519-1.535c-.285-.844-.687-1.877-.893-2.295-.649-1.317-1.5-2.179-2.61-2.643-1.148-.48-1.373-.501-5.617-.525-3.014-.017-4.036.003-4.577.089M27.63 5.51c1.042.346 1.577 1.088 2.328 3.23l.358 1.02H15.684l.327-.94c.878-2.524 1.452-3.19 2.977-3.455.226-.04 2.14-.064 4.252-.055 3.763.017 3.851.021 4.39.2m6.021 21.253c-2.427.459-4.517 1.903-5.735 3.963-.386.653-.838 1.865-.995 2.67-.186.95-.135 2.682.105 3.578.684 2.558 2.585 4.727 4.925 5.621 1.313.501 1.638.56 3.089.561 1.189.001 1.397-.02 2.094-.214a8.942 8.942 0 002.319-.99l.484-.294 1.691 1.683c.931.925 1.771 1.722 1.867 1.771.277.14.837.105 1.126-.072.501-.305.739-1.054.491-1.545-.049-.096-.844-.934-1.767-1.862l-1.678-1.688.354-.552c1.629-2.545 1.741-5.73.294-8.419-.414-.77-.882-1.369-1.605-2.054a8.16 8.16 0 00-3.654-2.012c-.992-.257-2.48-.32-3.405-.145m2.572 2.484a5.837 5.837 0 014.02 3.113c.385.782.546 1.389.605 2.28.113 1.723-.559 3.353-1.89 4.586-1.064.984-2.388 1.495-3.871 1.493-1.041-.002-1.771-.159-2.567-.553-1.537-.76-2.673-2.14-3.088-3.755-.219-.848-.214-2.158.01-2.962.841-3.015 3.758-4.823 6.781-4.202" fill-rule="evenodd" fill="#000"/></svg>