<svg width="178" height="32" fill="none" xmlns="http://www.w3.org/2000/svg"><g clip-path="url(#clip0_1_164)"><path d="M54.553 23.816h5.81V12.412h9.34V8H45.249v4.412h9.304v11.404zm16.621 0h5.81V12.412h16.253V8H71.174v15.816zm46.701-4.78h-16.272c-1.011 0-1.839-.644-1.839-1.655 0-.051.002-3.047.007-3.097.078-.924.872-1.504 1.832-1.504h16.272V8h-17.467a6.443 6.443 0 00-6.434 6.284l-.002 3.097a6.442 6.442 0 006.436 6.435h17.467v-4.78zm9.744-4.966h-8.458v3.677h8.458v-3.678z" fill="#292D35"/><path d="M135.526 19.403c-.515 0-.809-.276-.809-.736 0-.46.294-.735.809-.735h11.215c.515 0 .809.276.809.735 0 .46-.294.736-.809.736h-11.215zm-6.619-.736c0 2.39 1.82 5.332 5.515 5.332h13.606c3.696 0 5.332-2.941 5.332-5.332 0-2.39-1.636-5.332-5.332-5.332h-9.616L143.748 8h-6.472l-6.641 6.64c-1.066.975-1.728 2.575-1.728 4.027zm48.607-1.251h-1.47v-2.793h-5.811v2.793h-5.514L174.154 8h-7.208l-13.112 13.093h16.399v2.723h5.811v-2.723h1.47v-3.677z" fill="#005AAA"/><path fill-rule="evenodd" clip-rule="evenodd" d="M24.73 8.512a1.136 1.136 0 011.313.566l3.004 5.734c.354.676.362 1.481.021 2.164l-1.105 2.216a1.136 1.136 0 01-1.017.63H10.488c-.616 0-1.12-.492-1.136-1.107l-.13-4.965c-.013-.52.328-.983.83-1.124L24.73 8.512z" fill="#005AAA"/><path fill-rule="evenodd" clip-rule="evenodd" d="M24.83 24.187a1.266 1.266 0 001.09 1.648l9.848.897a1.136 1.136 0 01.906 1.653l-1.55 3a1.136 1.136 0 01-1.01.615H19.27l-14.356-.003c-.483 0-.913-.306-1.073-.762l-2.777-7.952a1.137 1.137 0 011.072-1.51l21.912-.002a1.136 1.136 0 011.082 1.483l-.3.933z" fill="#1E3063"/><path fill-rule="evenodd" clip-rule="evenodd" d="M27.324 22.565l.147-.512a.39.39 0 01.375-.282h1.072a.39.39 0 00.356-.23l2.28-5.053a1.136 1.136 0 00-.024-.982l-6.976-13.71A1.136 1.136 0 0125 .298l.25-.145a1.136 1.136 0 011.549.41l10.295 17.545c.159.27.199.594.11.895l-1.428 4.878c-.155.528-.666.87-1.213.81l-6.27-.68a1.136 1.136 0 01-.968-1.445z" fill="#005AAA"/><path fill-rule="evenodd" clip-rule="evenodd" d="M19.053 8.08a1.137 1.137 0 01-1.382-1.447l.265-.817c.117-.358.403-.635.765-.74l4.251-1.23a1.136 1.136 0 011.428.857l.16.758a1.136 1.136 0 01-.81 1.33L19.053 8.08z" fill="#00AEEF"/></g><defs><clipPath id="clip0_1_164"><path fill="#fff" d="M0 0h178v32H0z"/></clipPath></defs></svg>