<svg width="524" height="164" fill="none" xmlns="http://www.w3.org/2000/svg"><path fill="#1E1E1E" d="M0 0h524v164H0z"/><path fill="#C4C4C4" d="M-4037-7993h32541v19968H-4037z"/><path fill="#F1F3F7" d="M0 0h524v164H0z"/><g filter="url(#filter0_d_0_1)"><path fill-rule="evenodd" clip-rule="evenodd" d="M-168-200h-492c-8.837 0-16 7.163-16 16v332c0 8.837 7.163 16 16 16H0c8.837 0 16-7.163 16-16V32c0-8.837 7.163-16 16-16h476c8.837 0 16-7.163 16-16v-184c0-8.837-7.163-16-16-16h-676z" fill="#fff"/></g><defs><filter id="filter0_d_0_1" x="-686" y="-203" width="1220" height="384" filterUnits="userSpaceOnUse" color-interpolation-filters="sRGB"><feFlood flood-opacity="0" result="BackgroundImageFix"/><feColorMatrix in="SourceAlpha" values="0 0 0 0 0 0 0 0 0 0 0 0 0 0 0 0 0 0 127 0" result="hardAlpha"/><feOffset dy="7"/><feGaussianBlur stdDeviation="5"/><feComposite in2="hardAlpha" operator="out"/><feColorMatrix values="0 0 0 0 0.0372396 0 0 0 0 0.381495 0 0 0 0 0.6875 0 0 0 0.05 0"/><feBlend in2="BackgroundImageFix" result="effect1_dropShadow_0_1"/><feBlend in="SourceGraphic" in2="effect1_dropShadow_0_1" result="shape"/></filter></defs></svg>