<svg width="552" height="62" fill="none" xmlns="http://www.w3.org/2000/svg"><path fill="#1E1E1E" d="M0 0h552v62H0z"/><path fill="#C4C4C4" d="M-3055-12989h32541V6979H-3055z"/><path fill="#F1F3F7" d="M0 0h552v75H0z"/><g filter="url(#filter0_d_0_1)"><path fill-rule="evenodd" clip-rule="evenodd" d="M1200 16c0-8.837-7.16-16-16-16H549c-8.837 0-16 7.163-16 16v15c0 8.837-7.163 16-16 16H16C7.163 47 0 54.163 0 63v346c0 8.837 7.163 16 16 16h1172c6.63 0 12-5.373 12-12V16z" fill="#fff"/></g><defs><filter id="filter0_d_0_1" x="-10" y="-3" width="1220" height="445" filterUnits="userSpaceOnUse" color-interpolation-filters="sRGB"><feFlood flood-opacity="0" result="BackgroundImageFix"/><feColorMatrix in="SourceAlpha" values="0 0 0 0 0 0 0 0 0 0 0 0 0 0 0 0 0 0 127 0" result="hardAlpha"/><feOffset dy="7"/><feGaussianBlur stdDeviation="5"/><feComposite in2="hardAlpha" operator="out"/><feColorMatrix values="0 0 0 0 0.0372396 0 0 0 0 0.381495 0 0 0 0 0.6875 0 0 0 0.05 0"/><feBlend in2="BackgroundImageFix" result="effect1_dropShadow_0_1"/><feBlend in="SourceGraphic" in2="effect1_dropShadow_0_1" result="shape"/></filter></defs></svg>