<svg width="256" height="45" viewBox="0 0 256 45" fill="none" xmlns="http://www.w3.org/2000/svg">
<g clip-path="url(#clip0_186_2824)">
<path fill-rule="evenodd" clip-rule="evenodd" d="M11.3958 45.1579C4.54653 40.8189 0 33.1768 0 24.4737C0 10.9573 10.9663 0 24.4938 0C38.0215 0 48.9877 10.9573 48.9877 24.4737C48.9877 33.1532 44.465 40.7779 37.6462 45.1232L25.2358 36.3395H23.7519L14.4204 42.9995L11.3958 45.1579ZM47.503 22.9904C47.503 30.5447 43.6093 37.2205 37.6557 41.2421L28.205 27.4405H20.7826L11.3316 41.2421C5.37853 37.2205 1.48448 30.5447 1.48448 22.9904C1.48448 10.7027 11.7861 0.741553 24.4938 0.741553C37.2014 0.741553 47.503 10.7027 47.503 22.9904ZM11.1335 25.9571L20.8149 20.7655H28.5598L37.854 25.9571H11.1335ZM20.8149 14.0909L11.1335 19.2823H37.854L28.5598 14.0909H20.8149ZM24.4938 3.70808L21.5249 12.6077H27.4631L24.4938 3.70808Z" fill="#00307D"/>
<path d="M58.0835 6.04688H72.3689V8.37109H66.7306V23.7312H63.7218V8.37109H58.0835V6.04688ZM87.277 21.4321H89.3503V27.1165H86.4932L86.2151 23.7312H74.2557L73.9776 27.1165H71.1458V21.4321H72.4353L72.7134 21.129C73.295 20.4469 73.7754 19.6637 74.0788 18.8048C74.3569 17.9711 74.5339 17.1879 74.5592 16.5058L75.2165 6.04688H87.277V21.4321ZM84.2935 21.4321V8.16898H77.9725L77.5174 15.849C77.4668 16.8595 77.214 17.8953 76.7589 18.9311C76.5819 19.3606 76.3796 19.7395 76.152 20.0932L75.2418 21.4321H84.2935ZM114.974 6.04688H118.033V23.7312H115.075V10.8974L110.296 20.6742H108.476L103.672 10.8974V23.7312H100.714V6.04688H103.773L109.386 17.4911L114.974 6.04688ZM134.436 8.37109H125.08V13.7269H133.399V16.0511H125.08V21.4321H134.436V23.7312H122.097V6.04688H134.436V8.37109ZM136.108 6.04688H150.394V8.37109H144.755V23.7312H141.747V8.37109H136.108V6.04688ZM159.063 6.04688L165.763 23.7312H162.678L160.909 19.1837H153.804L152.034 23.7312H148.949L155.7 6.04688H159.063ZM154.259 16.8595H160.428L157.344 8.7753L154.259 16.8595ZM170.065 6.04688H182.681V23.7312H179.698V8.16898H172.77L172.037 20.3711C171.708 24.7165 167.536 23.7312 166.828 23.63V21.4321C166.828 21.4321 169.154 21.8111 169.281 19.5121L170.065 6.04688ZM188.559 6.04688H201.176V23.7312H198.192V8.16898H191.264L190.531 20.3711C190.202 24.7165 186.031 23.7312 185.323 23.63V21.4321C185.323 21.4321 187.649 21.8111 187.775 19.5121L188.559 6.04688ZM217.444 6.04688H220.074V23.7312H217.09V10.7458L207.887 23.7312H205.257V6.04688H208.216V19.0574L217.444 6.04688ZM231.605 13.1963L238.406 23.7312H235.22L229.734 15.0911L227.13 17.8953V23.7312H224.146V6.04688H227.13V14.1816L234.664 6.04688H238.128L231.605 13.1963ZM249.507 6.04688L256.207 23.7312H253.122L251.352 19.1837H244.248L242.478 23.7312H239.393L246.144 6.04688H249.507ZM244.703 16.8595H250.872L247.787 8.7753L244.703 16.8595Z" fill="#00307D"/>
<path d="M60.8756 39.4326C60.3007 39.4326 59.8039 39.3469 59.3852 39.1762C58.9673 39.0047 58.6404 38.7565 58.4051 38.4325C58.1699 38.1085 58.0343 37.721 58 37.27H59.1499C59.1938 37.5042 59.2895 37.7029 59.4378 37.8653C59.5862 38.0269 59.7815 38.1489 60.0256 38.2297C60.2696 38.3113 60.5535 38.3517 60.8756 38.3517C61.4769 38.3517 61.9124 38.2478 62.1827 38.0409C62.4618 37.8241 62.6014 37.5676 62.6014 37.27C62.6014 36.9188 62.4881 36.6442 62.2608 36.4455C62.0344 36.2386 61.6428 36.1347 61.0846 36.1347H59.8948V35.1618H61.0064C61.4857 35.1618 61.8254 35.067 62.0256 34.8782C62.2353 34.6894 62.3398 34.4231 62.3398 34.081C62.3398 33.8105 62.2178 33.5764 61.9738 33.3777C61.7297 33.1798 61.3637 33.0809 60.8756 33.0809C60.3437 33.0809 59.9562 33.1707 59.7121 33.3513C59.4769 33.522 59.3334 33.7701 59.2807 34.0942H58.1308C58.1651 33.6893 58.2959 33.3282 58.5223 33.0133C58.7488 32.6975 59.063 32.4502 59.4641 32.2696C59.8645 32.0899 60.335 32 60.8756 32C61.7648 32 62.4227 32.1929 62.8494 32.5804C63.2768 32.9679 63.4897 33.4684 63.4897 34.081C63.4897 34.4231 63.4068 34.7249 63.2417 34.9862C63.0759 35.2385 62.8103 35.4372 62.4443 35.5807C62.9323 35.7159 63.272 35.9327 63.4634 36.2295C63.6556 36.5272 63.7513 36.8743 63.7513 37.27C63.7513 37.6575 63.642 38.0178 63.4243 38.3517C63.2066 38.6757 62.8845 38.9371 62.457 39.135C62.0391 39.3337 61.512 39.4326 60.8756 39.4326ZM67.3646 39.4326C66.859 39.4326 66.4276 39.3378 66.0703 39.149C65.7218 38.9503 65.4555 38.6848 65.2729 38.3517C65.0895 38.0087 64.9985 37.6262 64.9985 37.2024C64.9985 36.4909 65.1987 35.9772 65.5998 35.6623C66.0089 35.3465 66.5935 35.1891 67.3511 35.1891H69.5999V34.7026C69.5999 34.09 69.4643 33.6663 69.194 33.4321C68.9332 33.198 68.5361 33.0809 68.005 33.0809C67.5082 33.0809 67.1461 33.1798 66.9196 33.3777C66.6932 33.5673 66.5672 33.7833 66.5408 34.0265H65.3901C65.4164 33.639 65.5432 33.2969 65.7697 33.0001C65.9962 32.6934 66.3056 32.4502 66.6979 32.2696C67.0895 32.0899 67.5472 32 68.0704 32C68.619 32 69.0943 32.0899 69.4954 32.2696C69.8958 32.4411 70.2052 32.7156 70.4229 33.0941C70.6414 33.4634 70.7499 33.9548 70.7499 34.5674V37.4728C70.7499 37.8513 70.7499 38.1852 70.7499 38.4729C70.7586 38.7524 70.7802 39.027 70.8152 39.2974H69.8088C69.7825 39.0904 69.765 38.8967 69.7562 38.7161C69.7474 38.5273 69.7435 38.3154 69.7435 38.0813C69.56 38.4597 69.2642 38.7796 68.8543 39.041C68.4452 39.3023 67.9484 39.4326 67.3646 39.4326ZM67.6126 38.3517C67.9787 38.3517 68.3096 38.2841 68.6063 38.1489C68.9109 38.0137 69.1509 37.815 69.3248 37.5545C69.5082 37.2931 69.5999 36.9732 69.5999 36.5948V36.1083H67.5472C67.1206 36.1083 66.7849 36.1982 66.5408 36.3779C66.2968 36.5494 66.1748 36.824 66.1748 37.2024C66.1748 37.5363 66.288 37.8109 66.5145 38.0269C66.7498 38.2437 67.1158 38.3517 67.6126 38.3517ZM72.7818 39.2974V32.1344H75.7882C76.3632 32.1344 76.8337 32.2201 77.1997 32.3916C77.5658 32.554 77.8361 32.7833 78.0108 33.0809C78.1846 33.3694 78.2715 33.7067 78.2715 34.0942C78.2715 34.4099 78.1719 34.7117 77.9709 35.0002C77.7795 35.2789 77.5315 35.4727 77.2261 35.5807C77.6535 35.6887 77.9757 35.8964 78.1934 36.2023C78.4199 36.5 78.5331 36.8512 78.5331 37.2568C78.5331 37.8785 78.3329 38.374 77.9318 38.7433C77.5315 39.1127 76.9039 39.2974 76.0498 39.2974H72.7818ZM73.9317 38.2437H76.0498C76.5378 38.2437 76.8816 38.153 77.0825 37.9733C77.2827 37.7927 77.3832 37.5363 77.3832 37.2024C77.3832 36.8603 77.2827 36.5989 77.0825 36.4192C76.8816 36.2295 76.5378 36.1347 76.0498 36.1347H73.9317V38.2437ZM73.9317 35.1618H75.7882C76.2851 35.1618 76.6296 35.072 76.821 34.8914C77.0211 34.7117 77.1216 34.4635 77.1216 34.1486C77.1216 33.8509 77.0211 33.6168 76.821 33.4453C76.6296 33.2746 76.2851 33.1889 75.7882 33.1889H73.9317V35.1618ZM83.0491 39.4326C82.4646 39.4326 81.916 39.3023 81.4016 39.041C80.896 38.7706 80.4869 38.3649 80.1727 37.8241C79.8681 37.284 79.7157 36.6038 79.7157 35.7835V35.5131C79.7157 34.7389 79.8681 34.09 80.1727 33.5673C80.4869 33.0446 80.896 32.653 81.4016 32.3916C81.916 32.1303 82.4646 32 83.0491 32C83.6417 32 84.1903 32.1303 84.6959 32.3916C85.2015 32.653 85.6066 33.0446 85.9112 33.5673C86.2254 34.09 86.3817 34.7389 86.3817 35.5131V35.7835C86.3817 36.6038 86.2254 37.284 85.9112 37.8241C85.6066 38.3649 85.2015 38.7706 84.6959 39.041C84.1903 39.3023 83.6417 39.4326 83.0491 39.4326ZM83.0491 38.3517C83.4064 38.3517 83.7461 38.2701 84.0683 38.1085C84.3993 37.937 84.6696 37.6625 84.8785 37.284C85.097 36.9056 85.2055 36.4051 85.2055 35.7835V35.5131C85.2055 34.9368 85.097 34.4726 84.8785 34.1214C84.6696 33.7611 84.3993 33.4997 84.0683 33.3373C83.7461 33.1666 83.4064 33.0809 83.0491 33.0809C82.6999 33.0809 82.3601 33.1666 82.0292 33.3373C81.6982 33.4997 81.4231 33.7611 81.2054 34.1214C80.9965 34.4726 80.892 34.9368 80.892 35.5131V35.7835C80.892 36.4051 80.9965 36.9056 81.2054 37.284C81.4231 37.6625 81.6982 37.937 82.0292 38.1085C82.3601 38.2701 82.6999 38.3517 83.0491 38.3517ZM87.0987 40.9867V38.2437H87.9488C88.0795 38.0632 88.1928 37.7614 88.2885 37.3376C88.3842 36.9056 88.4583 36.401 88.511 35.8239C88.5716 35.2476 88.6019 34.6482 88.6019 34.0265V32.1344H93.4385V38.2437H94.4194V40.9867H93.3213V39.2974H88.1968V40.9867H87.0987ZM89.125 38.2437H92.2886V33.1889H89.7263V34.297C89.7263 35.0538 89.6745 35.7884 89.5692 36.5C89.4735 37.2024 89.326 37.7837 89.125 38.2437ZM99.0662 39.2974V32.1344H100.294L102.766 36.5948L105.236 32.1344H106.386V39.2974H105.236V34.0942L103.184 37.7433H102.269L100.216 34.0942V39.2974H99.0662ZM111.35 39.4326C110.766 39.4326 110.217 39.3023 109.703 39.041C109.197 38.7796 108.788 38.3781 108.474 37.8381C108.169 37.2972 108.017 36.6129 108.017 35.7835V35.5131C108.017 34.7208 108.164 34.0669 108.461 33.5541C108.757 33.0314 109.149 32.6439 109.637 32.3916C110.125 32.1303 110.653 32 111.22 32C112.239 32 113.027 32.2877 113.585 32.8649C114.143 33.4412 114.422 34.2566 114.422 35.3111V36.0671H109.167C109.167 36.6261 109.276 37.0721 109.494 37.4052C109.72 37.7391 109.999 37.9824 110.33 38.1349C110.67 38.2792 111.01 38.3517 111.35 38.3517C111.873 38.3517 112.274 38.261 112.553 38.0813C112.84 37.9007 113.045 37.6534 113.167 37.3376H114.291C114.152 38.0228 113.807 38.5455 113.259 38.9058C112.718 39.257 112.082 39.4326 111.35 39.4326ZM111.285 33.0809C110.927 33.0809 110.587 33.1526 110.265 33.2969C109.943 33.4321 109.676 33.6481 109.468 33.9458C109.267 34.2434 109.167 34.6259 109.167 35.0942H113.337C113.328 34.5987 113.228 34.2071 113.036 33.9185C112.854 33.6217 112.61 33.4098 112.304 33.2837C111.999 33.1485 111.659 33.0809 111.285 33.0809ZM117.511 39.2974V33.1889H115.145V32.1344H121.028V33.1889H118.662V39.2974H117.511ZM124.056 39.4326C123.551 39.4326 123.119 39.3378 122.762 39.149C122.414 38.9503 122.147 38.6848 121.965 38.3517C121.781 38.0087 121.69 37.6262 121.69 37.2024C121.69 36.4909 121.89 35.9772 122.292 35.6623C122.701 35.3465 123.284 35.1891 124.043 35.1891H126.292V34.7026C126.292 34.09 126.156 33.6663 125.886 33.4321C125.625 33.198 125.228 33.0809 124.697 33.0809C124.2 33.0809 123.838 33.1798 123.611 33.3777C123.385 33.5673 123.259 33.7833 123.233 34.0265H122.082C122.108 33.639 122.235 33.2969 122.461 33.0001C122.688 32.6934 122.997 32.4502 123.39 32.2696C123.781 32.0899 124.239 32 124.762 32C125.311 32 125.786 32.0899 126.186 32.2696C126.588 32.4411 126.897 32.7156 127.115 33.0941C127.333 33.4634 127.442 33.9548 127.442 34.5674V37.4728C127.442 37.8513 127.442 38.1852 127.442 38.4729C127.45 38.7524 127.472 39.027 127.507 39.2974H126.501C126.474 39.0904 126.457 38.8967 126.448 38.7161C126.439 38.5273 126.435 38.3154 126.435 38.0813C126.252 38.4597 125.956 38.7796 125.546 39.041C125.137 39.3023 124.64 39.4326 124.056 39.4326ZM124.304 38.3517C124.67 38.3517 125.001 38.2841 125.298 38.1489C125.603 38.0137 125.843 37.815 126.017 37.5545C126.2 37.2931 126.292 36.9732 126.292 36.5948V36.1083H124.239C123.812 36.1083 123.477 36.1982 123.233 36.3779C122.989 36.5494 122.867 36.824 122.867 37.2024C122.867 37.5363 122.98 37.8109 123.206 38.0269C123.442 38.2437 123.808 38.3517 124.304 38.3517ZM129.147 39.4326C129.086 39.4326 129.021 39.4285 128.95 39.4194C128.89 39.4103 128.824 39.4013 128.754 39.3922V38.2025C128.781 38.2116 128.846 38.2165 128.95 38.2165C129.212 38.2165 129.426 38.0994 129.591 37.8653C129.757 37.6221 129.875 37.1983 129.944 36.5948C130.022 35.9822 130.062 35.1264 130.062 34.0265V32.1344H135.029V39.2974H133.879V33.1889H131.212V34.297C131.212 35.2971 131.168 36.1306 131.081 36.7976C130.994 37.4547 130.864 37.9774 130.689 38.3649C130.524 38.7524 130.31 39.027 130.049 39.1894C129.787 39.3518 129.486 39.4326 129.147 39.4326ZM136.793 39.4326C136.732 39.4326 136.667 39.4285 136.597 39.4194C136.536 39.4103 136.47 39.4013 136.401 39.3922V38.2025C136.427 38.2116 136.493 38.2165 136.597 38.2165C136.859 38.2165 137.072 38.0994 137.238 37.8653C137.404 37.6221 137.521 37.1983 137.591 36.5948C137.669 35.9822 137.708 35.1264 137.708 34.0265V32.1344H142.676V39.2974H141.526V33.1889H138.859V34.297C138.859 35.2971 138.815 36.1306 138.728 36.7976C138.64 37.4547 138.51 37.9774 138.336 38.3649C138.17 38.7524 137.957 39.027 137.695 39.1894C137.434 39.3518 137.133 39.4326 136.793 39.4326ZM144.766 39.2974V32.1344H145.917V37.5404L149.499 32.1344H150.649V39.2974H149.499V33.8913L145.917 39.2974H144.766ZM156.758 39.2974V36.4455C156.558 36.5717 156.314 36.6846 156.026 36.7836C155.747 36.8825 155.394 36.9328 154.967 36.9328C154.157 36.9328 153.529 36.7432 153.085 36.3647C152.641 35.9863 152.418 35.3424 152.418 34.4322V32.1344H153.569V34.2294C153.569 34.842 153.691 35.2657 153.934 35.4999C154.178 35.734 154.588 35.8511 155.163 35.8511C155.555 35.8511 155.891 35.8107 156.169 35.7299C156.449 35.6483 156.645 35.5634 156.758 35.4727V32.1344H157.909V39.2974H156.758ZM162.871 39.4326C162.288 39.4326 161.739 39.3023 161.225 39.041C160.719 38.7796 160.31 38.3781 159.996 37.8381C159.691 37.2972 159.538 36.6129 159.538 35.7835V35.5131C159.538 34.7208 159.686 34.0669 159.983 33.5541C160.279 33.0314 160.671 32.6439 161.159 32.3916C161.647 32.1303 162.174 32 162.741 32C163.76 32 164.549 32.2877 165.107 32.8649C165.665 33.4412 165.943 34.2566 165.943 35.3111V36.0671H160.689C160.689 36.6261 160.798 37.0721 161.016 37.4052C161.242 37.7391 161.521 37.9824 161.852 38.1349C162.192 38.2792 162.532 38.3517 162.871 38.3517C163.394 38.3517 163.796 38.261 164.074 38.0813C164.362 37.9007 164.567 37.6534 164.689 37.3376H165.813C165.674 38.0228 165.329 38.5455 164.78 38.9058C164.24 39.257 163.603 39.4326 162.871 39.4326ZM162.806 33.0809C162.449 33.0809 162.109 33.1526 161.787 33.2969C161.465 33.4321 161.198 33.6481 160.989 33.9458C160.789 34.2434 160.689 34.6259 160.689 35.0942H164.859C164.85 34.5987 164.749 34.2071 164.558 33.9185C164.375 33.6217 164.131 33.4098 163.826 33.2837C163.521 33.1485 163.181 33.0809 162.806 33.0809ZM170.258 39.4326C169.666 39.4326 169.13 39.3023 168.651 39.041C168.18 38.7706 167.805 38.3649 167.526 37.8241C167.256 37.284 167.121 36.6038 167.121 35.7835V35.5131C167.121 34.7389 167.269 34.09 167.565 33.5673C167.862 33.0446 168.249 32.653 168.729 32.3916C169.208 32.1303 169.718 32 170.258 32C170.808 32 171.278 32.1031 171.67 32.3108C172.071 32.5087 172.393 32.7832 172.637 33.1345C172.881 33.4775 173.047 33.865 173.134 34.297H171.958C171.818 33.9548 171.622 33.6663 171.369 33.4321C171.125 33.198 170.755 33.0809 170.258 33.0809C169.919 33.0809 169.6 33.1666 169.304 33.3373C169.008 33.4997 168.764 33.7611 168.572 34.1214C168.389 34.4726 168.297 34.9368 168.297 35.5131V35.7835C168.297 36.3961 168.389 36.8916 168.572 37.27C168.764 37.6484 169.008 37.9238 169.304 38.0945C169.6 38.266 169.919 38.3517 170.258 38.3517C170.686 38.3517 171.043 38.2437 171.33 38.0269C171.627 37.8109 171.836 37.5132 171.958 37.1348H173.134C173.029 37.6039 172.842 38.0137 172.572 38.3649C172.302 38.7071 171.97 38.9734 171.579 39.1622C171.186 39.3427 170.746 39.4326 170.258 39.4326ZM174.702 39.2974V32.1344H175.852V35.1346H176.767L179.355 32.1344H180.715L177.708 35.5675L180.845 39.2974H179.381L176.767 36.1619H175.852V39.2974H174.702ZM182.22 39.2974V32.1344H183.371V37.5404L186.952 32.1344H188.103V39.2974H186.952V33.8913L183.371 39.2974H182.22ZM189.48 39.2974L192.082 35.6623L189.611 32.1344H190.944L192.774 34.743L194.604 32.1344H195.886L193.415 35.5947L196.016 39.2974H194.657L192.722 36.5L190.787 39.2974H189.48ZM203.53 39.4326C202.946 39.4326 202.397 39.3023 201.882 39.041C201.378 38.7706 200.968 38.3649 200.654 37.8241C200.349 37.284 200.197 36.6038 200.197 35.7835V35.5131C200.197 34.7389 200.349 34.09 200.654 33.5673C200.968 33.0446 201.378 32.653 201.882 32.3916C202.397 32.1303 202.946 32 203.53 32C204.123 32 204.671 32.1303 205.177 32.3916C205.682 32.653 206.088 33.0446 206.393 33.5673C206.706 34.09 206.863 34.7389 206.863 35.5131V35.7835C206.863 36.6038 206.706 37.284 206.393 37.8241C206.088 38.3649 205.682 38.7706 205.177 39.041C204.671 39.3023 204.123 39.4326 203.53 39.4326ZM203.53 38.3517C203.887 38.3517 204.227 38.2701 204.549 38.1085C204.881 37.937 205.15 37.6625 205.36 37.284C205.578 36.9056 205.686 36.4051 205.686 35.7835V35.5131C205.686 34.9368 205.578 34.4726 205.36 34.1214C205.15 33.7611 204.881 33.4997 204.549 33.3373C204.227 33.1666 203.887 33.0809 203.53 33.0809C203.182 33.0809 202.841 33.1666 202.51 33.3373C202.179 33.4997 201.905 33.7611 201.687 34.1214C201.477 34.4726 201.373 34.9368 201.373 35.5131V35.7835C201.373 36.4051 201.477 36.9056 201.687 37.284C201.905 37.6625 202.179 37.937 202.51 38.1085C202.841 38.2701 203.182 38.3517 203.53 38.3517ZM208.492 39.2974V32.1344H214.244V39.2974H213.093V33.1889H209.643V39.2974H208.492ZM219.206 39.4326C218.622 39.4326 218.073 39.3023 217.559 39.041C217.053 38.7706 216.644 38.3649 216.33 37.8241C216.025 37.284 215.872 36.6038 215.872 35.7835V35.5131C215.872 34.7389 216.025 34.09 216.33 33.5673C216.644 33.0446 217.053 32.653 217.559 32.3916C218.073 32.1303 218.622 32 219.206 32C219.798 32 220.348 32.1303 220.853 32.3916C221.358 32.653 221.763 33.0446 222.069 33.5673C222.382 34.09 222.539 34.7389 222.539 35.5131V35.7835C222.539 36.6038 222.382 37.284 222.069 37.8241C221.763 38.3649 221.358 38.7706 220.853 39.041C220.348 39.3023 219.798 39.4326 219.206 39.4326ZM219.206 38.3517C219.563 38.3517 219.903 38.2701 220.226 38.1085C220.557 37.937 220.827 37.6625 221.036 37.284C221.254 36.9056 221.363 36.4051 221.363 35.7835V35.5131C221.363 34.9368 221.254 34.4726 221.036 34.1214C220.827 33.7611 220.557 33.4997 220.226 33.3373C219.903 33.1666 219.563 33.0809 219.206 33.0809C218.857 33.0809 218.518 33.1666 218.187 33.3373C217.855 33.4997 217.581 33.7611 217.363 34.1214C217.154 34.4726 217.049 34.9368 217.049 35.5131V35.7835C217.049 36.4051 217.154 36.9056 217.363 37.284C217.581 37.6625 217.855 37.937 218.187 38.1085C218.518 38.2701 218.857 38.3517 219.206 38.3517ZM224.168 42V32.1344H225.24V33.4865C225.475 33.0083 225.802 32.6439 226.22 32.3916C226.648 32.1303 227.14 32 227.697 32C228.569 32 229.266 32.2968 229.789 32.8913C230.312 33.4775 230.574 34.3514 230.574 35.5131V35.7835C230.574 36.5948 230.452 37.27 230.208 37.8109C229.972 38.3517 229.637 38.7565 229.201 39.027C228.774 39.2974 228.273 39.4326 227.697 39.4326C227.105 39.4326 226.608 39.2974 226.208 39.027C225.815 38.7565 225.519 38.4193 225.318 38.0137V42H224.168ZM227.436 38.3781C228.003 38.3781 228.473 38.158 228.848 37.7161C229.232 37.275 229.423 36.6302 229.423 35.7835V35.5131C229.423 34.7298 229.232 34.1263 228.848 33.7025C228.473 33.2697 228.003 33.0537 227.436 33.0537C227.018 33.0537 226.648 33.1435 226.325 33.3241C226.011 33.5038 225.763 33.752 225.58 34.067C225.405 34.3737 225.318 34.7208 225.318 35.1083V36.1891C225.318 36.622 225.405 37.0045 225.58 37.3376C225.763 37.6625 226.011 37.9189 226.325 38.1085C226.648 38.2882 227.018 38.3781 227.436 38.3781ZM235.152 39.4326C235.09 39.4326 235.025 39.4285 234.956 39.4194C234.894 39.4103 234.829 39.4013 234.76 39.3922V38.2025C234.786 38.2116 234.851 38.2165 234.956 38.2165C235.217 38.2165 235.43 38.0994 235.596 37.8653C235.762 37.6221 235.879 37.1983 235.949 36.5948C236.028 35.9822 236.067 35.1264 236.067 34.0265V32.1344H241.034V39.2974H239.883V33.1889H237.217V34.297C237.217 35.2971 237.173 36.1306 237.087 36.7976C236.999 37.4547 236.868 37.9774 236.694 38.3649C236.528 38.7524 236.315 39.027 236.054 39.1894C235.792 39.3518 235.492 39.4326 235.152 39.4326ZM245.478 39.4326C244.999 39.4326 244.559 39.3427 244.158 39.1622C243.765 38.9734 243.434 38.7071 243.164 38.3649C242.902 38.0137 242.715 37.6039 242.602 37.1348H243.779C243.901 37.5132 244.105 37.8109 244.393 38.0269C244.69 38.2437 245.051 38.3517 245.478 38.3517C245.992 38.3517 246.432 38.1852 246.798 37.8513C247.164 37.5182 247.373 36.9592 247.426 36.1759H244.694V35.1214H247.426C247.364 34.4009 247.155 33.8823 246.798 33.5673C246.441 33.2433 246.001 33.0809 245.478 33.0809C244.999 33.0809 244.624 33.198 244.354 33.4321C244.092 33.6663 243.901 33.9548 243.779 34.297H242.602C242.69 33.865 242.855 33.4775 243.099 33.1345C243.343 32.7832 243.666 32.5087 244.066 32.3108C244.467 32.1031 244.938 32 245.478 32C246.071 32 246.602 32.1303 247.072 32.3916C247.543 32.653 247.918 33.0446 248.197 33.5673C248.476 34.09 248.615 34.7389 248.615 35.5131V35.7835C248.615 36.6038 248.48 37.284 248.21 37.8241C247.94 38.3649 247.569 38.7706 247.099 39.041C246.628 39.3023 246.088 39.4326 245.478 39.4326ZM250.248 39.2974V32.1344H256V39.2974H254.849V33.1889H251.399V39.2974H250.248Z" fill="#222222"/>
</g>
<defs>
<clipPath id="clip0_186_2824">
<rect width="256" height="45" fill="white"/>
</clipPath>
</defs>
</svg>
