<svg width="65" height="107" viewBox="0 0 65 107" fill="none" xmlns="http://www.w3.org/2000/svg">
<path d="M31.1078 1.84293C30.9405 2.54082 30.736 3.59708 30.6244 4.16293C30.5315 4.72879 30.011 7.23741 29.4718 9.72717C28.7096 13.3109 28.4865 14.7633 28.3936 16.706L28.282 19.1392L22.426 21.6478C19.2099 23.0436 15.6963 24.5526 14.618 25.0052C13.5398 25.4579 12.257 26.0238 11.7365 26.269L10.807 26.7028L12.3872 26.7594C13.9302 26.816 14.618 27.0423 14.0045 27.2875C13.7257 27.3818 13.6885 27.7213 13.6885 29.5509C13.6885 31.3428 13.7443 31.7012 13.9674 31.7012C14.1161 31.7012 14.2462 31.7955 14.2462 31.8898C14.2462 32.003 14.3949 31.9841 14.618 31.8521C14.9527 31.6257 14.9898 31.3994 14.9898 29.4755C14.9898 27.7591 14.9341 27.3252 14.711 27.2498C13.8186 26.8914 15.2873 26.7971 21.2734 26.816C24.9172 26.8348 28.0032 26.8914 28.1519 26.9291C28.3378 27.0046 28.3936 27.7591 28.3564 30.5129C28.3378 33.8703 28.3192 34.0023 27.9288 34.1532C27.7243 34.2475 25.9025 34.7568 23.9133 35.2849C21.9241 35.813 18.9496 36.6241 17.3136 37.0768C15.6777 37.5295 12.2013 38.4537 9.5986 39.1516C1.47455 41.3207 0.489258 41.6036 0.489258 41.7357C0.489258 41.83 1.15852 41.8866 1.95791 41.8866C3.35219 41.8866 4.00286 42.094 3.37078 42.3392C2.9432 42.4901 2.96179 48.4127 3.38937 48.8843C3.64964 49.1861 3.70541 49.1861 4.02145 48.922C4.3189 48.6579 4.35608 48.2618 4.37467 45.5457C4.39326 42.924 4.35608 42.4335 4.1144 42.3392C3.96568 42.2638 3.83555 42.1506 3.83555 42.0563C3.83555 41.962 8.91075 41.9054 16.0681 41.9243L28.282 41.9809L28.3378 43.5653C28.375 44.4329 28.2634 46.0362 28.0961 47.149C27.9474 48.243 27.557 50.8836 27.2596 53.015C26.9435 55.1464 26.4788 58.3718 26.2371 60.1825C25.9768 61.9932 25.4749 65.5958 25.1217 68.1988C24.7498 70.7828 24.3037 74.1402 24.0992 75.6492C23.8947 77.1581 23.6158 79.1952 23.4485 80.176C23.2998 81.1568 22.5933 86.2495 21.8683 91.4931C21.1433 96.7367 20.3997 102.075 20.2138 103.376C19.9907 104.791 19.9349 105.809 20.0279 105.922C20.3625 106.262 20.5298 105.715 20.8087 103.489C20.9574 102.263 21.1619 101.188 21.2548 101.113C21.3292 101.018 23.8947 99.8677 26.9249 98.5663L32.4649 96.1708L36.8708 98.0947C43.0429 100.811 43.5634 101.037 43.675 101.245C43.7307 101.339 43.8795 102.32 44.0096 103.451C44.2327 105.357 44.5301 106.281 44.8462 105.979C44.9019 105.904 44.3628 101.528 43.6378 96.2651C42.8942 91.0027 41.7601 82.8167 41.0909 78.1012C40.4402 73.3858 39.6594 67.7838 39.362 65.6524C39.0459 63.521 38.451 59.2771 38.042 56.2215C37.6145 53.1659 37.1125 49.5822 36.9266 48.2807C36.7221 46.9792 36.5548 45.0176 36.5548 43.9048V41.8866H48.7316C59.4955 41.8866 61.6706 41.962 60.7224 42.3015C60.6295 42.3392 60.5365 43.6973 60.5179 45.4326C60.4808 48.111 60.5179 48.5448 60.8154 48.8654C61.1128 49.2049 61.1686 49.2049 61.4475 48.922C61.6891 48.6579 61.7449 48.111 61.7449 45.508C61.7635 43.1314 61.7077 42.3958 61.5218 42.3204C60.8712 42.0563 61.4475 41.8866 62.8975 41.8866C64.5707 41.8866 64.738 41.7168 63.4181 41.3773C63.0091 41.2641 60.5923 40.604 58.0268 39.9061C55.4799 39.227 52.6356 38.4537 51.7061 38.2085C50.7951 37.9633 48.7316 37.4163 47.1514 36.9825C43.991 36.1148 42.039 35.5867 38.7857 34.7379L36.6478 34.1909V30.5317V26.8914L43.3961 26.8537C49.5124 26.8348 50.9624 26.9291 50.0515 27.2875C49.6425 27.4573 49.6053 31.7012 50.0143 31.7012C50.163 31.7012 50.3118 31.8143 50.3489 31.9275C50.4047 32.0973 50.5163 32.0784 50.7393 31.8521C51.1855 31.4183 51.2041 27.4195 50.7765 27.2498C50.256 27.0423 50.7208 26.7594 51.5016 26.816C51.9105 26.8348 52.6913 26.8348 53.1933 26.816L54.1228 26.7782L53.5651 26.4765C53.2677 26.3067 52.5426 25.986 51.9849 25.7408C50.1073 24.9675 47.4488 23.8547 45.5712 23.0247C44.5487 22.5721 42.132 21.5347 40.1799 20.6859L36.6478 19.1581L36.5362 16.8947C36.4619 15.5366 36.2388 13.7636 35.9413 12.4621C35.681 11.2738 35.1047 8.59546 34.6772 6.52066C34.2496 4.44586 33.8034 2.27676 33.6919 1.7109L33.4688 0.6735L32.4277 0.61692L31.3866 0.560333L31.1078 1.84293ZM33.4316 3.40846C33.6919 4.59676 33.9335 5.80392 33.9335 6.08684L33.9521 6.61497H32.4835C31.6655 6.61497 30.9591 6.53953 30.8847 6.44521C30.8103 6.29432 31.1822 4.3327 31.8142 1.56001C31.9072 1.2205 32.0187 1.12618 32.4277 1.18277C32.9111 1.23936 32.9482 1.33366 33.4316 3.40846ZM34.138 7.21855C34.231 7.46375 34.4355 8.29367 34.6028 9.06701C34.7701 9.84034 34.9374 10.6325 34.9932 10.8023C35.0862 11.1229 34.8817 11.1418 32.4835 11.1418C30.8475 11.1418 29.8622 11.0664 29.8622 10.9532C29.8622 10.7268 30.5687 7.38831 30.6988 7.02993C30.7546 6.87904 31.2751 6.80359 32.3719 6.80359C33.8406 6.80359 33.9707 6.84132 34.138 7.21855ZM35.1605 11.934C35.1977 12.1792 35.3836 12.9525 35.5323 13.6504C35.681 14.3672 35.774 15.0273 35.6996 15.1217C35.5881 15.3291 29.1744 15.348 29.0628 15.1405C29.0071 15.0651 29.1558 14.2163 29.3603 13.2543L29.7507 11.519H32.4091C35.0118 11.519 35.0676 11.519 35.1605 11.934ZM31.7213 15.9138C31.7213 15.9327 31.0892 16.5929 30.327 17.3662L28.9327 18.762V17.3096V15.8573H30.327C31.0892 15.8573 31.7213 15.8761 31.7213 15.9138ZM34.0451 17.3662C34.8445 18.1961 35.458 18.9129 35.4022 18.9695C35.3464 19.026 33.9521 19.0449 32.279 19.026L29.2487 18.9695L30.7174 17.4417C31.5168 16.5929 32.279 15.895 32.3719 15.895C32.4835 15.8761 33.2271 16.5363 34.0451 17.3662ZM35.9599 17.0644C36.0529 18.894 35.9599 18.9129 34.5098 17.4605C33.7848 16.7438 33.2085 16.0836 33.2085 15.9893C33.2085 15.9138 33.822 15.8573 34.5656 15.895L35.9041 15.9516L35.9599 17.0644ZM35.4394 19.5919C35.4394 19.6673 34.7701 20.403 33.9521 21.2329L32.4649 22.723L30.9219 21.2329C30.0481 20.403 29.3417 19.6673 29.3231 19.573C29.3231 19.4976 30.6802 19.441 32.3719 19.441C34.0637 19.441 35.4394 19.4976 35.4394 19.5919ZM28.3378 22.987C28.375 25.722 28.3378 26.2313 28.1147 26.2313C27.7057 26.2313 20.5484 23.1002 20.5484 22.9304C20.5484 22.7984 21.4407 22.3834 26.423 20.2709C27.241 19.9314 28.0032 19.6673 28.0961 19.7051C28.2077 19.7428 28.3006 21.0443 28.3378 22.987ZM38.6369 20.3652C39.5851 20.7802 41.2396 21.4781 42.2993 21.9308C44.0096 22.6664 44.809 23.2134 44.1955 23.2134C44.084 23.2134 42.5224 23.8547 40.7377 24.628C38.953 25.4013 37.2798 26.0804 37.0196 26.1558L36.5548 26.269V22.9493C36.5548 20.9311 36.6292 19.6296 36.7407 19.6296C36.8337 19.6296 37.6888 19.9691 38.6369 20.3652ZM30.6988 24.5337C29.8808 25.3636 29.1558 26.0426 29.0814 26.0426C28.9885 26.0426 28.9327 24.628 28.9327 22.8927V19.7239L30.5501 21.3649L32.186 23.0247L30.6988 24.5337ZM35.9971 23.0436C35.9971 24.6846 35.9413 26.0426 35.867 26.0426C35.6625 26.0426 32.8367 23.1568 32.8367 22.9304C32.8367 22.6475 35.6625 19.8182 35.8484 19.9314C35.9227 19.988 35.9971 21.3838 35.9971 23.0436ZM19.6375 24.9109V26.6085H15.8822C13.577 26.6085 12.2013 26.533 12.3128 26.4387C12.4058 26.3444 13.2795 25.9295 14.2462 25.4956C15.2129 25.0807 16.8117 24.4017 17.7784 23.9867C18.7451 23.5717 19.5631 23.2134 19.6003 23.2134C19.6189 23.2134 19.6375 23.9678 19.6375 24.9109ZM49.1406 24.8732C50.9996 25.6654 52.5426 26.3821 52.5426 26.4576C52.5426 26.5519 50.8695 26.6085 48.8245 26.6085H45.1064V24.8921C45.1064 23.3643 45.1436 23.1945 45.4225 23.2888C45.5898 23.3643 47.2629 24.0621 49.1406 24.8732ZM23.8575 24.8543C25.7351 25.6654 27.2596 26.3821 27.2596 26.4576C27.2596 26.5519 25.6236 26.6085 23.6344 26.6085H20.0093V25.0052C20.0093 23.8547 20.065 23.402 20.2509 23.402C20.3625 23.402 21.9985 24.0621 23.8575 24.8543ZM33.9893 24.8543C34.7887 25.6654 35.4394 26.3821 35.4394 26.4576C35.4394 26.5519 34.0637 26.6085 32.3719 26.6085C30.6802 26.6085 29.3045 26.5519 29.3045 26.4765C29.3045 26.269 32.1489 23.402 32.3719 23.402C32.4649 23.402 33.2085 24.0621 33.9893 24.8543ZM44.7904 24.8355C44.8647 25.6277 44.8647 26.3444 44.809 26.4387C44.6788 26.6651 37.4843 26.6651 37.4843 26.4387C37.4843 26.3633 37.8561 26.1369 38.3209 25.9672C38.7857 25.7786 40.3101 25.1373 41.723 24.5148C43.1172 23.9112 44.3628 23.402 44.4743 23.402C44.6045 23.402 44.7346 23.9867 44.7904 24.8355ZM35.4394 27.1366C35.4394 27.2121 34.7701 27.9477 33.9521 28.7776L32.4649 30.2865L30.8289 28.6267L29.2116 26.9857H32.3348C34.0451 26.9857 35.4394 27.0423 35.4394 27.1366ZM30.6802 28.9851L32.1489 30.5506L30.6988 32.0784C29.8994 32.9083 29.1744 33.5874 29.0814 33.5874C29.0071 33.5874 28.9327 32.1916 28.9327 30.4752C28.9327 28.7587 28.9885 27.3818 29.0814 27.3818C29.1558 27.4007 29.8808 28.1174 30.6802 28.9851ZM35.9971 30.2677C35.9971 32.1916 35.9227 33.229 35.7926 33.3233C35.681 33.3987 34.956 32.7952 34.1194 31.9652L32.6508 30.4752L34.1752 28.9285C35.0304 28.0608 35.774 27.363 35.8484 27.363C35.9413 27.363 35.9971 28.6644 35.9971 30.2677ZM34.2868 32.6254C34.9188 33.3044 35.4394 33.908 35.4394 34.0023C35.4394 34.1721 29.602 34.2098 29.4346 34.0212C29.3603 33.9646 29.9924 33.1913 30.8289 32.3425C32.5764 30.5317 32.2418 30.494 34.2868 32.6254ZM35.4394 34.5116C35.4394 34.7191 32.7438 37.4163 32.4463 37.5295C32.186 37.6049 29.2859 34.7002 29.4161 34.4927C29.5462 34.2852 35.4394 34.3041 35.4394 34.5116ZM28.3378 37.9067C28.3564 39.7174 28.3192 41.2641 28.2449 41.3396C28.1519 41.4339 27.6686 41.3584 27.1666 41.2075C26.6461 41.0378 25.3261 40.6794 24.1921 40.3776C20.6042 39.4534 15.6591 38.0953 15.5661 38.0199C15.4546 37.9067 15.6963 37.8313 18.522 37.0768C22.6677 35.9639 25.2332 35.2661 26.5159 34.9077C27.1852 34.7191 27.8545 34.5682 28.0032 34.587C28.2449 34.6248 28.282 35.1529 28.3378 37.9067ZM42.9685 36.1526C46.352 37.0579 49.1406 37.8124 49.1777 37.8501C49.3822 38.0387 48.7316 38.2274 44.1397 39.4534C39.8825 40.5851 38.2279 41.0378 36.8894 41.4339C36.5734 41.5282 36.5548 41.283 36.5548 38.0387C36.5548 36.1148 36.6106 34.5304 36.7035 34.5304C36.7779 34.5304 39.6036 35.2661 42.9685 36.1526ZM30.6988 36.4166L32.186 37.9256L30.5501 39.5854L28.9327 41.2264V38.0576C28.9327 36.3223 28.9885 34.9077 29.0814 34.9077C29.1558 34.9077 29.8808 35.5867 30.6988 36.4166ZM35.9971 37.9067C35.9971 39.5666 35.9227 40.9623 35.8484 41.0189C35.6439 41.1509 32.7809 38.2085 32.8553 37.9633C32.9854 37.5861 35.5323 34.9265 35.774 34.9077C35.9413 34.9077 35.9971 35.6244 35.9971 37.9067ZM14.5808 39.9438L14.6366 41.5093H8.55753C5.21124 41.5093 2.51562 41.4716 2.5528 41.415C2.60857 41.3773 4.85802 40.736 7.55364 40.0192C10.2679 39.2836 12.7404 38.6046 13.0378 38.5103C13.3539 38.416 13.8 38.3405 14.0603 38.3594C14.5065 38.3971 14.5251 38.4537 14.5808 39.9438ZM19.0797 39.3214C20.8644 39.8118 23.2998 40.4719 24.471 40.7926C25.6422 41.0944 26.6275 41.3773 26.6647 41.415C26.8692 41.6225 22.8908 41.7168 19.1727 41.6036L14.8039 41.4716V39.8683V38.2651L15.3245 38.3405C15.6033 38.3971 17.2951 38.8309 19.0797 39.3214ZM34.0451 39.8118C34.8445 40.6417 35.458 41.3584 35.4022 41.415C35.3464 41.4716 33.9521 41.4905 32.279 41.4716L29.2487 41.415L30.7174 39.8872C31.5168 39.0384 32.279 38.3405 32.3719 38.3405C32.4835 38.3217 33.2271 38.9818 34.0451 39.8118ZM49.94 39.9061V41.5093H44.0468C40.812 41.5093 38.2094 41.4716 38.2465 41.4339C38.2837 41.3773 40.5518 40.7548 43.2474 40.0192C45.9616 39.2836 48.4341 38.6046 48.7316 38.5103C49.9214 38.1331 49.94 38.1519 49.94 39.9061ZM53.751 39.0761C55.294 39.4911 57.8409 40.1701 59.4211 40.5851C61.0013 41 62.3398 41.3773 62.377 41.4339C62.4142 41.4716 59.7186 41.5093 56.3909 41.5093H50.3118V39.9061C50.3118 38.5103 50.3489 38.3028 50.6464 38.3028C50.8137 38.3028 52.2266 38.6612 53.751 39.0761ZM35.4394 42.0186C35.4394 42.2261 32.595 45.0931 32.4091 45.0931C32.2418 45.0931 29.3045 42.1506 29.3045 41.9809C29.3045 41.9243 30.6802 41.8866 32.3719 41.8866C34.0637 41.8866 35.4394 41.9431 35.4394 42.0186ZM31.6283 45.0931C31.5726 45.1685 30.9777 45.2062 30.2898 45.1874L29.0257 45.1496L28.9699 43.6596L28.9141 42.1695L30.3084 43.5653C31.0706 44.3386 31.6655 45.0365 31.6283 45.0931ZM35.9971 43.7539V45.0553L34.6958 45.1308C33.9707 45.1685 33.3015 45.1496 33.1899 45.1119C32.9482 45.0365 35.4394 42.4713 35.774 42.4524C35.9227 42.4524 35.9971 42.8296 35.9971 43.7539ZM31.7213 45.9418C31.7213 46.1116 28.6724 49.6199 28.5237 49.6199C28.4308 49.6199 28.375 49.4313 28.375 49.2049C28.375 48.7711 28.7282 46.4888 28.8398 46.0739C28.8955 45.923 29.3603 45.8475 30.327 45.8475C31.0892 45.8475 31.7213 45.8853 31.7213 45.9418ZM34.3797 48.0166C35.2721 49.054 35.9971 49.9783 35.9971 50.0914C35.9971 50.1857 34.4541 50.2989 32.279 50.3366C30.234 50.3744 28.5609 50.3555 28.5609 50.2801C28.5609 50.2046 29.3975 49.1672 30.4385 47.9978C31.6841 46.5643 32.3905 45.9041 32.5578 45.9984C32.688 46.0739 33.506 46.9792 34.3797 48.0166ZM35.9041 46.0362C36.0529 46.2814 36.5548 49.6765 36.4619 49.7708C36.4247 49.8085 36.1086 49.5256 35.774 49.1295C35.4394 48.7334 34.7143 47.9035 34.1938 47.2999C33.6547 46.6775 33.2085 46.1116 33.2085 46.0173C33.2085 45.7721 35.7554 45.8098 35.9041 46.0362ZM36.1458 50.9214C36.0714 51.1477 32.5764 55.0898 32.4463 55.0898C32.3348 55.0898 28.8955 51.3552 28.6724 50.9779C28.5609 50.8082 29.3603 50.7516 32.3719 50.7516C34.5284 50.7516 36.183 50.827 36.1458 50.9214ZM30.2154 53.1848C31.3681 54.4485 32.0559 55.335 31.9815 55.5048C31.87 55.7877 27.3525 59.8619 27.0365 59.975C26.9063 60.0127 26.8692 59.8241 26.9435 59.4092C26.9993 59.0508 27.2782 57.0514 27.557 54.9389C27.8359 52.8453 28.1333 51.1288 28.2077 51.1288C28.2634 51.1288 29.1744 52.0531 30.2154 53.1848ZM36.7965 51.6381C37.0939 53.2225 37.8933 59.8241 37.8004 59.9184C37.7446 59.9939 36.5548 58.9942 35.1791 57.7116L32.6694 55.4105L33.1156 54.8635C34.1194 53.6563 36.4619 51.1288 36.5734 51.1288C36.6478 51.1288 36.7407 51.3552 36.7965 51.6381ZM32.8553 55.9575C33.004 56.1272 34.1009 57.1646 35.2906 58.2397C36.499 59.3149 37.4843 60.2957 37.4843 60.39C37.4843 60.4843 35.3836 60.5597 32.3719 60.5597C28.1519 60.5597 27.2596 60.522 27.3897 60.3145C27.5756 59.9939 32.3348 55.6557 32.4835 55.6557C32.5578 55.6557 32.7252 55.7877 32.8553 55.9575ZM37.4471 60.9181C37.4286 61.0313 36.2759 62.0498 34.9002 63.1815C32.4649 65.2375 32.4091 65.2563 32.0187 64.9357C30.4571 63.6908 27.4455 61.0313 27.4455 60.8993C27.4455 60.8238 29.7135 60.7484 32.4835 60.7484C35.5695 60.7484 37.4843 60.8238 37.4471 60.9181ZM29.509 63.2193C31.7213 65.0866 32.186 65.6336 31.7585 65.8033C31.6841 65.8222 31.0334 66.2937 30.327 66.8407C27.5198 68.9721 25.8653 70.1604 25.6794 70.1604C25.4377 70.1604 25.4377 70.1604 26.0326 65.9354C26.7018 61.1256 26.7018 61.1256 26.8692 61.1256C26.9435 61.1256 28.1333 62.0687 29.509 63.2193ZM38.7671 65.6713C39.1017 68.1611 39.3434 70.2359 39.3062 70.2736C39.269 70.3113 38.451 69.7454 37.4843 69.0287C36.5176 68.3119 35.0676 67.2368 34.2682 66.671C33.4688 66.0863 32.8367 65.5393 32.8739 65.4261C32.9668 65.1809 37.726 61.1445 37.9491 61.1256C38.0606 61.1256 38.4139 63.0306 38.7671 65.6713ZM33.5989 66.5578C34.0451 66.8973 35.3464 67.8593 36.4619 68.6892C37.5959 69.5191 38.5812 70.2924 38.6927 70.3867C38.7857 70.4811 36.4247 70.5565 32.5021 70.5565C29.0071 70.5565 26.1441 70.4999 26.1441 70.4056C26.1627 70.3302 27.3339 69.4248 28.7654 68.3874C30.2154 67.35 31.6097 66.3126 31.8886 66.0863C32.4091 65.6524 32.4091 65.6524 33.5989 66.5578ZM38.5998 71.0658C38.5812 71.2355 32.8739 75.1399 32.5207 75.2342C32.2976 75.2908 26.9993 71.8202 26.33 71.1978C26.1069 70.9715 27.0365 70.9337 32.3348 70.9337C35.774 70.9337 38.5998 70.9903 38.5998 71.0658ZM28.8212 73.2915C30.5129 74.4232 31.9072 75.4417 31.9072 75.5549C31.9072 75.7435 24.2479 80.3835 24.1178 80.2703C24.0806 80.2137 24.3409 78.1578 24.6755 75.6492C25.1031 72.6502 25.3819 71.1224 25.5121 71.1601C25.6236 71.1978 27.1108 72.1409 28.8212 73.2915ZM39.5293 71.2544C39.5293 71.4807 40.6447 79.3084 40.7377 79.7422C40.812 80.0251 40.7563 80.176 40.5889 80.176C40.3844 80.176 33.9707 76.4225 33.1342 75.8001C32.7995 75.5549 33.0226 75.3663 35.9227 73.348C38.8414 71.3298 39.5293 70.9149 39.5293 71.2544ZM35.7926 77.7994C37.5959 78.8746 39.3434 79.8931 39.678 80.0629C39.994 80.2326 40.2729 80.459 40.2729 80.5533C40.2729 80.6664 37.41 80.7419 32.4649 80.7419C28.1333 80.7419 24.6569 80.6664 24.6569 80.5721C24.6569 80.4778 25.605 79.8554 26.7576 79.1763C27.8916 78.4785 29.602 77.4599 30.5129 76.8941C31.4424 76.3282 32.2604 75.8567 32.3534 75.8567C32.4463 75.8378 34.0079 76.7243 35.7926 77.7994ZM40.1428 81.0625C40.2915 81.1946 40.3287 81.1757 35.6439 83.8541C33.1527 85.3064 32.3534 85.6648 32.1117 85.5328C31.9444 85.4196 30.1969 84.4199 28.2449 83.2882C26.2743 82.1565 24.6569 81.1757 24.6569 81.0814C24.6569 80.8928 39.9755 80.8739 40.1428 81.0625ZM28.0218 83.5146C30.1597 84.7406 31.9072 85.7968 31.9072 85.8723C31.9072 85.9477 31.3866 86.2684 30.7546 86.5702C30.1039 86.872 28.0961 87.8339 26.2929 88.7393C24.471 89.6258 22.8908 90.3614 22.7793 90.3614C22.6677 90.3614 22.6305 90.1539 22.6863 89.8333C22.7421 89.5503 22.928 88.3432 23.0767 87.1549C23.653 82.7601 23.8947 81.3077 24.0434 81.3077C24.0992 81.3077 25.8839 82.3074 28.0218 83.5146ZM40.8864 81.4398C41.0537 81.7227 42.1691 90.1916 42.0576 90.3048C41.9275 90.4557 33.1527 86.1552 33.0784 85.91C33.0226 85.7591 40.3101 81.3643 40.6819 81.3266C40.7563 81.3077 40.8492 81.3643 40.8864 81.4398ZM38.6555 89.1354C40.2729 89.9464 41.5556 90.6443 41.5185 90.682C41.4069 90.7764 23.4857 90.7575 23.3927 90.6443C23.3556 90.6066 25.3447 89.5692 27.8359 88.3243L32.3719 86.0986L34.0451 86.8908C34.9746 87.3246 37.0382 88.3243 38.6555 89.1354ZM41.5742 91.2102C41.5742 91.2479 39.5107 92.3042 37.001 93.549L32.4463 95.8125L27.8916 93.5679C25.4005 92.3419 23.3556 91.2856 23.3556 91.229C23.3556 91.1725 27.4641 91.1159 32.4649 91.1159C37.4843 91.1159 41.5742 91.1536 41.5742 91.2102ZM31.6097 95.8313C31.7027 95.9256 31.7585 96.0577 31.7027 96.0954C31.6655 96.1331 29.3603 97.1705 26.5717 98.3777C22.1286 100.302 20.883 100.735 21.1991 100.188C21.2548 100.113 21.5523 98.1513 21.8683 95.8313C22.1844 93.5113 22.4818 91.5497 22.5376 91.4742C22.6119 91.3234 31.2751 95.4918 31.6097 95.8313ZM42.3922 91.7194C42.448 91.9647 42.7083 93.8131 42.9685 95.8313C43.2474 97.8307 43.5076 99.7357 43.5634 100.056C43.6564 100.547 43.6378 100.603 43.3032 100.509C42.4852 100.283 33.0412 96.1143 33.0784 95.9822C33.097 95.9068 34.956 94.926 37.2055 93.8131C39.4549 92.6814 41.4627 91.6629 41.6672 91.5497C42.1877 91.229 42.2993 91.2479 42.3922 91.7194Z" fill="black"/>
</svg>
