<svg width="256" height="45" fill="none" xmlns="http://www.w3.org/2000/svg"><g clip-path="url(#clip0_186_2824)"><path fill-rule="evenodd" clip-rule="evenodd" d="M11.396 45.158C4.546 40.818 0 33.177 0 24.474 0 10.957 10.966 0 24.494 0s24.494 10.957 24.494 24.474c0 8.68-4.523 16.304-11.342 20.65l-12.41-8.785h-1.484L14.42 43l-3.024 2.159zM47.503 22.99c0 7.555-3.894 14.23-9.847 18.252l-9.451-13.801h-7.422l-9.451 13.801C5.379 37.221 1.484 30.545 1.484 22.99 1.484 10.703 11.786.742 24.494.742c12.707 0 23.009 9.96 23.009 22.248zm-36.37 2.967l9.682-5.192h7.745l9.294 5.192h-26.72zm9.682-11.866l-9.682 5.191h26.721l-9.294-5.191h-7.745zm3.679-10.383l-2.97 8.9h5.94l-2.97-8.9z" fill="#00307D"/><path d="M58.084 6.047h14.285V8.37H66.73v15.36h-3.01V8.371h-5.637V6.047zm29.193 15.385h2.073v5.684h-2.857l-.278-3.385h-11.96l-.277 3.385h-2.832v-5.684h1.29l.277-.303a7.414 7.414 0 001.366-2.324c.278-.834.455-1.617.48-2.3l.657-10.458h12.061v15.385zm-2.984 0V8.17h-6.32l-.456 7.68c-.05 1.01-.303 2.046-.758 3.082-.177.43-.38.808-.607 1.162l-.91 1.34h9.051zm30.681-15.385h3.059V23.73h-2.958V10.897l-4.779 9.777h-1.82l-4.804-9.777v12.834h-2.958V6.047h3.059l5.613 11.444 5.588-11.444zm19.462 2.324h-9.356v5.356h8.319v2.324h-8.319v5.381h9.356v2.3h-12.339V6.046h12.339V8.37zm1.672-2.324h14.286V8.37h-5.639v15.36h-3.008V8.371h-5.639V6.047zm22.955 0l6.7 17.684h-3.085l-1.769-4.547h-7.105l-1.77 4.547h-3.085L155.7 6.047h3.363zm-4.804 10.813h6.169l-3.084-8.085-3.085 8.085zm15.806-10.813h12.616V23.73h-2.983V8.17h-6.928l-.733 12.202c-.329 4.346-4.501 3.36-5.209 3.259v-2.198s2.326.38 2.453-1.92l.784-13.465zm18.494 0h12.617V23.73h-2.984V8.17h-6.928l-.733 12.202c-.329 4.346-4.5 3.36-5.208 3.259v-2.198s2.326.38 2.452-1.92l.784-13.465zm28.885 0h2.63V23.73h-2.984V10.746l-9.203 12.985h-2.63V6.047h2.959v13.01l9.228-13.01zm14.161 7.15l6.801 10.534h-3.186l-5.486-8.64-2.604 2.804v5.836h-2.984V6.047h2.984v8.135l7.534-8.135h3.464l-6.523 7.15zm17.902-7.15l6.7 17.684h-3.085l-1.77-4.547h-7.104l-1.77 4.547h-3.085l6.751-17.684h3.363zm-4.804 10.813h6.169l-3.085-8.085-3.084 8.085z" fill="#00307D"/><path d="M60.876 39.433c-.575 0-1.072-.086-1.49-.257a2.217 2.217 0 01-.98-.744A2.223 2.223 0 0158 37.27h1.15c.044.234.14.433.288.595.148.162.343.284.588.365.244.081.527.122.85.122.6 0 1.036-.104 1.307-.311.279-.217.418-.473.418-.771 0-.351-.113-.626-.34-.825-.227-.206-.618-.31-1.176-.31h-1.19v-.973h1.111c.48 0 .82-.095 1.02-.284.21-.189.314-.455.314-.797 0-.27-.122-.505-.366-.703-.244-.198-.61-.297-1.098-.297-.532 0-.92.09-1.164.27-.235.171-.379.42-.431.743h-1.15c.034-.405.165-.766.391-1.08.227-.317.541-.564.942-.744.4-.18.871-.27 1.412-.27.889 0 1.547.193 1.973.58.428.388.64.888.64 1.501 0 .342-.082.644-.247.905-.166.253-.432.451-.798.595.488.135.828.352 1.02.648.192.298.287.645.287 1.041 0 .387-.109.748-.327 1.082-.217.324-.54.585-.967.783-.418.199-.945.298-1.581.298zm6.489 0c-.506 0-.937-.095-1.295-.284a2.035 2.035 0 01-.797-.797 2.396 2.396 0 01-.274-1.15c0-.711.2-1.225.6-1.54.41-.316.995-.473 1.752-.473H69.6v-.486c0-.613-.136-1.037-.406-1.27-.26-.235-.658-.352-1.189-.352-.497 0-.859.099-1.085.297-.227.19-.353.405-.38.648h-1.15c.026-.387.153-.73.38-1.026a2.33 2.33 0 01.928-.73c.392-.18.85-.27 1.372-.27.549 0 1.024.09 1.425.27.4.171.71.446.928.824.218.37.327.86.327 1.473v3.906c.009.28.03.554.065.824H69.81a7.539 7.539 0 01-.053-.58 13.81 13.81 0 01-.013-.636c-.183.379-.479.699-.889.96-.409.261-.906.392-1.49.392zm.248-1.081c.366 0 .697-.068.993-.203.305-.135.545-.334.719-.595.183-.26.275-.58.275-.96v-.486h-2.053c-.426 0-.762.09-1.006.27-.244.171-.366.446-.366.824 0 .334.113.609.34.825.235.217.6.325 1.098.325zm5.169.945v-7.163h3.006c.575 0 1.046.086 1.412.258.366.162.636.391.81.689.175.288.261.626.261 1.013 0 .316-.1.618-.3.906a1.49 1.49 0 01-.745.58c.427.109.75.316.967.622.227.298.34.65.34 1.055 0 .622-.2 1.117-.601 1.486-.4.37-1.028.554-1.882.554h-3.268zm1.15-1.053h2.118c.488 0 .832-.091 1.032-.27.2-.181.301-.438.301-.772 0-.342-.1-.603-.3-.783-.201-.19-.545-.284-1.033-.284h-2.118v2.109zm0-3.082h1.856c.497 0 .842-.09 1.033-.27.2-.18.3-.428.3-.743 0-.298-.1-.532-.3-.704-.191-.17-.536-.256-1.033-.256h-1.856v1.973zm9.117 4.27c-.584 0-1.133-.13-1.647-.391-.506-.27-.915-.676-1.23-1.217-.304-.54-.456-1.22-.456-2.04v-.27c0-.775.152-1.424.457-1.947a3.062 3.062 0 011.229-1.175A3.585 3.585 0 0183.049 32c.593 0 1.141.13 1.647.392.505.261.91.653 1.215 1.175.314.523.47 1.172.47 1.946v.27c0 .82-.156 1.501-.47 2.041a3.02 3.02 0 01-1.215 1.217 3.533 3.533 0 01-1.647.392zm0-1.08c.357 0 .697-.082 1.02-.243.33-.172.6-.447.81-.825.218-.378.326-.879.326-1.5v-.27c0-.577-.108-1.041-.326-1.393a1.906 1.906 0 00-.81-.784 2.147 2.147 0 00-2.04 0 1.986 1.986 0 00-.824.784c-.209.352-.313.816-.313 1.392v.27c0 .622.105 1.123.313 1.501.218.379.493.653.824.825a2.3 2.3 0 001.02.243zm4.05 2.635v-2.743h.85c.13-.18.244-.483.34-.906.095-.432.17-.937.222-1.514.06-.576.09-1.176.09-1.797v-1.893h4.838v6.11h.98v2.743h-1.098v-1.69h-5.124v1.69h-1.098zm2.026-2.743h3.164v-5.055h-2.563v1.108c0 .757-.052 1.491-.157 2.203-.096.702-.243 1.284-.444 1.744zm9.941 1.053v-7.163h1.228l2.472 4.46 2.47-4.46h1.15v7.163h-1.15v-5.203l-2.052 3.65h-.915l-2.053-3.65v5.203h-1.15zm12.284.136c-.584 0-1.133-.13-1.647-.392-.506-.261-.915-.663-1.229-1.203-.305-.54-.457-1.225-.457-2.055v-.27c0-.792.147-1.446.444-1.959.296-.523.688-.91 1.176-1.162A3.302 3.302 0 01111.22 32c1.019 0 1.807.288 2.365.865.558.576.837 1.392.837 2.446v.756h-5.255c0 .56.109 1.005.327 1.338.226.334.505.577.836.73.34.144.68.217 1.02.217.523 0 .924-.091 1.203-.27a1.5 1.5 0 00.614-.744h1.124c-.139.685-.484 1.207-1.032 1.568-.541.351-1.177.527-1.909.527zm-.065-6.352a2.47 2.47 0 00-1.02.216 1.815 1.815 0 00-.797.649c-.201.297-.301.68-.301 1.148h4.17c-.009-.495-.109-.887-.301-1.175a1.528 1.528 0 00-.732-.635 2.489 2.489 0 00-1.019-.203zm6.226 6.216V33.19h-2.366v-1.055h5.883v1.055h-2.366v6.108h-1.151zm6.545.136c-.505 0-.937-.095-1.294-.284a2.034 2.034 0 01-.797-.797 2.39 2.39 0 01-.275-1.15c0-.711.2-1.225.602-1.54.409-.316.992-.473 1.751-.473h2.249v-.486c0-.613-.136-1.037-.406-1.27-.261-.235-.658-.352-1.189-.352-.497 0-.859.099-1.086.297-.226.19-.352.405-.378.648h-1.151a1.86 1.86 0 01.379-1.026c.227-.307.536-.55.929-.73.391-.18.849-.27 1.372-.27.549 0 1.024.09 1.424.27.402.171.711.446.929.824.218.37.327.86.327 1.473v3.906c.008.28.03.554.065.824h-1.006a7.307 7.307 0 01-.053-.58c-.009-.19-.013-.402-.013-.636-.183.379-.479.699-.889.96-.409.261-.906.392-1.49.392zm.248-1.081c.366 0 .697-.068.994-.203.305-.135.545-.334.719-.595.183-.26.275-.58.275-.96v-.486h-2.053c-.427 0-.762.09-1.006.27-.244.171-.366.446-.366.824 0 .334.113.609.339.825.236.217.602.325 1.098.325zm4.843 1.08a1.56 1.56 0 01-.197-.013 9.482 9.482 0 00-.196-.027v-1.19c.027.01.092.015.196.015.262 0 .476-.118.641-.352.166-.243.284-.667.353-1.27.078-.613.118-1.469.118-2.569v-1.892h4.967v7.163h-1.15V33.19h-2.667v1.108c0 1-.044 1.834-.131 2.5-.087.658-.217 1.18-.392 1.568-.165.387-.379.662-.64.824a1.677 1.677 0 01-.902.244zm7.646 0c-.061 0-.126-.004-.196-.013l-.196-.027v-1.19c.026.01.092.015.196.015.262 0 .475-.118.641-.352.166-.243.283-.667.353-1.27.078-.613.117-1.469.117-2.569v-1.892h4.968v7.163h-1.15V33.19h-2.667v1.108c0 1-.044 1.834-.131 2.5-.088.658-.218 1.18-.392 1.568-.166.387-.379.662-.641.824a1.672 1.672 0 01-.902.244zm7.973-.135v-7.163h1.151v5.406l3.582-5.406h1.15v7.163h-1.15v-5.406l-3.582 5.406h-1.151zm11.992 0v-2.851c-.2.126-.444.239-.732.338-.279.099-.632.149-1.059.149-.81 0-1.438-.19-1.882-.568-.444-.379-.667-1.023-.667-1.933v-2.298h1.151v2.095c0 .613.122 1.037.365 1.27.244.235.654.352 1.229.352.392 0 .728-.04 1.006-.121.28-.082.476-.167.589-.257v-3.339h1.151v7.163h-1.151zm6.113.136c-.583 0-1.132-.13-1.646-.392-.506-.261-.915-.663-1.229-1.203-.305-.54-.458-1.225-.458-2.055v-.27c0-.792.148-1.446.445-1.959.296-.523.688-.91 1.176-1.162a3.298 3.298 0 011.582-.392c1.019 0 1.808.288 2.366.865.558.576.836 1.392.836 2.446v.756h-5.254c0 .56.109 1.005.327 1.338.226.334.505.577.836.73.34.144.68.217 1.019.217.523 0 .925-.091 1.203-.27a1.49 1.49 0 00.615-.744h1.124c-.139.685-.484 1.207-1.033 1.568-.54.351-1.177.527-1.909.527zm-.065-6.352a2.47 2.47 0 00-1.019.216 1.823 1.823 0 00-.798.649c-.2.297-.3.68-.3 1.148h4.17c-.009-.495-.11-.887-.301-1.175a1.537 1.537 0 00-.732-.635 2.49 2.49 0 00-1.02-.203zm7.452 6.352a3.3 3.3 0 01-1.607-.392c-.471-.27-.846-.676-1.125-1.217-.27-.54-.405-1.22-.405-2.04v-.27c0-.775.148-1.424.444-1.947.297-.522.684-.914 1.164-1.175a3.146 3.146 0 011.529-.392c.55 0 1.02.103 1.412.31.401.199.723.473.967.825.244.343.41.73.497 1.162h-1.176a2.395 2.395 0 00-.589-.865c-.244-.234-.614-.351-1.111-.351-.339 0-.658.086-.954.256-.296.163-.54.424-.732.784-.183.352-.275.816-.275 1.392v.27c0 .613.092 1.109.275 1.487.192.378.436.654.732.824.296.172.615.258.954.258.428 0 .785-.108 1.072-.325a1.72 1.72 0 00.628-.892h1.176a3.097 3.097 0 01-.562 1.23c-.27.342-.602.608-.993.797-.393.18-.833.27-1.321.27zm4.444-.136v-7.163h1.15v3h.915l2.588-3h1.36l-3.007 3.434 3.137 3.73h-1.464l-2.614-3.136h-.915v3.135h-1.15zm7.518 0v-7.163h1.151v5.406l3.581-5.406h1.151v7.163h-1.151v-5.406l-3.581 5.406h-1.151zm7.26 0l2.602-3.635-2.471-3.528h1.333l1.83 2.609 1.83-2.609h1.282l-2.471 3.46 2.601 3.703h-1.359l-1.935-2.797-1.935 2.797h-1.307zm14.05.136a3.59 3.59 0 01-1.648-.392c-.504-.27-.914-.676-1.228-1.217-.305-.54-.457-1.22-.457-2.04v-.27c0-.775.152-1.424.457-1.947a3.068 3.068 0 011.228-1.175A3.59 3.59 0 01203.53 32c.593 0 1.141.13 1.647.392.505.261.911.653 1.216 1.175.313.523.47 1.172.47 1.946v.27c0 .82-.157 1.501-.47 2.041-.305.54-.711.947-1.216 1.217a3.533 3.533 0 01-1.647.392zm0-1.081c.357 0 .697-.082 1.019-.243.332-.172.601-.447.811-.825.218-.378.326-.879.326-1.5v-.27c0-.577-.108-1.041-.326-1.393-.21-.36-.479-.621-.811-.784a2.147 2.147 0 00-2.039 0c-.331.163-.605.424-.823.784-.21.352-.314.816-.314 1.392v.27c0 .622.104 1.123.314 1.501.218.379.492.653.823.825.331.161.672.243 1.02.243zm4.962.945v-7.163h5.752v7.163h-1.151V33.19h-3.45v6.108h-1.151zm10.714.136c-.584 0-1.133-.13-1.647-.392-.506-.27-.915-.676-1.229-1.217-.305-.54-.458-1.22-.458-2.04v-.27c0-.775.153-1.424.458-1.947a3.058 3.058 0 011.229-1.175 3.584 3.584 0 011.647-.392c.592 0 1.142.13 1.647.392.505.261.91.653 1.216 1.175.313.523.47 1.172.47 1.946v.27c0 .82-.157 1.501-.47 2.041-.306.54-.711.947-1.216 1.217a3.533 3.533 0 01-1.647.392zm0-1.081c.357 0 .697-.082 1.02-.243.331-.172.601-.447.81-.825.218-.378.327-.879.327-1.5v-.27c0-.577-.109-1.041-.327-1.393a1.906 1.906 0 00-.81-.784 2.154 2.154 0 00-2.039 0c-.332.163-.606.424-.824.784-.209.352-.314.816-.314 1.392v.27c0 .622.105 1.123.314 1.501.218.379.492.653.824.825.331.161.67.243 1.019.243zM224.168 42v-9.866h1.072v1.352a2.56 2.56 0 01.98-1.094c.428-.262.92-.392 1.477-.392.872 0 1.569.297 2.092.891.523.587.785 1.46.785 2.622v.27c0 .812-.122 1.487-.366 2.028-.236.54-.571.946-1.007 1.216-.427.27-.928.406-1.504.406-.592 0-1.089-.136-1.489-.406a2.64 2.64 0 01-.89-1.013V42h-1.15zm3.268-3.622c.567 0 1.037-.22 1.412-.662.384-.441.575-1.086.575-1.933v-.27c0-.783-.191-1.387-.575-1.81a1.789 1.789 0 00-1.412-.65c-.418 0-.788.09-1.111.271-.314.18-.562.428-.745.743a2.063 2.063 0 00-.262 1.041v1.081c0 .433.087.816.262 1.149.183.325.431.58.745.77.323.18.693.27 1.111.27zm7.716 1.055c-.062 0-.127-.005-.196-.014l-.196-.027v-1.19a.8.8 0 00.196.015c.261 0 .474-.118.64-.352.166-.243.283-.667.353-1.27.079-.613.118-1.469.118-2.569v-1.892h4.967v7.163h-1.151V33.19h-2.666v1.108c0 1-.044 1.834-.13 2.5-.088.658-.219 1.18-.393 1.568-.166.387-.379.662-.64.824a1.675 1.675 0 01-.902.244zm10.326 0c-.479 0-.919-.09-1.32-.27a2.79 2.79 0 01-.994-.798 3.337 3.337 0 01-.562-1.23h1.177c.122.378.326.676.614.892.297.217.658.325 1.085.325a1.89 1.89 0 001.32-.5c.366-.334.575-.893.628-1.676h-2.732V35.12h2.732c-.062-.72-.271-1.239-.628-1.554-.357-.324-.797-.486-1.32-.486-.479 0-.854.117-1.124.351a2.071 2.071 0 00-.575.865h-1.177a3.02 3.02 0 01.497-1.162c.244-.352.567-.626.967-.824.401-.208.872-.311 1.412-.311.593 0 1.124.13 1.594.392.471.261.846.653 1.125 1.175.279.523.418 1.172.418 1.946v.27c0 .82-.135 1.501-.405 2.041s-.641.947-1.111 1.217c-.471.261-1.011.392-1.621.392zm4.77-.136v-7.163H256v7.163h-1.151V33.19h-3.45v6.108h-1.151z" fill="#222"/></g><defs><clipPath id="clip0_186_2824"><path fill="#fff" d="M0 0h256v45H0z"/></clipPath></defs></svg>