<svg width="356" height="176" fill="none" xmlns="http://www.w3.org/2000/svg"><g clip-path="url(#clip0_1_134)"><mask id="a" style="mask-type:alpha" maskUnits="userSpaceOnUse" x="0" y="0" width="356" height="356"><circle cx="178" cy="178" r="178" fill="url(#paint0_radial_1_134)" fill-opacity=".38"/></mask><g mask="url(#a)" stroke="#005AAA"><path d="M0 0v356M39.556 0v356M79.111 0v356M118.667 0v356M158.222 0v356M197.778 0v356M237.333 0v356M276.889 0v356M316.444 0v356M356 0v356m0-356H0m356 39.556H0m356 39.555H0m356 39.556l-356-.001m356 39.556H0"/></g></g><defs><radialGradient id="paint0_radial_1_134" cx="0" cy="0" r="1" gradientUnits="userSpaceOnUse" gradientTransform="rotate(90 0 178) scale(178)"><stop stop-color="#fff"/><stop offset="1" stop-color="#fff" stop-opacity="0"/></radialGradient><clipPath id="clip0_1_134"><path fill="#fff" d="M0 0h356v176H0z"/></clipPath></defs></svg>