<svg width="65" height="107" fill="none" xmlns="http://www.w3.org/2000/svg"><path d="M31.108 1.843c-.168.698-.372 1.754-.484 2.32-.092.566-.613 3.074-1.152 5.564-.762 3.584-.986 5.036-1.078 6.979l-.112 2.433-5.856 2.509c-3.216 1.396-6.73 2.905-7.808 3.357a95.183 95.183 0 00-2.882 1.264l-.929.434 1.58.056c1.543.057 2.231.283 1.617.529-.278.094-.316.433-.316 2.263 0 1.792.056 2.15.28 2.15.148 0 .278.095.278.189 0 .113.149.094.372-.038.335-.226.372-.453.372-2.377 0-1.716-.056-2.15-.279-2.225-.892-.359.576-.453 6.562-.434 3.644.019 6.73.075 6.879.113.186.076.242.83.204 3.584-.018 3.357-.037 3.49-.427 3.64-.205.095-2.026.604-4.016 1.132a824.07 824.07 0 00-6.6 1.792c-1.635.453-5.112 1.377-7.714 2.075-8.124 2.169-9.11 2.452-9.11 2.584 0 .094.67.15 1.469.15 1.394 0 2.045.208 1.413.453-.428.151-.41 6.074.018 6.545.26.302.316.302.632.038.298-.264.335-.66.354-3.376.018-2.622-.019-3.112-.26-3.207-.15-.075-.28-.188-.28-.283 0-.094 5.076-.15 12.233-.132l12.214.057.056 1.584c.037.868-.075 2.471-.242 3.584-.149 1.094-.539 3.735-.836 5.866a615.35 615.35 0 00-1.023 7.167c-.26 1.811-.762 5.414-1.115 8.017-.372 2.584-.818 5.941-1.023 7.45-.204 1.51-.483 3.546-.65 4.527-.15.98-.856 6.073-1.58 11.317a4617.154 4617.154 0 01-1.655 11.883c-.223 1.415-.28 2.433-.186 2.546.335.34.502-.207.78-2.433.15-1.226.354-2.301.447-2.376.074-.095 2.64-1.245 5.67-2.547l5.54-2.395 4.406 1.924c6.172 2.716 6.692 2.942 6.804 3.15.056.094.205 1.075.335 2.206.223 1.906.52 2.83.836 2.528.056-.075-.483-4.451-1.208-9.714-.744-5.262-1.878-13.448-2.547-18.164-.65-4.715-1.432-10.317-1.729-12.449a832.78 832.78 0 01-1.32-9.43c-.428-3.056-.93-6.64-1.115-7.941-.205-1.302-.372-3.263-.372-4.376v-2.018h12.177c10.764 0 12.939.075 11.99.414-.093.038-.186 1.396-.204 3.132-.037 2.678 0 3.112.297 3.432.298.34.354.34.633.057.241-.264.297-.811.297-3.414.019-2.377-.037-3.112-.223-3.188-.65-.264-.075-.433 1.376-.433 1.673 0 1.84-.17.52-.51-.409-.113-2.826-.773-5.391-1.47-2.547-.68-5.391-1.453-6.32-1.698-.912-.246-2.975-.793-4.556-1.227a590.772 590.772 0 00-8.365-2.244l-2.138-.547V26.89l6.748-.037c6.116-.02 7.566.075 6.655.434-.409.17-.446 4.413-.037 4.413.149 0 .298.113.335.226.056.17.167.151.39-.075.447-.434.465-4.433.038-4.602-.521-.208-.056-.49.725-.434.408.019 1.19.019 1.691 0l.93-.038-.558-.301c-.297-.17-1.022-.491-1.58-.736a309.73 309.73 0 01-6.414-2.716c-1.022-.453-3.439-1.49-5.391-2.34l-3.532-1.527-.112-2.263c-.074-1.358-.297-3.131-.595-4.433-.26-1.188-.836-3.867-1.264-5.941-.427-2.075-.874-4.244-.985-4.81L33.469.673 32.428.617 31.387.56l-.28 1.283zm2.324 1.565c.26 1.189.502 2.396.502 2.679l.018.528h-1.468c-.819 0-1.525-.075-1.6-.17-.074-.15.298-2.112.93-4.885.093-.34.205-.434.614-.377.483.056.52.15 1.004 2.225zm.706 3.81c.093.246.297 1.076.465 1.849.167.773.334 1.566.39 1.735.093.32-.111.34-2.51.34-1.635 0-2.62-.076-2.62-.189 0-.226.706-3.565.836-3.923.056-.151.576-.226 1.673-.226 1.469 0 1.599.037 1.766.415zm1.023 4.716c.037.245.223 1.019.371 1.716.149.717.242 1.377.168 1.472-.112.207-6.526.226-6.637.018-.056-.075.093-.924.297-1.886l.39-1.735h2.66c2.602 0 2.658 0 2.75.415zm-3.44 3.98c0 .019-.632.679-1.394 1.452l-1.394 1.396v-2.905h1.394c.762 0 1.394.02 1.394.057zm2.324 1.452c.8.83 1.413 1.547 1.357 1.604-.056.056-1.45.075-3.123.056l-3.03-.056 1.468-1.528c.8-.85 1.562-1.547 1.655-1.547.111-.019.855.641 1.673 1.471zm1.915-.302c.093 1.83 0 1.849-1.45.396-.725-.716-1.301-1.376-1.301-1.47 0-.076.613-.133 1.357-.095l1.338.057.056 1.112zm-.52 2.528c0 .075-.67.811-1.488 1.64l-1.487 1.491-1.543-1.49c-.874-.83-1.58-1.566-1.599-1.66 0-.075 1.357-.132 3.049-.132s3.067.057 3.067.15zm-7.102 3.395c.037 2.735 0 3.244-.223 3.244-.41 0-7.567-3.13-7.567-3.3 0-.133.893-.548 5.875-2.66.818-.34 1.58-.604 1.673-.566.112.038.205 1.34.242 3.282zm10.299-2.622c.948.415 2.603 1.113 3.662 1.566 1.71.735 2.51 1.282 1.897 1.282-.112 0-1.674.642-3.458 1.415-1.785.773-3.458 1.452-3.718 1.528l-.465.113v-3.32c0-2.018.074-3.32.186-3.32.093 0 .948.34 1.896.736zm-7.938 4.169c-.818.83-1.543 1.509-1.618 1.509-.093 0-.148-1.415-.148-3.15v-3.17l1.617 1.642 1.636 1.66-1.487 1.509zm5.298-1.49c0 1.64-.056 2.999-.13 2.999-.204 0-3.03-2.886-3.03-3.113 0-.282 2.825-3.112 3.011-2.999.075.057.15 1.453.15 3.113zm-16.36 1.867v1.697h-3.755c-2.305 0-3.68-.075-3.57-.17.094-.094.968-.508 1.934-.942.967-.415 2.566-1.094 3.532-1.51.967-.414 1.785-.773 1.822-.773.019 0 .037.755.037 1.698zm29.504-.038c1.859.792 3.402 1.51 3.402 1.585 0 .094-1.673.15-3.718.15h-3.719v-1.716c0-1.528.038-1.697.316-1.603.168.075 1.84.773 3.719 1.584zm-25.283-.019c1.877.811 3.402 1.528 3.402 1.604 0 .094-1.636.15-3.626.15H20.01v-1.603c0-1.15.056-1.603.242-1.603.111 0 1.747.66 3.607 1.452zm10.131 0c.8.811 1.45 1.528 1.45 1.604 0 .094-1.375.15-3.067.15-1.692 0-3.067-.056-3.067-.131 0-.208 2.844-3.075 3.067-3.075.093 0 .837.66 1.617 1.452zm10.801-.018c.075.792.075 1.508.019 1.603-.13.226-7.325.226-7.325 0 0-.076.372-.302.837-.472.465-.188 1.99-.83 3.402-1.452 1.394-.604 2.64-1.113 2.751-1.113.13 0 .26.585.316 1.433zm-9.35 2.3c0 .076-.67.812-1.488 1.642l-1.487 1.509-1.636-1.66-1.617-1.641h3.123c1.71 0 3.104.056 3.104.15zm-4.76 1.85l1.469 1.565-1.45 1.527c-.8.83-1.525 1.51-1.618 1.51-.074 0-.148-1.396-.148-3.113 0-1.716.055-3.093.148-3.093.075.019.8.735 1.6 1.603zm5.317 1.282c0 1.924-.074 2.961-.204 3.055-.112.076-.837-.528-1.674-1.358l-1.468-1.49 1.524-1.547c.855-.867 1.599-1.565 1.673-1.565.093 0 .15 1.301.15 2.905zm-1.71 2.357c.632.68 1.152 1.283 1.152 1.377 0 .17-5.837.208-6.004.02-.075-.057.557-.83 1.394-1.68 1.747-1.81 1.413-1.848 3.458.283zm1.152 1.887c0 .207-2.695 2.904-2.993 3.017-.26.076-3.16-2.829-3.03-3.036.13-.208 6.023-.189 6.023.019zm-7.101 3.395c.018 1.81-.019 3.357-.093 3.433-.093.094-.576.018-1.078-.133-.52-.17-1.84-.528-2.975-.83-3.588-.924-8.533-2.282-8.626-2.357-.111-.113.13-.189 2.956-.943a983.64 983.64 0 007.994-2.17c.67-.188 1.339-.339 1.487-.32.242.038.279.566.335 3.32zm14.63-1.754c3.384.905 6.173 1.66 6.21 1.697.204.189-.446.377-5.038 1.603-4.258 1.132-5.912 1.585-7.25 1.98-.317.095-.335-.15-.335-3.394 0-1.924.056-3.509.148-3.509.075 0 2.9.736 6.265 1.623zm-12.27.264l1.488 1.509-1.636 1.66-1.617 1.64v-3.168c0-1.736.055-3.15.148-3.15.075 0 .8.679 1.618 1.509zm5.3 1.49c0 1.66-.075 3.055-.15 3.112-.204.132-3.067-2.81-2.993-3.056.13-.377 2.677-3.037 2.919-3.055.167 0 .223.716.223 2.999zM14.58 39.944l.056 1.565h-6.08c-3.346 0-6.041-.037-6.004-.094.056-.038 2.305-.679 5-1.396 2.715-.735 5.187-1.414 5.485-1.509.316-.094.762-.17 1.022-.15.447.037.465.094.52 1.584zm4.499-.623c1.784.49 4.22 1.15 5.391 1.472 1.171.301 2.157.584 2.194.622.204.208-3.774.302-7.492.189l-4.37-.132v-3.207l.521.075c.28.057 1.971.49 3.756.981zm14.965.49c.8.83 1.413 1.547 1.357 1.604-.056.057-1.45.075-3.123.057l-3.03-.057 1.468-1.528c.8-.849 1.562-1.547 1.655-1.547.111-.018.855.642 1.673 1.472zm15.895.095v1.603h-5.893c-3.235 0-5.838-.037-5.8-.075.037-.057 2.305-.68 5-1.415 2.715-.735 5.187-1.414 5.485-1.509 1.19-.377 1.208-.358 1.208 1.396zm3.811-.83c1.543.415 4.09 1.094 5.67 1.51 1.58.414 2.919.791 2.956.848.037.038-2.658.075-5.986.075h-6.08v-1.603c0-1.396.038-1.603.335-1.603.168 0 1.58.358 3.105.773zM35.439 42.02c0 .207-2.844 3.074-3.03 3.074-.167 0-3.104-2.942-3.104-3.112 0-.057 1.375-.094 3.067-.094 1.692 0 3.067.056 3.067.132zm-3.81 3.074c-.056.075-.651.113-1.34.094l-1.263-.037-.056-1.49-.056-1.49 1.394 1.395c.763.774 1.358 1.471 1.32 1.528zm4.368-1.34v1.302l-1.301.076c-.725.038-1.395.019-1.506-.02-.242-.075 2.25-2.64 2.584-2.659.149 0 .223.378.223 1.302zm-4.276 2.189c0 .17-3.049 3.678-3.197 3.678-.093 0-.149-.189-.149-.415 0-.434.353-2.716.465-3.131.055-.151.52-.227 1.487-.227.762 0 1.394.038 1.394.095zm2.659 2.075c.892 1.037 1.617 1.961 1.617 2.074 0 .095-1.543.208-3.718.246-2.045.037-3.718.018-3.718-.057s.837-1.113 1.878-2.282c1.245-1.434 1.952-2.094 2.119-2 .13.076.948.981 1.822 2.019zm1.524-1.98c.149.244.65 3.64.558 3.734-.037.038-.353-.245-.688-.642-.335-.396-1.06-1.225-1.58-1.83-.54-.621-.986-1.187-.986-1.282 0-.245 2.547-.207 2.696.02zm.242 4.884c-.075.227-3.57 4.169-3.7 4.169-.111 0-3.55-3.735-3.774-4.112-.111-.17.688-.226 3.7-.226 2.156 0 3.811.075 3.774.17zm-5.93 2.264c1.152 1.264 1.84 2.15 1.765 2.32-.111.283-4.629 4.357-4.945 4.47-.13.038-.167-.15-.093-.566.056-.358.335-2.358.614-4.47.279-2.094.576-3.81.65-3.81.056 0 .967.924 2.008 2.056zm6.58-1.547c.298 1.584 1.097 8.186 1.004 8.28-.055.076-1.245-.924-2.62-2.206l-2.51-2.302.446-.546c1.003-1.208 3.346-3.735 3.457-3.735.075 0 .168.226.224.51zm-3.94 4.32c.148.17 1.245 1.207 2.435 2.282 1.208 1.075 2.193 2.056 2.193 2.15 0 .094-2.1.17-5.112.17-4.22 0-5.112-.038-4.982-.245.186-.321 4.945-4.66 5.093-4.66.075 0 .242.133.372.303zm4.591 4.96c-.018.113-1.171 1.132-2.547 2.264-2.435 2.055-2.49 2.074-2.881 1.754-1.562-1.245-4.573-3.905-4.573-4.037 0-.075 2.267-.15 5.037-.15 3.087 0 5.001.075 4.964.17zM29.51 63.22c2.212 1.868 2.677 2.415 2.25 2.584-.075.02-.726.49-1.432 1.038-2.807 2.131-4.462 3.32-4.648 3.32-.241 0-.241 0 .354-4.226.669-4.81.669-4.81.836-4.81.075 0 1.264.944 2.64 2.094zm9.258 2.452c.335 2.49.576 4.565.54 4.603-.038.037-.856-.529-1.823-1.245a231.396 231.396 0 00-3.216-2.358c-.8-.585-1.431-1.132-1.394-1.245.093-.245 4.852-4.282 5.075-4.3.112 0 .465 1.905.818 4.545zm-5.168.887c.446.34 1.747 1.301 2.863 2.131a68.73 68.73 0 012.23 1.698c.094.094-2.267.17-6.19.17-3.495 0-6.358-.057-6.358-.151.019-.076 1.19-.981 2.621-2.019 1.45-1.037 2.845-2.074 3.124-2.3.52-.435.52-.435 1.71.47zm5 4.508c-.018.17-5.725 4.074-6.078 4.168-.223.057-5.522-3.414-6.191-4.036-.223-.226.707-.264 6.005-.264 3.439 0 6.265.056 6.265.132zm-9.778 2.225c1.692 1.132 3.086 2.15 3.086 2.264 0 .188-7.66 4.828-7.79 4.715-.036-.056.224-2.112.558-4.62.428-3 .707-4.528.837-4.49.112.038 1.599.98 3.31 2.132zm10.708-2.037c0 .227 1.116 8.054 1.209 8.488.074.283.018.434-.15.434-.204 0-6.617-3.754-7.454-4.376-.334-.245-.111-.434 2.789-2.452 2.918-2.018 3.606-2.433 3.606-2.094zM35.793 77.8c1.803 1.076 3.55 2.094 3.885 2.264.316.17.595.396.595.49 0 .113-2.863.189-7.808.189-4.332 0-7.808-.076-7.808-.17 0-.094.948-.717 2.1-1.396 1.135-.698 2.845-1.716 3.756-2.282.93-.566 1.747-1.037 1.84-1.037.093-.02 1.655.867 3.44 1.942zm4.35 3.263c.148.133.186.114-4.5 2.792-2.49 1.452-3.29 1.81-3.531 1.679-.168-.113-1.915-1.113-3.867-2.245-1.97-1.132-3.588-2.112-3.588-2.207 0-.188 15.318-.207 15.486-.019zm-12.121 2.453c2.138 1.226 3.885 2.282 3.885 2.357 0 .076-.52.396-1.152.698a200.53 200.53 0 00-4.462 2.17c-1.822.886-3.402 1.621-3.514 1.621-.111 0-.148-.207-.093-.528.056-.283.242-1.49.39-2.678.577-4.395.819-5.847.967-5.847.056 0 1.84 1 3.979 2.207zm12.864-2.075c.168.283 1.283 8.752 1.172 8.865-.13.15-8.905-4.15-8.98-4.395-.055-.15 7.232-4.546 7.604-4.583.074-.02.167.037.204.113zm-2.23 7.695c1.617.811 2.9 1.51 2.863 1.547-.112.094-18.033.075-18.126-.038-.037-.037 1.952-1.075 4.443-2.32l4.536-2.225 1.673.792c.93.434 2.993 1.433 4.61 2.244zm2.918 2.075c0 .038-2.063 1.094-4.573 2.339l-4.555 2.263-4.554-2.244c-2.491-1.226-4.536-2.282-4.536-2.339 0-.056 4.108-.113 9.109-.113 5.02 0 9.11.038 9.11.094zm-9.964 4.621c.093.095.149.227.093.264-.037.038-2.343 1.076-5.131 2.283-4.443 1.924-5.689 2.357-5.373 1.81.056-.075.353-2.037.67-4.357.315-2.32.613-4.281.669-4.357.074-.15 8.737 4.018 9.072 4.357zm10.782-4.112c.056.246.316 2.094.576 4.112.28 2 .54 3.905.595 4.225.093.491.075.547-.26.453-.818-.226-10.262-4.395-10.225-4.527.019-.075 1.878-1.056 4.127-2.169 2.25-1.132 4.258-2.15 4.462-2.263.52-.321.632-.302.725.17z" fill="#000"/></svg>