<svg width="340" height="194" fill="none" xmlns="http://www.w3.org/2000/svg"><mask id="a" style="mask-type:luminance" maskUnits="userSpaceOnUse" x="-1" y="0" width="341" height="194"><path d="M339.999 0h-340v193.126h340V0z" fill="#fff"/></mask><g mask="url(#a)"><path d="M43.73 83.963l-.242-.453-.285.387-.41.209-.123.674-.937-.409-.44.427-.61-.67-.177.71-.578.175.165.802.481-.362.367.456.785-.04.214-.482.264.437.554-.294.544.367.856-.073.132-.556-.26-.835.106-.328c-.255.033-.285-.046-.406-.142zm2.059-26.357l-1.006-.334-1.34.334-.336 1.34.336 1.006 1.34.67 1.006-.67.67-1.005-.67-1.34zm57.314-5.36h-1.676l-1.341 1.34.336 1.341 1.675.335h.336l.335-.335h.335l.335-.335v.335l-.335.335h.335l.335-.335v-1.34l-.67-1.34zm15.418 7.708l.67.335v1.005l1.006.67.671-1.005-.336-1.005-.335-1.006v-.67l-.335-.67h-.671v.67h-.67v1.676zm-9.385-.336l-1.005-.335-1.341-.335-1.676.335.335.335v.67h-.67l-.335-.334v-.336l.335-.335-1.005-.334h-1.341l-.336-.336-2.011.336-2.01-.336-.335-.335v.335h-.336v1.005l-.335-.67-.67-.335-.336-.335-1.34 1.005-1.34 1.341-1.677-.67-1.34-1.005.335-1.006.335-.67-.335-.67-.335-.67 1.34-.67 1.006-.336 1.676 1.005.335-.335.335-.335v-.335h.335v-2.01l-1.005-1.34-1.341-1.006-.335-1.005-.335-.336v2.681l-2.011 1.676-1.676 1.34v2.01l-1.34 1.006-.671.67v1.005l1.34 2.011 1.006 2.01.335.67.335.336v.335h.67v-.335l.671-.335h.67l.67.335.671.67h2.346l2.682.335.67-.335.335-.335.335.335h1.341l1.676 1.34 2.011 1.676 10.055 6.032.335.335.335.335 2.012-.335 2.346-.67v-.335l.335-.67.335.335h.335l.671-.336.67-.335.67-.335.671-.335.335-.335h.67l.648.253.693-.923v-.67l-.335-.335-.671-1.006.336-.335.335-.335.67-.67v-.67l-1.005-1.676-1.341-1.34-1.676-1.34-.335-.336-.335-.335-.335.335-.336.335-.335-.335h-.335l-.335.335v2.011l-.335 2.01-.335-.334h-.335l-.671.335-.67-.335h-.336l-.335.67-1.005.335-.335-.67.335-.67.67-.336h.335v-.67l-.335-.67h.335l-2.346-.335-2.011.335-.67-1.005-2.011-.67-1.341.334v.335l-.335.336-.335-.67h-.671l-.335.334h-.335l.335-.335v-.67l-.67-.335h-.67l.335-.335v-.335h.67l.67.335.336-.67.335-.67h.335l.335-.335v-.336h1.005zM52.828 76.707l.334-.335-1.005-.335-.335.335.335.335h.67zm2.345.335h-.334l-.336.335-1.005-.67v1.34l-.335 1.006-.67.67v-1.005l-1.006.335-.336-.335.336-.335h.335l-.335-2.01h-.67l-.67.334.334.336-.335.334-.335.336h-.67v.67l-.335.67v1.675l.334.336-1.005.335-1.006 1.34v1.34l1.006 1.006 1.34-.335 1.676-.67 1.677.67 2.01-1.34 2.347-1.006v-.335l.335-.67-1.34-1.676v-1.675l-1.007-1.006zm31.172 38.537v1.006l-.67 1.34.335.335.335.335h-1.34l-.336.335h-.335l-.67-.335-.336.67-.335.335h-.335v-.67l-.335-.335-.67.335v-.67l.335-.67-1.006-.67-1.005.335-.336.335v.335h-.335v.335l.67 2.346v.335h1.341v.335l.335.335 2.011-.335 1.676.335-.67 1.005-1.005 1.005-.336.67-.335-.335-.335-.335h-.335l-.67.335h-.671l-1.005 1.676-1.006 1.675-.335.335-.67.671v.67h-.336v.335l.336.335v.67h.335l.335-.335 1.005.335 1.006 1.006-.67.335-.67 1.005h.334l1.341.335 1.34-.335.336-1.005v-.67l.335-.336h.335l.335-.335h.335l1.341.671 1.006.67-.67-1.341-.67-1.005.67-.67h.67l-.67-.335-.67-.671h.334l.335-.335.335-.335-.335-.335h1.341v.335l.335.335 1.006.335.67.336v.335l.335.335.335-.335h1.006l1.006.335v-.67l-.335-.671.67-.335v-.67l-1.006-.67-1.34-1.005.67-.671.335-.335.335-.67v-.335h.336l.335-.335h.67l.335-1.34v-1.676l-.335-.67v-.335l-.335-.335-.67-.335h-.336l-.335.335-1.676-1.005-1.675-1.341v-.335h-.67l-.336.335zm-26.144-9.382l-.335-.67-1.34-.335v-.671l-1.006-.67-.67-1.005-1.341 2.011-.67-.336h-1.341l.335 1.341-.335 1.34.335.67v.67l-1.005 1.341-1.006.67 1.005 1.341 2.012.335.334.335v.335l.67-1.006.671-1.675h1.006l.67-.335h.335l.67.335h.67l.671.67 1.006.67.335-.335h.67l.67-1.005.336-.67-.67-1.006v-1.005l-.336-.67h-1.675l-.67-.67zm53.963 6.702l-1.341.335-.335.335-.335.335h-.335l-.67-.335h-1.677l-.335-.335h-.335l-.67.335-.335.67h-1.006l-1.005-.335v.335l-.335.671v1.34l-.671.335h-1.34v-.335h-1.006l-.67.335-.671 1.34-.335 1.676v.335h.335l-.335.335h-.67l-.336.67v1.341l.671.335.67.335v1.34h1.006v.336l.335.335.335-.335.335.335.671 1.005.335 1.005.335.335.67.335h.335l.336 1.006.67 1.34h.335v-.335l.335.335v.335h.335l.671.335.67.67.335.67h.671l.335-.335v-.67h.335l.67-.335-.335-.335v-.335h.335l.335-.335-.335-.335.335-.335.671-.335v-.335l.335-.335h.335v-.671l.335-.335h.335v-1.005l.671.335 1.005-.335-.335-2.346v-.335h-1.005l-.335-.335.335-.335.67-.335v-2.01l1.006-.671 1.005-.67.335.335.336.67-.336.335v.671h.671l.67.335.67.335 1.006.67.335-.335h.67l2.347.67 2.681-1.005-.671-.671h-1.005l-.335-.335-.335-.335-1.006-.67-.67-.335v-1.676h-.335l-.671-.67.335-.335v-.335l-.335-.335h-.335l-.335-1.341-.67-1.005-.336-.335h-.335l-.335-.335-1.005-.335h-1.006l-.335-.335-.335-.67h-.671l-.335.335-.67 1.005zM38.348 87.766h-.537l-.1.335-.369.335h-.268l-.167-.335-.805-.335-.77-.335h-.101l-.135.335h-.67l-.57.335-.167.335-.235.335.235 1.676.737 1.34.369.335.335.335-.067.67.034 1.005.57.67.435.336h.637l.134-.335.268-.335h.536l.436-.335h.537l1.642-2.681-.034-.67.521-.689h.33l-.348-.317v-.334l.005-.676.013-.34h-.499l-.711-1.008-.417.013-.469.335h-.335z" fill="#EBF2FA" stroke="#EBF2FA" stroke-width=".246"/><path d="M102.769 96.478l-1.006-.67-1.005-.67v-1.005l-.336-.335v-.335l-.67.335v.335l-1.005 1.34-.67 1.34v.671L96.4 99.16l-1.676 1.675-.67.335-.67.335-1.006 1.005.67 1.676-.67 1.005v1.341l-1.005 1.005-1.676.335-.335 1.005v.67h-1.006l-.67-.67-.67.67-.67 1.005h-1.677l-.67.336v.335l-.335 1.005-.67.67v1.006h.334l.336.335 1.34.67 1.006.67h.335l.335-.335h.67v.335l1.676 1.341 1.676 1.005.335-.335h.335l.671.335.335.335v.335l.335.67 1.006-.67 1.005-.335.67.335.671.67h.67l.335.335.67.67 1.007-.67h1.675l-.335.67h.671l.335-.335h-.335v-.335l.335-1.675.67-1.34.67-.336h1.006v.336h1.341l.67-.336v-1.34l.335-.67v-.335l-.335-.335v-3.687l-1.006-.67-1.005-.67.335-1.34.335-1.341v-.67l-.67-.335v-1.005l.335-.67.335-1.341.671-1.34-.671-1.006-.335-.67-1.005-2.346zm-56.98-5.695l-.67-.336v.336l-1.993-.02-.689.355h-.328l-.342-.335-.335.335-.67.335h-.47l-1.642 2.68.235.67v.671h.737l.77.335-.1.67.134.67.67.336h1.006l.335.67.336.335h.67l.335-.335 1.676 1.005h.67l.269-.134.402-.2v-.336l.335.335h.67l-.335-.67-.66-.185.66-.15h.67l.335-.335.67-.336v-1.005l.336-.335v-.67l-.67-.335h-.336l.336-.335v-.67l-1.34-1.676-1.007-1.34h-.67zm-12.335-2.011l-1.34-.335-1.341-.335-.134.335h-.235l-.738.335h-.536l-.134.335-.1.67-.805.335-.368.67.435.335.57.335v1.006l.871.335.637.335.034.67.067 1.005.335.335.335.335-.1.336v.67h.503l.1.335h.235l1.106-.335.402.335.1-.67-.033-.335.168-.336.2-.67 1.409-.67-.034-1.005.067-.67-.335-.335-.369-.336-.737-1.34-.235-1.675zm92.441 32.839l-2.681 1.005-2.346-.67h-.671l-.335.335-1.005-.67-.671-.336-.67-.335h-.671v-.67l.335-.335-.335-.67-.335-.335-1.005.67-1.006.67v2.011l-.67.335-.335.335.335.335h1.005v.335l.335 2.346-1.005.335-.67-.335v1.005h-.336l-.335.335v.67h-.335l-.335.335v.335l-.67.336-.336.335.336.335-.336.335h-.334v.335l.335.335-.67.335h-.336v.67l.671 1.006-.335 1.675v.67h.335l-1.006 1.341.335.67.336.335.335.335h.334l.336-.335h.335v.335h.335v-.335l.335-.335v2.346l.67-.336v-.335l.671.336.67.67.335.335h.671v.335l-.336.335-.67-.335-.67 1.005.335.671.67-.335 1.676 1.005h.335l1.341-.67h1.006l.67-.671h.67l.336-1.005.335-.67.335-.335v-.335l-.335-1.006-.335-.67.335-1.675.67-.67-.335-.336v-.67h.67l.671-.67.67-.335h1.341v-.67l-.336-.67.336-.671.67-.335v-.67l.335-.67v-.335l.335-.671-.335-.335-.335-.67.335-.335v-.67l-.335-.67v-1.341l-.335-.335v-.335h.335v-1.005h.335v-1.005zM42.772 63.64v-.335h-1.005l-.67.335-.336-.67-.47-.335-.636.335h-.537l-1.675.67.235 1.34.335 1.006-.302.335h-.402l-.034.335-.067.335-1.005.335-.168.67-.603.67.067.67.436.671.469.335 1.877.67 1.843.335.637.67h.335l1.006-.335 1.005-.335.336-.335.335-.335 1.005.67.67 1.006h.336l.335.335.67.335.336-.335h.335l.67.335.335.67h.335l.67.335v-2.01l-.334-.336h-.336v-.335h-.335v-.67l.335-1.005-.67-1.005-.335-.67V66.99l-.67-.67v-.335l-.336-.335h-1.34v-1.34l-.336-.336-.335-.335v-.335l-.67.335-.67.335-.671-.335z" fill="#EBF2FA" stroke="#EBF2FA" stroke-width=".246"/><path d="M38.65 94.133h-.537l-.436.335h-.536l-.268.335-.134.335h-.637l-.436-.335-.57-.67-1.407.67-.201.67-.168.335.034.336-.1.67-.403-.336-1.106.335.201.67.637.67.939.336.804.335v.335h-.034l.302.335h.402l.302.671-.1.335.837.67.905 1.005.637-.335.537-.335-.336-2.01 1.173-1.341 1.475-1.005-.134-.67.1-.67-.77-.336h-.738v-.67l-.234-.67z" fill="#EBF2FA" stroke="#EBF2FA" stroke-width=".246"/><path d="M28.728 91.788v-.335l-.57-.335-.435-.335h-1.341l-.235.335-.603-.67-.637.67-.335.334-.604-.335-.1.335-.067.336-.838.67.57 1.005.77 1.005-.1.336-.168.335h.168l.1.335h-.167l-.167.335.636.67h1.207l.302.67.368.335 1.576.67 2.01 1.006.302.335.302.67.47-.67.368-.67.436.335h.503v-.335l.2-.335-.066-.335-.637-.67-.201-.67h-.235l-.1-.336h-.503v-.67l.1-.335-.335-.335-.335-.335-.067-1.006-.034-.67-.637-.335-.871-.335v-.67zm71.694 27.812h-1.675l-1.006.67-.67-.67-.335-.335h-.67l-.671-.67-.67-.335-1.006.335-1.005.67v1.675l-.336 1.341h-.67l-.335.335h-.335v.335l-.335.67-.336.335-.67.671 1.34 1.005 1.006.67v.67l-.67.335.335.67v.671l1.676.335 1.676.335.67.335.335.335.335-.335.335-.335h.67l1.006.335.336.335 2.681.335 2.681.335.335-.335.336-.335h.335l.67.335.335-.335h.335l-.67-1.34-.335-1.006h-.335l-.671-.335-.335-.335-.335-1.005-.67-1.005-.336-.335-.335.335-.335-.335v-.335h-1.005v-1.341l-.671-.335-.67-.335v-1.34l.335-.671.335-.67z" fill="#EBF2FA" stroke="#EBF2FA" stroke-width=".246"/><path d="M11.232 53.587l-.368.335h.033l.335-.335zm3.319 1.005l-1.91-.335-.47-.67-.536-.335-.403.335-.335.335h.134l.369 1.005-.77-.335-1.006-.335 1.407 2.68 1.61 2.347.938 1.34h.301l.369-.335 1.173-.335-.302-2.346-.1-1.005-.034-1.006-.167-.335h-.436l-.369.335-.368.335-.604-.67-.235-.67h1.744z" fill="#EBF2FA"/><path d="M11.232 53.587l.403-.335.536.335.47.67 1.91.335h-1.744l.235.67.604.67.368-.335.369-.335h.436l.167.335.034 1.006.1 1.005.302 2.346-1.173.335-.369.335h-.301l-.939-1.34-1.609-2.346-1.407-2.681 1.005.335.77.335-.368-1.005h-.134m.335-.335l-.368.335h.033m.335-.335l-.335.335" stroke="#EBF2FA" stroke-width=".246"/><path d="M58.19 87.431l-.67-.335-.67-.335-.336-.67-.335-.67-.335.334-.67.336-2.346-1.34-1.677-.67-1.675.67.335 1.004-.335 1.341h1.34l.335.67.336.67 1.005 1.006h.335v1.005l.67.335.671.335h.335l.336.335.334-.335.67-.67.671.335.67.335.67-.335.336-.67.67-.335h.336v-.335l-.67-1.006H57.52l.335-.335.335-.67zm-30.2-4.356l-.334.335h-1.374l-.637-.335h-.704l-.57-1.006-1.005-.335-.302.335-.1.67-.202.335h-.234l-.503.67-.536.67-.302.671h-.235l.268.335-.067.335h.201l.838.336.637-.336.302.336.2.67.638.335.536.335.804 1.005.1 1.006-.435.67-.067 1.005.637-.67.603.67.235-.335h1.34l.37-.67.804-.336.1-.67.134-.335h.537l.737-.335h.235l.134-.335-.771-1.34.335-.336.537-.67-.336-1.675-.2-1.34-1.174.335h-1.173zm10.157 39.205h-.436l-.369-.335-.067.335h-.067l-.268-.335h-.436l-.57.335.336.671.201 1.005.402.335.268.335-.435.335-.302.67.1 1.006.336.67h.871l.704.67h-.57l-.737.335-.168 1.676-.134 1.34-1.206.335h-1.24l.066.335.336.335-.135.335-.1.335.335.335.235.336-1.14.335-.301 1.005.134.335h.67l.235.335.235.335v.335h.335l-.067.335h.302l.2-.335.973.671.033.335h.034l.368-.335h.168l-.067.335.234-.335.335-.336.202.336-.034.335-.268.335-.134.335.402-.335.402-.335.939-.671.972-.335.167.335-.603-2.68h.2l.403.67h.67l.336-2.346v-2.68l-.67-.671-.537-.67-.335.335-.336-.335.302-1.005.57-.67-.135-1.006-.334-1.005.804-.67-.335-.671-.201-.67-1.006-.335h-1.072zm239.247-21.111l-.67-.67-.335-.335-.335.335-.336.335-.335-.335h-.335l-.67.67-.671 1.006-.335-.335-.335-.336-.335.336h-.671l-1.675-.671h-1.341l-.335 2.011v2.01l-.335.335-.671.335v.671l-.335.335v.335l-.335.335v.335l-.335 1.34.67 1.006.336 1.675.334 1.341.671.67.335 1.005-.335.335-.671-.67-.334.335v.335l-.336 1.341-1.676 1.005-.67.335h-.336l-.67-.335-.335.67v.67l-.335.335-1.676.671-1.676.67h-.67l-.671.67-.335.67-.335 2.011-.335 1.005.335 1.341h-1.006l.671 1.005 1.005.67-.335.335-.335.335v1.006l-.671.335-.334.67h.67l.335.335.67.335.336.67v.67l-.336.335-.67.336v1.34l-.335 1.676 1.34.335 1.006-.671.335.336h.335l.671-.336.335-.335.67.335.335.336h.671l-.335 1.005-.671.67v.67l-.67.671-.671.67-.335.335-.335.335v2.01l-1.005.671v1.34l1.005.335h1.341l.67.67.671 1.006h1.341l.335-.335.67-.335 1.341-.671.67-.67.336-.67h.67l1.005-.335.336-.335h.335l.298.099.707.236.335 1.005v1.34l.336.671v.67l-.336.335h-1.34l-1.676.335.335.67v1.341l-.67.335-.671.335-.335.335-.335.67v.67l-1.006.671-1.006.67.336.67v.335l-.336.67-.335 1.005v2.011l.335-.335.336.335v.335h.335l.335-.335.335.335v.335h.335l.671.335v2.346l.335 1.005v1.005l1.341-.67h.335l.335-.335.335-.67h.67l.671.335.67-.335h.67l.336.335 1.005 1.005h.336l.67.336h1.005l.67-.671h1.341l.671-.335.335.671.335.67-1.005.67-.336.67.336.67.334.336.671.67-.671 1.005-.334.335v1.676l.334 1.675.671-.67v-.67l.335-1.006.671-1.005h.335l.335.335.335-.335.335.335v.67l.335-.335.335-.335.336.335.335.335 1.676-.67 1.34-1.005v-1.34l1.341-.671.67-2.01h-1.34l-.336-.335v-.336l-.335-.335-.335-.335v-.335h.671l.67-1.005 1.341-.671.33.277.675.729.335.67-.335.67v.67l.671.336h1.005l.67-3.016.671-2.346v-.335l-.335-.67v-1.341l-.336-.335v-1.005l-.335-1.005-.335-.671-.335-.67v-1.005l-1.676-4.691v-.671l.335-1.675-.335-1.341.335-.67-.335-.335-.335.335-.671-1.005v-1.006h-.335l-.335-.335-1.341-.67h1.006l.335-.67-.335-.67h-.67l-.671-.336-.335-.335h-1.005l-1.006-.67v-.335l-.67-.335h-.335l-.336-.335h-.67l-.335.335-.335.335-1.006.335h-.335l.335.67v2.681l-.335-.67v-1.34l-.67 1.34-1.676 1.676v-1.005l.67-1.341h-.335l-.335.335h-.335l-.671-.335.336-.335.335-.335v-.335l-1.006 1.005.335.335v1.006h-.67v.335l-.67-1.676-1.006-1.675-2.346 1.005-1.676-.67.67-1.005.336-.671.67-1.005.335-1.005.335-.671.335-.335 1.006-1.675.335-2.011.335-.335.336-.335v-.335l-.336-.335.336-.67v-1.005l.335-.335.67-1.676.67-1.34.336-.671v-.67l.335-.335.335-.67v-1.676l.335-1.34.67-.67.336-2.681 1.675-2.346h.336l.335-.335.335-.335.335-.335 1.676-.67 1.676-1.006h.335l.335-.335h.335v.671l.67.335.336-.671-.336-1.005h1.341v-1.005l-1.005-1.006-1.341-.67h-1.341l-1.005-.335v-1.34l1.005-.335-.335-.67v-.67h.335l-1.005-2.011-2.011-1.34-1.341.334-1.676.335v1.006l-.335 1.005zM24.606 137.026l-.134-.335-.503.335-.737.335h-.302l.268.335.738.671-.704 1.34h-.067l-.134.335-1.073.335-.938-.335.368-.335h-1.307l.1.335-.067.335h.47l.536.671.168.67.067.335.368.335.37.67.703-.335h.738l.368.335.134-.335h1.207l.335-.67.57-1.005.838-.335.737-.335.1-.671-.167-.67h-1.14l.034-.335.1-.335h-.435l-.47-.335-.033-.335-.067-.335h-.77l-.27-.336zm56.376-36.862l-.67-.335-.336-.335v-.335l-.335-.335h-.67l-.67-.335-.67-.67-1.342.67-.67 2.01-.67.335h-.67l-.336-.335h-.67l-.67 1.005-.336 1.341-.335.335h-.67l-.335 1.34-.336 1.006.336.335h-.336l-.67.335h.335l.335.335.67.67h1.006v.335h.335l.336.335.67-.335v-.335l-.335-.335.67-.335.67.335h-.335v1.34l.335-.335.67.335-1.005.67h-1.005l.335.671h.335l.67.67.336.67.67.335.67-.335 1.006-.335 1.006-.335-.336-.67-.335-1.006h-.335l-.335.335v-1.675l.335-.335h.335l.335-.335v-.335l.336.335.335-.335 1.34-3.016 1.006-3.016z" fill="#EBF2FA" stroke="#EBF2FA" stroke-width=".246"/><path d="M21.857 136.691l-.502.335h-.403l-.268-.335h-.335l-.369.335-.2-.335-.269-.335-.737.335-.771.335-.302-.335H17.4l.503 1.675.034.67.972.336 1.173.335h1.307l.268-1.006-.335-.335.369-.67.536-.67h.168l.1.335h.737l-.134-1.005-.838-.67-.402 1.005zm34.323-36.525l-1.007.335-.67.335h-.335v-.335l-.67.335-.67.335-.67-1.34-.671-2.346-.67-.335h-.671l-.335-.335-.67-.67v1.005l-.671.335-.335.335h-.67l-.661.15.66.185.336.67h-.67l-.336-.335v.335l-.67.335.335 1.005 1.006.671.335-.336.335-.335.67 1.341 1.006 2.01h.67l.67-.67 1.006 1.005 1.34.67h1.341l.67.336 1.341-2.011.336-1.34h-.336v-.335h-.335l-.335-.335.335-.335-.335-.335zm12.4-60.989l-1.34-1.675-1.006 2.346-1.34 1.675h-1.006l-1.005.67h-.336v.335l-.335.336-1.005.335-.335 1.005.335.335-.335.335-1.006 1.006-.335 1.34-1.006.335H57.52l-.335 2.346-.335 2.68-4.358.67-4.692.336v.67l.67 1.005v-.335l.336.335h2.345l.336-.335.335 3.351-1.006 3.686h2.011l.335.335h.67l-.334-.67v-.335h.335l.67.67.67.67h.67l.336.335.335 1.34.335.336.336-1.005-.336-1.676.336-1.675v.335h.335l.335-.67.335-.67v1.005h.335l.335-1.006.336-.67v1.005l.335-.67.335-.335-.335 1.005-.67 1.341h.335l.335-.67v.335l.67.335.67-1.34v-.336h-.335v-.335l-.335.335.335-1.005.335-1.005.336 3.016-1.676 2.345-.335 1.005-.336 1.34h.67l.671.671 1.006 1.005.335-.335.335-.335.222.222.113.113.67-1.005.336-1.005v-.335l.67-.67.67-.67-.67-1.006-.335-1.34.67-.67.335-.67.335-1.006.336-1.005.335.335.335.335.67-.335.67-.67v-.67l.336-.67v-1.006h-.67V52.58l.335-.335 1.34-1.675.335-.67.336-1.006h.335l.335.335.67-.67.336-.335v.335h.335l.335-2.01-.67-2.01h1.005l-.335-.671-.335-.67.335-.336h-.335l-.335-.335-1.006.335-.335-1.005.335-1.005-1.34-1.676zm-32.31 83.774l-.336-.671H34.93v-.67l-.503-.335-.235.67-.435.671-1.24-.671-1.642.671-.202.335.57.335h1.006l-.47 1.005-.938.67-.067.335-.067.336h-1.71l-.268.67-.368.335h-.134l-.168-.335-.503.335-.603-.335-1.04-2.346-1.44-1.005-.905.335-1.207.335.235.335h.335l-.034.335.067.335.403-.335h.435l.1.335-.2.335h2.01l.302 1.006.269.67.502.67.403.67-.235 1.676.2.67.47.67.771 1.676.268 1.675.235.335.536.335 1.006 1.676.704 1.005h.368l.235.335.268-.335h.201l1.04-.67 1.106-.335.234-.336h.335v-.335l-.234-.335-.235-.335h-.67l-.135-.335.302-1.005 1.14-.335-.235-.335-.335-.335.1-.335.134-.335-.335-.335-.067-.336h1.24l1.207-.335.134-1.34.168-1.675.737-.336h.57l-.704-.67h-.871l-.336-.67-.1-1.005.301-.671.436-.335-.268-.335-.402-.335-.201-1.005z" fill="#EBF2FA" stroke="#EBF2FA" stroke-width=".246"/><path d="M23.198 137.696l-.268-.336h-.436l-.1-.335h-.168l-.536.671-.369.67.335.335-.268 1.005-.369.335.939.335 1.073-.335.134-.335h.067l.704-1.34-.738-.67zm127.165 19.1h-.335l-.336-.336-.334-.335-.336.335h-.335l-.335-.335-.671-.67-1.005.335-.335.67.335.671-.67.67-.336-.335h-1.005l-.335-.335-.335-.335-.335.67-.336.67h-.67l-.335.335-.335.335h-2.347l-.67.335-.335.335-.671-.335-.67.335.67.67.671.671v1.34h-1.006l.671 1.676 1.005 1.34.335 1.005.335 1.006.336.335h.335l.67.335.335.335 1.341-.335 1.006-.335v.335l-.336.335 1.676 2.345h1.341l.67-.335.335-.67 1.676.335h1.006l.335-.335h.335l.335.335.671-1.005.335-.67-.335-.67v-.335h-.336l-.334-.335 1.005-.67h.67v-.671l-.67-.335v-1.34h-.335l-.335-.335v-2.346l-.671.335-.67.335-1.005-.335-.336-1.005v-.335l.336-.335v-1.006l.67-.335.67-.67v-1.005h-.335zm-69.716-45.574l-.335-.335v-.335h-1.006l-1.005-.335-1.006.335-1.006.335-.67.335-.67-.335-1.34.67-1.342.335-.334-.335v.335l-.336.335.336.335v.671l-.336.67-.335.335h-.67v.335l-.336.67-.67 1.341-.335 1.005v2.01l.335.336.335.335v.335l.335.335h.336l-.336 1.005v.67l.336.671v.335h-.67l.334 1.005.336 1.005h.335l.67-.67 1.006.335-.67 1.006-.671.67.335.335.335.335-.67 1.676h.335l.335.67.335.335h1.34l.671.335.336.335 1.34.335.67-1.34h.67l.336-.67v-.336h.335v-.67l.67-.67.336-.335 1.005-1.676 1.006-1.675h.67l.67-.335h.336l.335.335.335.335.335-.67 1.006-1.006.67-1.005-1.676-.335-2.01.335-.336-.335v-.335h-1.34v-.335l-.671-2.346v-.335h.335v-.335l.335-.335 1.006-.335 1.005.67-.335.67v.67l.67-.335.336.335v.671h.335l.335-.336.335-.67.67.335h.336l.335-.335h1.34l-.335-.335-.335-.335.67-1.34v-1.005h-.335l-1.005-.671-1.34-.67-.336-.335h-.335v-1.005h-1.34v-.335l-.336-1.006h-.335l-.335-.335zm-64.756 11.394l-.167-1.005-.905.335-1.14-.335-.536-.671-.335-.335-.268.335.1.336.168.335.603.67.537.67h.2l.302-.67h.369l.235 1.005-.1 1.006h-.772l-.77.67.066.67.1.335-.335.335h-.435l.067-.335-.134-.335h-.268l-.336.335-.134.335.403 1.006.67.67.67-.335.436-1.006h.302l.268-.335.436-.67.737-.335-.1.67-.135.67h.537l.167-.335.168-.335.2-.335.403-.335-.335-1.675-.939-1.006zM1.087 110.065l.88-1.277-.682-1.705-.664-.372-.075-.447 1.536.077 1.608.325 1.08.905-.194-1.315.855.987.108.452 1.003.908.482 1.24-.39 1.009-.177 1.906.63.172.464-.066.14.573.616.134.818 1.083-.993.013-.361.604-1.4-1.163-.322-.797-.77-.072-1.583-.617-1.072-.337-1.398.041-.139-2.261z" fill="#EBF2FA" stroke="#EBF2FA" stroke-width=".246"/><path d="M1.226 112.328l-.85-.589-.304-1.21 1.015-.463.14 2.262zm103.218-43.997l-2.011-1.675-1.676-1.34h-1.34l-.336-.335-.335.335-.67.334-2.682-.335h-2.346l-1.005 1.34-1.006 1.341-.335 1.005h.67l.335.335-.335 1.006-.335 1.005.335.67v.335l-.335.336-.335.335-.335-.335-.67-.67h-.336l-.335.334-.335-.335v-.335h-.335l-.67.335-.336-.67-.67.67-.335-.335v-1.005L83.999 69l-2.347-.67v1.34l.67 1.34v1.677l-.67 1.005v.67l.335.67-1.005.335h-.67l-1.006 1.34-.335 1.341.335.335h.67l.336.335h.67v-.335l.335-.67h1.34l.336-.335h.335l.335.67.336.67-1.341 1.34-1.676 1.341-.335 1.005-.335.67-2.011.67h-.67l-.671.336-1.006 1.675v1.006l-1.34.335-.67 1.005.67.67.335.67v.67l.335 1.006-.335.335v.67l1.005-.67.67-.67h.671v-.335l1.34.67 1.006.335 1.34-.335h1.007v.335l.67-.335-.335-1.006.67-1.675 2.011.67h.67l.67.67-.334.67 1.005.67.67-.334.67 1.005.671.67.67-.335h1.341v.335h.67l.336-.335h.335l.335.335.67-.335 1.006-.335 2.01 2.01 3.353.336v-.335l.67-.336.335-.67.335-1.005h.671l.335-.67-.335-.335v-.335l.67-1.34.67-1.341 1.341-1.34 1.341-1.341.335-2.01.335-.336.671-.335.335-.335h.335l.67-.335h.671v.335l.335.67.67-.335.671-.335.67-.335V81.4l1.006-.335.67-.335h1.005l.671.335 1.005-1.005 1.006-.335v-.335l.67-.67h1.006l1.34-.336h1.341l.335-.67.336-.335 1.557-.934 1.459-.741-.335-1.006-.671-1.005.335-1.34h.336l.313-.418-.649-.253h-.67l-.335.335-.671.336-.67.335-.67.335-.671.335h-.335l-.335-.335-.335.67v.335l-2.346.67-2.011.335-.336-.335-.335-.335-10.055-6.032z" fill="#EBF2FA" stroke="#EBF2FA" stroke-width=".246"/><path d="M75.955 82.74l-1.676-.336-.67.67-1.341 1.006-.67-.335-.671.335v.67l.335.335h1.005l-.335.335-.335.335.335.67-.67.67-.335.671-.335 1.005v1.005l-.67.336H68.58v.335l-.67-.335h-.336l-1.005.67-.67.335 1.005 1.34 1.005 1.34-.335.336-.67.335-.67.335-1.341-.67-.335.335-.336.67-.335.335-.335.335.335.335.335.335.336.67h1.005l.67.67.336-.334h.335l.335.335.67.335v.335l.335-.335h.67v.335l-.334.67.335.335h.335v1.341l.335.335-.335.335-.335.335 1.005.335-.335 1.005v.671h.335v.335h-.335l.335 1.005.67.335.336-1.005.335-1.341h.67l.335-.335.336-1.34.67-1.005h.67l.335.335h.671l.67-.335.67-2.011 1.341-.67.67.67.671.335h.67l.336.335v.335l.335.335.67.335.335-.67.67-.335.336-1.005.335-.335-.67-.67v-1.006l1.675-1.005 1.006-1.34-1.34-1.006-1.341-1.34v-.335h-1.006l-1.34.335-1.006-.335-1.34-.67v.335h-.671l-.67.67-1.006.67v-.67l.335-.335-.335-1.006v-.67l-.335-.67-.67-.67.67-1.006 1.34-.335v-1.005l1.006-1.676-.67-.67-.22-.44-.115-.23zm-24.804 20.106l-.67.67h-.67l-1.006-2.01-.67-1.34-.335.335-.336.335-1.005-.67-.336-1.006h-.67l-.335.335-.335.671-.335.335.335.335v.67l-.67.335.335 1.005v1.676l-.335.335-.67.335.67 1.005 1.005.335.335.67.336.335h.67l.335.336.335.335v.335l1.006.67.67.335h.335v.67l1.006-.335h.67l.67.335.336.335 1.005-.67 1.006-1.34v-.67l-.335-.671.335-1.34-.335-1.34-1.341-.671-1.006-1.005z" fill="#EBF2FA" stroke="#EBF2FA" stroke-width=".246"/><path d="M43.778 98.154l-.336.335h-.67l-.335-.335-.336-.67h-1.005l-.67-.336-1.475 1.006-1.173 1.34.335 2.011-.536.335-.637.335.268.335.335.335-.167.671-.1.335.602.335.704.335.369.67.335.67h.503l-.067.335.435.335 1.61-.67 1.675-.67.67-.335.336-.335v-1.676l-.335-1.005.67-.335v-.67l-.335-.335.335-.336.335-.67.335-.335-1.675-1.005zm35.528-69.031v.168l-.67.502-1.005-.402-.67-.234-.336.268-.67.368-.335-.536-.336-.033-.67-.101v.67l-1.34.67-1.006 1.341v.67l-.335 1.676-.336 1.34-1.005.335h-1.34l-2.012 1.676 1.34 1.675 1.342 1.676-.335 1.005.335 1.005 1.005-.335.335.335h.335l.336.335v-1.34l.335-.67v-1.34l.67 1.34v.335h-.335v1.675h.67l.336 1.676h-.336v.335l.336.335h.335v1.675l.67 1.006 1.006 1.34 1.005 1.676.67 1.34 3.352 1.005 2.011-.335 1.676-.67.335-.335v-.67l.67-.67.671-1.006-.335-.67-.335-.335.335-1.005.335-1.006h-.67v-2.01l-.335-.335v.335l-.336-2.346v-3.686l-.335-.67H84l.335-.335L84 37.5v-.335h-.67l-.335-1.006-.336-.67-.67-.335-.67.335-.335-.335.67-.335.67-.67-.67-.335.335-.335-.335-.335-.67-.336h.334l.336-.335-.336-.335v-.335l.67.67 1.007.335-.336-1.005-.335-1.34v.335h-1.005v.335l-.335-.335v-.335l-.336-.67v-.335l-.335.335v.335h-.67l-.335-.972v-.034zM43.778 53.252l-.67.335.335.335.335.335h.67l.335.335h-.335l-.335.335v.335h-.335v1.34l.335.67h.67l1.006.336.67 1.34-.67 1.006-1.006.67-1.34-.67-.336-1.006.28-1.116-.615-.56-.335.336-.335-.335-.335-.335-.336-.336-.334.336h-.336v-.67h-.402l-.235.334-.503.336h.168l-.402.67-.604-.335-.57.335h-.603l.336 1.005.268.67.335.67.301.67-.234 1.341.502 1.006h.503l.67-.335.47.335.335.67.67-.335h1.006v.335l.67.335.67-.335.67-.335v.335l.336.335.335.335v1.34h1.34l.336.335v.336l.67 1.005v.67l.336.67.67 1.005h1.006l.67.335.335-.335.335-.335h.67l.336-.335h-.335v-.335l.335-.335v-1.005l1.005-.67 1.006-.335.67-.67v-.336l.335-.335h1.006l.67-.335-.335-.335-.335-1.34-.335-.335h-.67l-.67-.67-.671-.67h-.335v.334l.335.67h-.67l-.336-.334h-2.346l-.335-.336-.67.67-1.006.336-.67-1.006h-1.006l-.67-.335-.335-.335h.335l.335-.67.335-.67.67-1.676 1.006-1.34v-1.006l-.67-1.005v-1.005h-2.346l-1.676-.335z" fill="#EBF2FA" stroke="#EBF2FA" stroke-width=".246"/><path d="M61.877 72.016h-.335l-.67-.335v-.67l-.336-.336h-.335v-1.34l.335-.67.336-1.006.335-1.005-1.006-1.005-.67-.67h-.67v.335l-1.006.335-1.34.335-.336-.335-.335-.67h-.67l-.335.335v.335l-.67.67-1.007.335-1.005.67v1.005l-.335.336V69h.335l-.335.335h-.67l-.336.335-.335.335-.67-.335h-1.006l-.335 1.005v.67h.335v.335h.335l.336.336v2.01h1.005l1.34.335v2.011l.336-.335 1.005.335v-1.005l.336-1.006.335.335-.335.67v1.341l1.005.67.335-.335h.335l1.006 1.005v1.676l1.34 1.675 1.341-.335v-.335l.336-.335 1.005.335 1.005.335.336-.335.335-.335v.67h.335l.335.335v1.006l1.341.335v.335l.335.335.67.335.336.67.335.67 2.346 1.676h.335l.335-.335.67.335h.336l.335-.335.335-.335.67.335.336.67.67-.67-.335-.67.335-.335.335-.336h-1.005l-.335-.335v-.67l.67-.335.67.335 1.341-1.005.67-.67-.335-1.34-.67-.336v-1.005h-2.011l-1.006-1.34-.67-1.006-.67.335H67.91v-.67l-.67-.335h-.336l-.335-.67v-.335l-.335-.335-.335-.335h-.335v-.335l-.67.335h-1.006v-.67l-.335-.335-.335-.336-.336-.335-.335-.335h-.335v-.335l-.335-.67z" fill="#EBF2FA" stroke="#EBF2FA" stroke-width=".246"/><path d="M62.548 81.4l-.336-.335h-.335v-.67l-.335.335-.335.335-1.006-.335-1.005-.336-.335.336v.335l-1.341.335-.335.67v.335l-2.346 1.005-2.011 1.34 2.346 1.341.67-.335.335-.335.335.67.336.67.67.336.67.335-.335.67-.335.335h1.005l.67 1.005 1.341.67h1.341l.67-.67.336-.335 1.005 1.006v.67h.67l1.341.335.67-.335 1.006-.67h.335l.67.335v-.335h1.341l.67-.335v-1.006l.336-1.005.335-.67-.335-.67-.67-.335-.336.335-.335.335h-.335l-.67-.335-.336.335h-.335l-2.346-1.676-.335-.67-.335-.67-.67-.335-.336-.335v-.335l-1.34-.336V81.4zM38.214 59.283l-.268-.67-.335-1.006-.738 1.006-.77.67h-1.04l-.536.67.234.335.168.336-.502 1.005-.47-.335.134-.335.1-.335h-.2l-.067.335h-.336l-.268-.335-.603.335h-.637v.335h.134l-.033.335-.335 1.005-.771.67-.838.335.067.335.033.336-.837 1.005-1.107 1.34h-.033l.033.335.269.335.335.335-.134.336-.034.335h.302l.436.67-.403 1.005-.268.335h.503l.268.335h.57l.603 1.676v.67l.168.335h.703l.47.67 1.709-1.34.201-1.005v-.67l.302-.336.301-.335-.167-.335h-.034l.47-.335.536-.335-.067-.67.603-.67.168-.67 1.005-.336.067-.335.034-.335h.402l.302-.335-.335-1.005-.235-1.34 1.675-.67-.502-1.006.235-1.34-.302-.67-.335-.67z" fill="#EBF2FA" stroke="#EBF2FA" stroke-width=".246"/><path d="M113.494 48.56v-.67h-.67v.67l.335.335-.335 1.34 1.005-1.005v-.334l-.335-.336zm7.709-7.372l-1.006-.335h-1.005v.67h-.335v.67l-.671-.335h-1.005v.67l.335.336h-.335v.335l-.335.335-1.006.67-.671.67-.335-.335v-.335l-.335-.335-.67.335-.671.67-.335 1.006v1.005h.671v.335l.335-.335.335-.335v.335l-.335.67.67.67-.335 1.34.335.336.335.67h-.67l-.335-.335v.335l-.335.335h-.336v.67l.336.67h.67l.335.67v.67h.67v-.334h.336l.335.67.335.67.335.335v-.67l.335-.335v.67l.671 1.006v-.67l.335.335h.67l-.335-1.006-.335-1.005v-1.676l.335-1.675.335-1.34.671-1.341h.335l.335-.67.335-.67.335-.67.335.335.671-.335v-.336l-.335-.335h.335l.67.335.335-.335v-.335h-.335l-.335-.335 1.005.335v-.67h.671l-.335-1.006-.671-.67v-.335l-.335-.335h-1.005zm7.709-7.372l-.671.67v.335h.336v.335l.335.335h-.671l-.67.335h.335l.335.336v.335l.336.335-.671-.335-1.005-.335-.335.335.335.67h-1.341l.335.335v.335h-.335l-.335-.335v.67l.335.67-.335-.335-.67-.67-.671.335v.67-.335l-.67-.335-.671.335-.335.336-.335-.336.67 1.006 1.341.335v.335h-2.011l-.67.335v.335h1.005l.671.67.335.67.335-.335v1.006l.67.335.336-.335v.335l.335-.335.67-.336-.335-.67v-.67l.335 1.005h.67l.336-.335-.336-.67-.335-.335v-.335l.671.335.335.67v.335l.335-.67.335-.67-.335-.335v-.336h.335v-.334h.335v1.675l.335-.335.336-.335.67-.335.67-1.005-.335-.335v-.336h.335v.67l.671.336.335-.335.335-.67.335 1.005.335-.335v-.67h.335v.67l.671-.335v-.336l.335.336.335-.336v-.335l-.335-.335h.67l.671-.335 1.005-.335v.335l.335-.335h.335l1.006-.335h5.698l3.352-.335 1.005-.67.671-1.005.67-.67-.335-1.006-1.676-.67-2.011.67v.335l-.335.335h-.335v-.335h-4.358l-1.005-1.005-.67-.335-.336.67-1.005.335h.335v-.335h-.671l-.67.335-.67-.335h-1.006l-.67.335h-.67v.335h-1.006v.67l-.335.335-.335-.335-.335-.335-.335.335-.336.335-.67.335v-.335l-.335-.67zM83.999 55.597h-.336l-.335.335h-1.005l-1.006.335-.67-.335-.336-.335-1.005.335h-1.34l-1.341 1.006-.336 1.34-.335 1.34h-.335l-.335-.335-.335-.335v.335h-.335l-.67-.335-.336-1.005-.67-1.005-.67-.335-.336.335v-.335l.335-.336h.67l-.334-1.675-1.006-1.34-.67.335-.67.335-.336 2.68h.335l.67.336-.67 1.005-1.005 1.005-.335-.335h-.335v.335l-.67-1.005-.671-1.34-.67.67-.671.335-.335-.335-.335-.335-.335 1.005-.336 1.005-.335.67-.67.67.335 1.341.67 1.006-.67.67-.67.67v.335l-.335 1.005-.67 1.006-.336-.336-.335.336-.336.335-.334 1.005-.336 1.005-.335.67v1.34h.335l.336.336v.67l.67.335h.335l.335.67v.336h.335l.336.335.335.335.335.335.335.335v.67h1.006l.67-.335v.335h.335l.335.335.336.335v.335l.334.67h.336l.67.335v.67h1.006l.67-.334.67 1.005 1.006 1.34h2.011v1.006l.67.335.335 1.34 1.676.335.335.67.67.67.671-.334h.67l2.011-.67.336-.67.335-1.006 1.676-1.34 1.34-1.34-.335-.671-.335-.67h-.335l-.335.335h-1.34l-.336.67v.335h-.67l-.335-.335h-.67l-.336-.335.335-1.34 1.005-1.34h.67l1.007-.336-.336-.67v-.67l.67-1.005v-1.676l-.67-1.34v-1.34l2.347.67 2.346 1.675v1.005l.335.335.67-.67.336.67.67-.335h.335v.335l.335.335.335-.335h.335l.671.67.335.336.335-.335.335-.336v-.335l-.335-.67.335-1.005.335-1.005-.335-.336h-.67l.335-1.005 1.006-1.34 1.005-1.34-.67-.671-.67-.335h-.67l-.671.335v.335h-.67v-.335l-.336-.335-.335-.67-1.005-2.01-1.34-2.011v-1.006l-1.677 1.34.335-.67-.335-.334-.335-.336.67-.335-1.34-2.68z" fill="#EBF2FA"/><path d="M114.499 48.225l-.67-.67.335-.67v-.335l-.335.335-.335.335v-.335h-.671V45.88l.335-1.006.671-.67.67-.335.335.335v.335l.335.335.671-.67 1.006-.67.335-.335v-.335h.335l-.335-.335v-.67h1.005l.671.334v-.67h.335v-.67h1.005l1.006.335h1.005l.335.335v.335l.671.67.335 1.006h-.671v.67l-1.005-.335.335.335h.335v.335l-.335.335-.67-.335h-.335l.335.335v.336l-.671.335-.335-.335-.335.67-.335.67-.335.67h-.335l-.671 1.34-.335 1.34-.335 1.676v1.676l.335 1.005.335 1.006h-.67l-.335-.336v.67l-.671-1.005v-.67l-.335.335v.67l-.335-.335-.335-.67-.335-.67h-.336v.335h-.67v-.67l-.335-.67h-.67l-.336-.67v-.671h.336l.335-.335v-.335l.335.335h.67l-.335-.67-.335-.335.335-1.34zm0 0l.335-.335m15.083-8.712l-.67 1.005-.67.335-.336.335-.335.335v-1.675h-.335v.334h-.335v.336l.335.335-.335.67-.335.67v-.335l-.335-.67-.671-.335v.335l.335.335.336.67-.336.335h-.67l-.335-1.005v.67l.335.67-.67.336-.335.335v-.335l-.336.335-.67-.335v-1.006l-.335.335-.335-.67-.671-.67h-1.005v-.335l.67-.335h2.011v-.335l-1.341-.335-.67-1.006.335.336.335-.336.671-.335.67.335v.336-.67l.671-.336.67.67.335.336-.335-.67v-.671l.335.335h.335v-.335l-.335-.335h1.341l-.335-.67.335-.335 1.005.335.671.335-.336-.335v-.335l-.335-.336h-.335l.67-.335h.671l-.335-.335v-.335h-.336v-.335l.671-.67.335.67v.335l.67-.335.336-.335.335-.335.335.335.335.335.335-.335v-.67h1.006v-.335h.67l.67-.335h1.006l.67.335.67-.335h.671v.335h-.335l1.005-.335.336-.67.67.335 1.005 1.005h4.358v.335h.335l.335-.335v-.335l2.011-.67 1.676.67.335 1.005-.67.67-.671 1.006-1.005.67-3.352.335h-5.698l-1.006.335h-.335l-.335.335v-.335l-1.005.335-.671.335m-4.022 1.34l-.335-.334v-.336h.335v.67zm0 0l.671.336.335-.335.335-.67.335 1.005.335-.335v-.67h.335v.67l.671-.335v-.336l.335.336.335-.336v-.335l-.335-.335h.67m0 0l.335-.335M75.619 59.619h.335l.335-1.34.336-1.341 1.34-1.006h1.341l1.005-.335.336.335.67.335 1.006-.335h1.005l.335-.335H84l1.34 2.681-.67.335m-9.05 1.006l-.335.335m.335-.335l-.335-.336-.335-.335v.335h-.335l-.67-.335-.336-1.005-.67-1.005-.67-.335-.336.335v-.335l.335-.335h.67l-.334-1.676-1.006-1.34-.67.335-.67.335-.336 2.68h.335l.67.336-.67 1.005-1.005 1.005-.335-.335h-.335v.335l-.67-1.005-.671-1.34-.67.67-.671.335-.335-.335-.335-.335-.335 1.005-.336 1.005-.335.67-.67.67.335 1.341.67 1.006-.67.67-.67.67v.335l-.335 1.005-.67 1.006-.336-.336-.335.336-.336.335-.334 1.005-.336 1.005-.335.67v1.34h.335l.336.336v.67l.67.335h.335l.335.67v.336h.335l.336.335.335.335.335.335.335.335v.67h1.006l.67-.335v.335h.335l.335.335.336.335v.335l.334.67h.336l.67.335v.67h1.006l.67-.334.67 1.005 1.006 1.34h2.011v1.006l.67.335.335 1.34 1.676.335.335.67.67.67.671-.334h.67l2.011-.67.336-.67.335-1.006 1.676-1.34 1.34-1.34-.335-.671-.335-.67h-.335l-.335.335h-1.34l-.336.67v.335h-.67l-.335-.335h-.67l-.336-.335.335-1.34 1.005-1.34h.67l1.007-.336-.336-.67v-.67l.67-1.005v-1.676l-.67-1.34v-1.34l2.347.67 2.346 1.675v1.005l.335.335.67-.67.336.67.67-.335h.335v.335l.335.335.335-.335h.335l.671.67.335.336.335-.335.335-.336v-.335l-.335-.67.335-1.005.335-1.005-.335-.336h-.67l.335-1.005 1.006-1.34 1.005-1.34-.67-.671-.67-.335h-.67l-.671.335v.335h-.67v-.335l-.336-.335-.335-.67-1.005-2.01-1.34-2.011v-1.006l-1.677 1.34.335-.67-.335-.334-.335-.336m0 0l-.335.336m29.16-10.389v-.67h-.67v.67l.335.335-.335 1.34 1.005-1.005v-.334l-.335-.336z" stroke="#EBF2FA" stroke-width=".246"/><path d="M144.33 52.245v-.335h-.67l-1.676.67v1.006l1.34.335 1.006-.335v-1.34zm4.357 8.378v-1.341l.336-1.005v-.67l-.336-.335-.335 1.005-.335 1.675-1.005 1.006-1.676.335-.335.335h-.336l-.335.67-.335.335-.335.335-.335.335v.335l.335.335v.335l-.335.67.335 1.341v1.34l-1.006 1.006-.67.67-.335 1.006-.335.67-.336.67v1.34l-.335.67-.335 1.006h1.006l.335.335.335.335.67-.335h.67l2.011 1.34 1.006 2.01v.336l-.335.335.335 1.005v1.006h-.67l-1.006.67-.335 1.005 1.341 1.34 1.005.67h-.67l-.671-.334-.67.334h-.335v-1.004l-.335-.67v-.336l.335-.67v-.67l.335-.335.335-.335h-.335v-.335l.335-.336v-1.34l-.335-.67v-1.34h-3.687l-.67 1.005-.335.67v1.005l-.671 2.346-.67.67-1.005.335-.336 1.005-.67.67-1.005.336-1.006.67-.671-.335-.335.335-.67 1.005h-1.006v-.335l-.335-.335-1.34-.335-1.006-.67-.67-.335-.335-.67-.336-1.006v-1.005l1.341.67 1.676.67-.335.335h-.671v.335l1.006.67h1.341v-.67l.335-.67h.335l.67-.335.335-.335h.336v-.67l1.34-.67 1.341-.67.335-1.006v-.67l1.006-.67.67-1.005-.67-1.34-.336-2.012 1.006-1.675.671-1.675.67-2.011.335-.335.335-.335 1.006-2.01-.335-1.676v-1.676l1.34-1.34L145 57.607v-1.005l-.67-1.006-1.676-.67-.67-.335-.671-.335h-.335l.335-.335h-.335v-.335l-1.676 2.01-1.675 2.346-2.682 2.01-2.011 1.006h.335l-.335.67h-.335l-.335.67h.67l.335.335-.67 1.006-.67 1.34v.67l-.336.67-.335-.335h-.335l-.67.67-.335 1.006v.335l.335-.335h.335l.335.67.335.67h.335v.67l-.335.335v1.676l.671.67v.335l-2.011 2.346h-.671l.335-.335v-.335l-.335-.335-.335-.335-.335-2.346-.389.038-.056-.226-.151-.226.383-.01-.138-.366-.319-.215.187-.556-.858-1.12-1.34-1.005-.671.67-.335.335-.335.335.67 1.006.335.335v.67l-1.005 1.34h-.335l-.335 1.34.67 1.006.335 1.005-1.341.67-1.675 1.006-.336.335-.335.67h-1.341l-1.34.335h-1.006l-.67.67v.335l-1.006.335-.67.67-.335.336-.67-.335h-1.006l.335 1.005v.67l.335.67v.335l-.67 1.005-.335 1.006h-.67l-.336.67.336.67 1.005.335-.335.67.335.67h1.006l.335.336.67-.335h.67v.335l.336.335.335-.335h.335l1.005.335 1.006.67.335.335.67.335-.334.335-.671.335.671 1.006 1.005 1.005.67-.335.671-.335 1.005.335h.335l.336-.335h.67v.335l.335.335h.335l.671.67-.336.335-.335.67v1.006l.335.67.671.67v2.346l1.676.335 1.676-.335.67 1.005.335 1.005.671.671.67.335 1.676.335 1.34 1.005 1.676 1.005.336 1.341.67.67h2.346l.67.335.671.335 2.011-.67 1.34-.67h.336v1.005l1.005 1.005h1.341l.67 1.006.67 1.005h1.341l.671.67.67 1.341 1.676-1.341 1.005-1.34.336-.67v-.335l.335-.336.335-.67-.671-.335-.335-.335v-.67l.335-.335h.671l1.341-2.011.335-2.011-.335-1.005-.671.335-.67-.335-.335-.67h-.671l-.335-1.005h.335l.335-.67v-2.346l-1.005-.335-.335-1.006v-2.345l.335-1.34-.335-1.676-.335-1.005-.336-.336v-.335l.562-.408.308-.534-.534-.398v-1.34l1.34-.67.671-1.676.67-4.021-.335-.335-.335-.335v-.335l-.335-.336-.671.67h-1.005l-.671-.67-1.005-.67-.335-1.005-.336-.67v-1.005l.671-.335v-.336h.335l1.341-1.005.67-.67.67.335h.671l.335-1.675v-1.676l-.671-.67-.67-.67v-1.34h1.006l.67-.67v-1.006l-.67-.67-.671-.67-.335-.67-.335-.671h-1.006l-1.005.67h.67l.335.67v.67l-1.34-.335-.335-1.005-1.341.335-.335 1.34.335 1.341.67 1.005h.671l.67.67-.335 1.676-.335-.67-.336-.67-2.011-1.006-1.676-1.34.336-.335.67-1.34-.335-.67 1.006-1.006.669-1.005zm3.687.67l.335-.335v-.67l-.335-.336-1.676.67 1.341.67h.335zm-3.351-5.026l-1.341-.336.335 1.006h.335l.335-.67h.336zm1.675-1.676l.336.335.335-.335-.671-.335-.335.335h.335zm144.46-12.733h-.335l-.336 1.005 1.341.67.671-.334.67-.67-.335-.336-.335-.67h-.671l-.67.335zm9.385-21.278l-1.006.67v.469l-.335.201-.335.268-.335 1.441.335 1.474.335.771.671.402.335.168.67-1.843 1.006-.537.335-.335v-.402l.67-1.44-.335-1.442-.67.1-1.341.034zm22.792 6.97l-.334.536-.338.368-.334.335.334.067.338-.234.668.167.672.268v.738h.669l.671.335h-.671v.67h-.335l-.334-.335-.337.335h-1.003v-.67l-.672-.335-1.34-.972-.334-.067h-.338v.704l-.334-.1v-.135l-.334-.435-.672-.335-.669.2-.337.336 1.006.167-.334.302-.672.67-.334-.67-.335-.369-.334.302-.672.402-.334-.335-.337-.067-1.003.402-1.007.67-.335-.335h-.336l-.67.335-.671.335-.334-.335-.671-.335-1.006.335-1.005.67h-1.676l-.335.335-.67.335v-.335h.335v-.335h-.335l-.671.335-.335.335-.67.336h-.671l-.335.335-1.005.335-1.006.335h-.335v.67l-.335-.335h-.335l-1.341 1.675-.335.335-.671.67h-.67l.335.336v.335h-.67l-.67.335-.336.335-.67.335-1.005.67-1.006.335.335.336.335.335.335.67v1.005h.671l.335-.335 1.676 1.005.335 1.676-.335.67v.67h-1.006l-.67-.67-1.005.335-1.006.335-.67-.67-1.676-.67-.336.335v1.675l-.67.67h-.67l-.671.336-.335.335-.67.67-1.006.335-.67-.335v.335l-.335.335-.335.335h-.335l-.336.67v.336l-.335.335-.335.335.335.67.335.335h.336l.335.335.335.67h.335l.67.335v.67l.671 1.006.335.67-.67.335-.336.335-2.346 2.68-1.676 2.347.336.335.335.335-.335.67v.67l2.011 1.34 2.011.671v.335l-.336.335.671 1.34.67 1.006h1.006l.67.335.335 1.34h1.006l.67-.335h1.006l1.005.335h1.341l1.005-.67 1.006.335h1.676l.67-.67 1.006-.67-.335-.67.67-.67.335-.336.67-.335h1.006v-.335l1.341-.67h.335l.67-.335.67-.67.336-.336.67-.335h.671l.334.335 1.006-.335 1.006-.335h.67l.335.335h1.676l.335 1.676.335 2.01 1.341-.335h1.34l1.34.335 1.006.335h.337l.335-.335h.334l.334-.335v-1.005l.338-.335.668-.335 3.352-4.022.335.336.671.67.672-.335h.669v.335l.334.335.337-1.005v-1.34l.669-2.011.672-2.011h-.672v-.335l-.334-.335h.334v-.335l.672.67 1.674-1.005 1.678-1.005-.338-.336v-1.34l-1.002-.335-1.006-.335v-.67l-1.006.335-1.006-.335-1.675-1.006-2.012-1.005-.334 1.005-1.344.335-.668-.67-.334-.335-.338 1.005v.335h-.668v.67l-.338-.334.29-.336h-1.293l.112.348.223.658-.672.335-.334.335.334-.67.337-.335v-.335l-.337-.67h.337l2.009-1.006-.334-.335v-.335h1.34l1.34-1.006.672-2.01-.334-2.01-.672-2.011h-1.006l-1.34-.335-.334-1.006.334-.67h-.334l-.335-.335.669-.335.334.335v-1.34l.672 1.005.334 1.006h.672l.334-.335h.334l.672 1.34.334-.335.335-.335.671-1.676.672-1.005.669-.335 1.006-.335 1.006.67.668.335 1.344-.335 1.002-.67.338-.335.334-.335 1.006.335 1.006-.335v-.67l-.337-.336v-.335l.671.67.335.336.337-.67-.672-.671h.335l.334-.335v-.335h-.669l-.671.335-.335-.335-.334-.335v.335h-.334l.334-.67v-1.34l-.334-.336-.338-.335-.668-.335h-1.678l.672-.335.668-.335.672-.57.334-.737v-.235l-.668.1-.672-.234.672-.235 1.006-.603-.672-.436-.334-.335v-1.91l-.338.101-.334.268-.334.067-.334.034-1.006.268-.672.235-1.675.033h-1.006l-.671.838-.335.837-.334.269v.067l.334.268v.268l-.671-.201-.335-.335-.334.268zm-51.617 136.284h-1.005l-.671-.335h-.335l-1.005-1.005-.336-.336h-.67l-.67.336-.671-.336h-.67l-.335.671-.336.335h-.335l-1.34.67-.336.335-.335 1.005-.335.67v1.341l.335.335.671.67v.67l.335.67.335.335.335.336.67.335.671-.335h.335l2.011-1.006h.67l.336-.67v-.67l.67-.335.67-.67h.671l.67-1.341 1.005-.67h1.341l1.006-.67-.335-.67-.335-.67-.671.335h-1.341l-.67.67zm-101.893-9.383h-.67l-1.676.67-1.006-.335-.335.335h-.67v-.335h-.335l-.336.336h-1.005l-.335.67-.335 1.005-.671.335-.67.335-1.676 2.346-2.346 1.34-2.346-.335-2.011-.67-.335-.67-.671-.335-1.005.335-1.006.335v1.675h-1.341l-1.34-.335v2.346l.335.335h.335v1.34l.67.335v.671h-.67l-1.005.67.335.335h.335v.335l.335.67 1.341-.335h1.34v-.67l.336-.671 1.676.335.67-.335.67-.335h1.341v-.335l.335-.335h.335v.335h.335v.335h.336l.67-.335v.67l.335.671h1.341l1.676.335.335 1.005.335 1.34 1.341.336 1.34.335h.335l.336-.335 1.676.67h.67l1.006.335.335.335.335.335 2.346-1.34.335-1.006.335-1.005h-.335l-.335-.67v-1.005l-.335-.335.67-1.676 1.006-1.34h.335l.335-.335.671-.67.335-.671v-.67l-.335-.335v-.67l.335-.335v-1.676h.335v-.67l-.335-.335h-1.341l-1.676-1.34-1.676-1.341zM316.61 166.18l-.671.335h-.67v.67l-.335 1.34-.335 1.341.335.335h.335v-1.341l.335-1.34.67-.67.336-.335v-.335zm2.009 2.345v-.67l-.334.335-.335.335h.669zm2.346-9.047l-.334-.67h-.334l-.334 1.005-.338.67h-1.34v.335l.334.335-.334.671-.335.67v.67l-.335.67v.67l-.335.67.335.336.335-1.676.335-.335.334-.335v-.67l.672-.671.334-1.005.672-.67.668-.67zm2.347-5.697l-.335.335-.668 1.676v.335l-.338.335.672.335.669-2.346v-.67zm2.683-5.026l-.337-1.006v1.006l-.334.67v.335l.671-1.005zm.335-4.692v.67l.334-.335v-.335h-.334zm.334-5.026l-.334-.67.334.335v.335zm-.334-4.021l.334.67v.335l.337-.335-.337-1.005-.334.335zm1.34-6.367v-.67h-.334l-.335.67h.669zm-1.006 2.01l-.669 1.341.335.335.671-.671.335-1.005v-1.005l-.335-.67-.337-.335-.334.335.334.67v1.005zm-27.819 16.755l-1.676-2.01-1.34-1.676-1.006-1.34v.335h-.335v-.67l-.67-.335-.671-.671-.335-1.675-.67-2.011h-.335l-.671-.67-.335-.67h.335l.335.335v.335h.336l-1.341-1.675-1.006-1.341v-.67l-1.005-.67-.335-.335v.67h-.336l-.335.335.671.335 1.005.67v.335h.336v.671h-.336v.335l.336.335-.336 1.005-.335-.335h-.335l-.671.335v.67l.336.671.335.335.67 2.345.67 2.346 1.341 1.005 1.676 1.34.335 1.006v1.34l.671.67.335.671 2.011 6.031v.336l1.341 1.005.67 1.34.335 1.005v1.341l.671.67.335.67.67 2.681 1.341 2.011.335-.335v-.67l-.335-1.676.335-1.34.335.335 1.006-.335.67.335.67.335.335.67.336.335-.671-1.675-.67-1.341-.335.335-.671-.335-.67-.335-.671-.67-1.34-1.005-1.005-1.676-.336-2.011v-1.675l-.335-.67v-.67l.335-.335.336-.671 1.675-.335 1.676.671.671.335.334.335-.67-.67-1.005-.671-.671-.67-.335-.67-2.011-2.011z" fill="#EBF2FA" stroke="#EBF2FA" stroke-width=".246"/><path d="M262.311 138.031l.67-.67.336-1.005h-.671l-.335-.335-.67-.335-.335.335-.671.335h-.335l-.335-.335-1.005.67-1.341-.335-.67.67h-1.006l-.335.335v.335l-.67.335-.671.671v.335l-.335.335-1.005-.335-1.006-.335v.335h-1.341l-.335.67v.335l-.67-.335h-.336l-.67.335-1.005.67h-.671l-.67-.335h-1.006l-1.005.335-1.676-.335-.67-.67-.671-.67-1.675-.335h-2.012l-.335-.336-.67-.335h-1.341l-.67-.335-.671-.335-.67-.335-1.341.335-1.34.67v1.341h.335v.67l.335.335.671.335.67.335-.335.336h-.335v.67l.67.67h.335v-.335l.67-.335 1.006-.335.67 1.005.335 1.005h.336l.67-.335.67 1.676-.67 1.675.335.335h.335l1.006.67-.335.335-.336.336v1.005l-.335.67 1.006 1.005.67 1.006h1.676l.67-.335.671-.335h.335l.335-.335.671.335.67.335.335-.335 1.006.67 1.005.335v-.335h2.011l.335.335v.335h.336l.335.335h.335v.67h.335l.67.671.336.335.334 1.34 1.677 2.01h.335v.336l.335.335v.67l.67.67.671 1.005.335.335.335 1.006h.335l.335.335v.67l1.006 1.676 1.34-.335 1.341-.336.335.336h.671v.335h.335l.335-.335.335.335v-.335h.335v-.336l1.341 1.006 2.346.335h.335l.336-.67.335-1.006.335-.335v-1.005l-.335-1.006v-2.345l-.671-.335h-.335v-.335l-.335-.335-.335.335h-.336v-.335l-.164-.165-.17-.171-.336.336v-2.011l.336-1.005.334-.671v-.335l-.334-.67 1.005-.67 1.006-.67v-.671l.335-.67.335-.335.67-.335.671-.335v-1.341l-.336-.67 1.676-.335h1.341l.335-.335v-.67l-.335-.67v-1.34l-.335-1.006-1.006-.335h-.335l-.335.335-1.006.335h-.67l-.335.671-.67.67-1.341.67-.67.335-.336.335h-1.341l-.67-1.005-.67-.67H260.3l-1.005-.335v-1.341l1.005-.67v-2.011l.336-.335.335-.335.67-.67.67-.67v-.671zm-47.595 3.351h-.67l-.67-.67v-.67l-.671.335h-1.675l-.336-.335-.335-.336-.335.671-1.005.67h-1.676l-.335-.335h-.336v-.335l-.335-.335-.67.67-.335.67h-.336l-.335-.335-1.005.67-.671.67.336 1.676h.67v.67l.67.335.335.67h-.67l-.335.67-.335 2.681.335 2.681 1.005-3.686.671-1.341 1.005-.335-.335 4.357-.67 4.691-.335.335-.106.163-.23-.163-.183-.335-.152-.67-.335.67-.335.67h1.005v.67l-.335.671h-.67l-.671 1.005-1.005 1.34-4.022 1.676-.335 1.005-.336 1.006-2.346 1.34-1.34.335-.336.335-1.005 1.006h-1.341l-.335.335h-.335v-1.341l-.324-.324-.682-.681-.335-.67v-.671l-2.346-2.011-.335.336h-.335l-.335-.671-.336-1.005-1.676-1.005-1.34-1.005-.335-1.006-.336-.67-1.34 1.341-1.341 1.005-.335-.335h-.335v1.675l-.335.335v.67l.335.335v.671l.335.335.67.335 2.346 1.34 2.011 1.006h.336l.335.335 1.341.335 1.005.335v2.011l2.011 2.345 3.017.67 2.681-.67.671-.335h.335l1.34.335 1.341.335h1.006l1.005.671.67.67h.671l.67.335v-1.341l.67-1.005h.671l.67-.67-.67-.335-1.005-.67.67-.671.67-.669-.335-1.006.335-.67h1.34l1.006.335.671-.67 1.005-.67h1.006l.67.335.335-.335.67-.67.671-.67.67-.336.67-.335.282-.563.389-.777h.335l.67.335.335-.67.671-.335 1.676-.335 1.675-1.341-.67-2.011-.67-1.34.67-.67 2.011-1.675 1.676-1.676.67-.335.671-.335h.67l.671-.335v-2.346l-1.676-1.34-1.006-.671v-1.34l-.335-.67v-.335l-.335-.671v-1.005l-.335-.335-.335-.335h-.336l.336-.335v-.67l.67-.67h.335l.335-.335-1.676-.336-1.675 2.011-1.677.67-1.34-.335-.671.335zm-56.644 5.362l-.67-.67-.671.335h-1.005l-1.006-1.005-1.005-1.006-.336.335v1.676l-.334 1.005-.336 1.341h1.006l.67.67-.335.335-.335.335.335.67-.335.671h-.335l-.671.67v.67l.336 1.005-.336.67.336.671.335 1.005-1.341 1.005-1.341.67-.67.671-.671.335v1.005l-.335.335v.335l.335 1.006 1.006.335.67-.335.671-.335 1.341.335h1.34v-1.676l1.006-.335 1.005-.335.335-1.005.671-.671.335-.335h.67l.671-1.34v-.335l.67-.335.67-.671v-.335l-.335-.335-.335-.335v-.335l-.335-.335.67-1.675-.67-2.011-.335-2.01-1.006-.336z" fill="#EBF2FA" stroke="#EBF2FA" stroke-width=".246"/><path d="M151.033 138.03h-2.346l-.335.335-.335-.335h-.336l-.67.671-.335.335h-.335l-.335-.335-.67.335h-.671l-.335.67v.335l.335 1.005v1.006l.335.335-.335.67-.335.67.335.67v.671l-.335.335-.335.67.67.67.068.704.603.301h.335v.67l.335.335.335.336.335.335v1.005l.335.67.67.335.336.335-.336.336-.334.67.334.335v.335l-.334.335.334.67v1.006l.671.67.335.335h.335l.336-.335.335.335.335.335h.67v1.005l1.341-.67 1.34-1.005-.335-1.006-.335-.67.335-.67-.335-1.005v-.671l.67-.67h.336l.335-.67-.335-.67.335-.335.335-.335-.67-.671h-1.006l.335-1.34.335-1.005v-1.676l.336-.335 1.005-1.005 1.006-.335v-.335l-.335-3.016-.336-.335-.335-.335.335-.671h.336l-.336-.335v-.335h-1.34l-1.006.67-.67-.335-.67-.335-.336.335z" fill="#EBF2FA" stroke="#EBF2FA" stroke-width=".246"/><path d="M127.571 129.318l-.67-.335-.671-.671-.335.671v.335l-.335.67v.67l-.67.335-.336.671.336.67v.67h-1.341l-.671.335-.67.67h-.67v.671l.335.335-.67.67-.336 1.675.336.671.335 1.005v.335l-.335.335-.336.67-.335 1.005h1.341l.335-.335.335-.335.335.335h1.006l-.671.671-.67.335 1.006 2.01 1.341 2.346.67-.67.335-.335.335.335v.335l.671-.335h.67l1.005.335h1.006l.335-.335 2.346-1.006 2.011-.67v.335l.335 1.006.336.335v.67h.335l.335.335-.335.335 1.34 2.011 1.006-1.006 1.676-1.005.335.67h.335v-.67h2.682l.335-.335 1.005-.67.336-.67.335-.336v-.67l-.335-.67.335-.67.335-.67-.335-.336v-1.005l-.335-1.005v-.335l.335-.67h-1.676l-.335-.335-.335 1.005-.671.335-.133-.133-.202-.202-.335-.335.335-.335.335-.335v-1.341l.335-.335-.335-.67h-1.005l-.335.335v.335l-.336-.335h-2.011l-.335-1.34-2.346-.335-1.676-2.681-2.333-1.309.313-.347-4.013-1.36z" fill="#EBF2FA" stroke="#EBF2FA" stroke-width=".246"/><path d="M141.313 147.078h-1.34v.67h-.336l-.335-.67-1.676 1.005-1.005 1.006-1.341-2.011.335-.335-.335-.335h-.335v-.67l-.335-.335-.335-1.005v-.336l-2.011.671-2.347 1.005-.335.335h-1.005l-1.006-.335h-.67l-.67.335v-.335l-.336-.335-.335.335-.67.67 2.346 12.064 1.341-.335v-.671h.67v-.335l.335-.335.671 1.676.67 1.34 1.341.335.67.335h1.341v-.335h1.005l.335-.335 1.341 1.005.67 1.341h1.006v-1.341l-.67-.67-.671-.67.671-.335.67.335.335-.335.67-.335h2.347l.335-.335.335-.335h.67l.335-.671.336-.67.335.335.335.335h1.005l.336.335.67-.67-.335-.67.335-.67 1.005-.335v-1.005l-.335-.671.335-.335v-.335l-.335-.335.335-.67.336-.335-.336-.335-.67-.335-.335-.671v-1.005l-.335-.335-.335-.335-.336-.335v-.671h-.335l-.602-.3-.068-.705-.67-.67-1.006.67-.335.335h-1.341zm-110.171-9.381l-.704-1.006-1.005-1.675-.537-.335-.235-.335-.603.335-.938.67-.47-.335-.502.335h.2l-.066.67h-1.14l.503.335-.167 1.006h.167l.067.335.034.335.469.335h.436l-.1.335-.034.335h1.14l.167.67-.1.67-.738.336-.838.335-.57 1.005-.335.67h-1.206l-.134.335-.37-.335h-.737l-.703.335-.403.335-.503.67.67 1.676.872 1.34.235 2.346.738 2.011h.804l.871-.335h1.14l.972-.671v-3.016l.335-3.016 1.91-1.675.839-.335-.134-.335h-.47l.134-1.005.134-1.006-.502-1.675 1.407-.67z" fill="#EBF2FA" stroke="#EBF2FA" stroke-width=".246"/><path d="M23.7 124.963l.202-.335-.1-.335h-.436l-.402.335-.068-.335.034-.335h-.335l-.235-.336-.57-.67-.67-.335-.168.67-.167.335-.604-.335-.502-.335-.436.671-.268 1.005.301 1.005-.2.67.268.335-.503.671-.536.335-.134-.335h-.168l.034 1.34.536.67.435 1.005h.47l.435.335-.134.336h-.77l-.57.335.134.335h.369l-.269.335-.402.67h.771l.872.335.167.335-.067.335.939.671h.737l.637.67.368.335h.168l-.268.335h-.335l.838.67.134 1.006.737-.335.503-.336.134.336.268.335h.603l.168-1.006-.503-.335h1.14l.067-.67h-.201l.502-.335.47.335.938-.67.604-.335-.269-1.676-.77-1.676-.47-.67-.2-.67.234-1.675-.402-.67-.503-.671-.268-.67-.302-1.005H23.7z" fill="#EBF2FA" stroke="#EBF2FA" stroke-width=".246"/><path d="M20.081 133.34l-.168-.335-.871-.335h-1.71l-1.307 1.005.905 1.341.47 1.675h.301l.302.335.77-.335.738-.335.268.335.201.335.37-.335h.334l.268.335h.403l.502-.335.403-1.005h.335l.268-.335h-.168l-.368-.335-.637-.671h-.738l-.938-.67.067-.335z" fill="#EBF2FA" stroke="#EBF2FA" stroke-width=".246"/><path d="M18.573 129.319l-.537-.67H17.5l.034.335-1.207.67-.536-.67-.537-1.005-1.14.67-1.105.67 1.173 2.346 1.844 2.01 1.307-1.005h.938l.402-.67.269-.335h-.37l-.133-.336.57-.335h.77l.134-.335-.435-.335h-.47l-.435-1.005z" fill="#EBF2FA" stroke="#EBF2FA" stroke-width=".246"/><path d="M20.383 117.254l-1.508-.67-1.04-.335.168-.335.436-.335-.134-.335.067-.335-.369-.335h-.47v.335l-.1.335H17.4l-.302-.335-.168-.336-.469-.335h-.435l-.202-.335-.234-.335v2.011l.1 1.675-.167-.335h-.168l-.034-.67v-.335l-.435.335-.47.335v-.335h.134l-.234-.335-.637.335-.604.335h-.736l-.436.335h-.536l-.905-.67-.57-1.005-.1.67.067.335-.57-.335h-.47l.403.67.335 1.34-.235.671.067.67.235.335h.402l.034 1.005-.034.671.704 2.01.2 2.346.068 2.68h1.106l.436.671.268.335h.235l1.072-.671 1.14-.67.536 1.006.536.67 1.207-.67-.034-.336h.537l-.034-1.34h.168l.134.335.536-.335.503-.67-.268-.335.2-.67-.3-1.006.267-1.005.436-.67.503.335.603.335.168-.335.167-.67.168-.335-.034-.67h.201l.168-.336h-.57l-.77-1.34.167-.335.134-.335-.134-.335-.067-.335h.235l.302-.335-.135-.671-.402-.335zm-4.659 4.357l.168 1.005.938 1.005.335 1.676-.402.335-.201.335-.168.335-.167.335h-.537l.135-.67.1-.67-.737.335-.436.67-.268.335h-.302l-.436 1.005-.67.335-.67-.67-.403-1.005.134-.335.336-.335h.268l.134.335-.067.335h.435l.336-.335-.1-.335-.068-.67.771-.671h.77l.101-1.005-.234-1.005h-.369l-.301.67h-.201l-.537-.67-.603-.671-.168-.335-.1-.335.268-.335.335.335.537.671 1.14.335.904-.335z" fill="#EBF2FA" stroke="#EBF2FA" stroke-width=".246"/><path d="M33.521 109.548h-.268l-.234.335-1.442.335-1.374-.335-.77-.67-1.073 1.005-1.408-.335-.235.335v.67h.268l.201.335h-1.44l-.101.335.1.335-.268.671-.235.335-.603.67-.872.335-1.072-.67-1.04-1.005H20.35l-.604-.336-.837.671-.905.67.57.335.3.335.973.335.737.335-.067.335h-.2l-.27.671-.2-.335h-.335l-.604-.336h-.536l-.067.336.134.335-.435.335-.168.335 1.04.335 1.508.67.402.335.134.67-.302.336h-.235l.067.335.134.335-.134.335-.167.335.77 1.34h.57l-.167.335h-.201l.033.671-.168.335.67.335.57.67 1.207-.335.905-.335 1.441 1.005 1.04 2.346.603.335.503-.335.167.335h.134l.369-.335.268-.671h1.71l.067-.335.067-.335.938-.67.47-1.005h-1.006l-.57-.335.201-.335-.2-.335-.235-.336H29.9l.168-.335v-.335h-.57l.335-2.01-.502-1.006-.335-.67.167-.335h.335l.402-.335.436-.335 1.106.335 1.207-.67-.067-1.006-.168-.67-.201-.335h-.134l.939-1.005.905-.67-.336-1.676-.067-1.34zm30.702 1.004l-.67-1.005-.335.67-.67 1.005h-.671l-.335.335-1.006-.67-.67-.67h-.67l-.67-.335h-.336l-.67.335h-1.006l-.67 1.675-.67 1.006v.335l.335.67v.67l.335.335.67.335v1.006h.335v1.005l.335.335.336 1.341.334 1.005 2.682-.335 1.006-1.005 1.34-.671.336-.335h.67l.67-.67.67-1.005.67-.335.671-.336.67-1.34 1.006-.335-.67-.67h-.335v-1.006l-.336-.335-.67-.67h-.67l-.67.335-.336-.335-.335-.335z" fill="#EBF2FA" stroke="#EBF2FA" stroke-width=".246"/><path d="M68.916 101.841l-.67.335-1.006-.67H65.9v.335h-1.006l-.67.335h-1.677v.335l-1.675.335v.335l.335.336-.335 1.005H59.53l-.335-.335h-.335l-.336.335v.67l1.341.335.335.67.67.671h1.676l.336.67v1.005l.67 1.005.67 1.006.67.67.671-.335h.67l.67.67.336.335v1.005h.335l.67.671.67 1.005h.336v.335l-.335.335v.67l.67.671.67-1.341.336-.67v-.335h.67l.335-.335.336-.67v-.671l-.336-.335.336-.335v-.335l.335.335 1.34-.335 1.34-.67-.334-.671-.67-.67h-.336l-.335-.67h1.006l1.005-.67-.67-.335-.335.335v-1.34h.335l-.67-.335-.67.335.334.335v.335l-.67.335-.335-.335h-.336v-.335h-1.005l-.67-.67-.336-.336h-.335l.67-.335h.336l-.335-.335-.67-.335-.336-1.005h.335v-.335h-.335v-.67l.335-1.006-1.005-.335z" fill="#EBF2FA" stroke="#EBF2FA" stroke-width=".246"/><path d="M67.91 98.488v-.334l-.67-.335-.336-.335h-.335l-.335.335-.313-.313-.358-.358h-1.005l-.335-.67-.335-.335-.335-.335-1.006-.67-1.005-.335-.335.335-.336.335-.335-.335h-.335l-.335.67.335.67h-.335l-.335.67.335.336-.335.67h1.005l.335.335 1.676.335.335 1.005v.335l.336.335v.671l.335 1.005h.67l.67-.335H65.9v-.335h1.34l1.006.67.67-.335.336-.335.335-.335-.335-.335v-1.34h-.336l-.335-.336.335-.67v-.335h-.67l-.335.334z" fill="#EBF2FA" stroke="#EBF2FA" stroke-width=".246"/><path d="M60.872 98.49l-.336-.336h-1.005l-.335.335-.67.335v1.006l.335.67h-1.006l-.67.335v.335h-.335v.335h.334l-.334 1.341.67 1.005 1.005.67.336-.335h.335l.335.335h1.34l.336-1.005-.335-.335v-.335l1.675-.335v-.335h1.006l-.335-1.006v-.67l-.335-.335v-.335l-.336-1.006-1.675-.335z" fill="#EBF2FA" stroke="#EBF2FA" stroke-width=".246"/><path d="M62.547 89.442l-.67.67h-1.34l-1.341-.67v.336h-.335l-.67.334-.336.67-.67.336-.67-.335-.671-.335-.67.67-.336.335-.335-.335h-.335v.67l-.335.335v.335h-1.676l-1.006.335-1.005.67-1.34.335v.67l-.336.335h.335l.67.336v.67l-.335.335.67.67.336.335h.67l.67.335.671 2.346.67 1.341.671-.336.67-.335v.335h.335l.67-.335 1.006-.335.335.335-.335.335.335.336h.67v-.336l.671-.335h1.006l-.336-.67v-1.005l.67-.335.336-.335.335-.67-.335-.336.335-.67h.336l-.336-.67.336-.67h.334l.336.335.335-.335.335-.335 1.005.335 1.006.67.335-.335.335-.335.335-.67.336-.335 1.34.67.67-.335.671-.335.335-.336-1.005-1.34-1.006-1.34-1.34-.335h-.671v-.67l-1.005-1.006-.336.335z" fill="#EBF2FA" stroke="#EBF2FA" stroke-width=".246"/><path d="M50.582 87.096h-1.106l.335-1.34-.335-1.006-1.34.335-1.006-1.005v-1.006l-.989 1.658-.668 2.017.329.329.34.669 1.008 1.008-.69 2.027 1.005 1.34 1.34 1.675 1.341-.335 1.006-.67 1.005-.335h1.676v-.335l.335-.335v-.67l-.67-.335-.67-.336v-1.005h-.336l-1.005-1.005-.335-.67-.336-.67h-.234z" fill="#EBF2FA" stroke="#EBF2FA" stroke-width=".246"/><path d="M41.448 79.043l-.34.329h-.329l-.7.34-.96.347-.548 1.33-1.296 1.35.6.329.292-.013.637 1.348 1.018.347.352 1.66-.34.34-.265.668.711 1.009h.5l-.014.34-.005.674v.335l.347.317h-.329l-.52.689.033.67h.469l.67-.335.336-.335.342.335h.328l.689-.355 1.992.02v-.335l.67.335h.67l.692-2.027-.67-.668-.34-.34-.339-.669-.329-.329.669-2.017.988-1.658V82.07l-.335-.67h-.335l-1.34-.67-.655.66-.351-.325-1.996-.683-.329-.67-.34-.668zm2.039 4.469l.244.456a.39.39 0 00.403.138l-.106.33.266.838-.138.552-.85.074-.552-.371-.552.297-.265-.435-.213.477-.785.043-.361-.457-.489.361-.16-.796.574-.18.18-.711.606.668.446-.424.934.413.128-.679.403-.212.287-.382z" fill="#EBF2FA" stroke="#EBF2FA" stroke-width=".246"/><path d="M38.168 83.055l-.293.013-.6-.328-2.58.67-.335-.335-.302-.335-.302.335h-.57l-.502-1.006-.704-.335-.302.335-.235.335h-.536l-.57.336.202 1.34.335 1.676-.536.67-.336.334.771 1.34 1.341.336 1.34.335.236-.335.167-.335.57-.335h.67l.134-.335h.1l.772.335.804.335.168.335h.268l.368-.335.1-.335h.873l.469-.335.416-.013.266-.669.34-.34-.352-1.66-1.018-.346-.637-1.348zm-8.099 18.115l.536-.335.067-.67-.301-.67-.302-.336-2.011-1.005-1.575-.67-.37-.335-.3-.67h-1.207l-.637-.67-1.207 2.01.436.335.67.67.168.67.235.671.033.335 1.106.335 1.073.67h-.135l-.235 1.341v1.005l.436.335.436-.335.402 1.34.805 1.341.235-.335.301-.335.335-.671.503-1.005h.335l.335-.335-.067-.67v-1.006h.47l.335-.67h-.47l-.435-.335zm195.708 31.165l-1.005-.335-.671.67.671.67-.335.335h-.336v1.006h-.335v.335l.335 2.345h.671v2.011h-.335l-.336-.335-.67.67-.335.335-.67-.335h-.336l-1.675.335v.671l-.336.335h.336l.335.335.335.335v1.005l.335.67v.335l.335.671v1.34l1.006.67 1.676 1.34v2.346l-.671.335h-.67l-.67.335-.671.335-1.676 1.676-2.011 1.675-.335.336-.335.335.67 1.34.671 2.011-1.676 1.34-1.676.335-.67.335-.336.67-.67-.335h-.335l-.335.67-.335.671-.671.335-.67.335-.67.67-.671.67-.335.335-.67-.335h-1.006l-1.006.67-.67.671-.3-.1-.705-.235h-1.341l-.335.67.335 1.005-.234.233-.437.437-.67.671 1.006.67.67.335-.67.67h-.671l-.67 1.005v1.341l.67.67 1.341 1.34 2.346.335 2.346.335h.335l.336-.335.335.335h.67l.67-.335 1.006-.67 2.346-.67 2.347-.67.67-1.341 2.346-2.01 1.676.335 1.341.67h1.34l2.011-.335 1.676 1.005 2.346.335.671-1.005 1.005-1.005 1.006-.67.67-.671v-.67h-.335v-.335l.671-2.681.67-3.016 1.005-1.34.671-1.34-.335-.335-.336-.336v-.67l-.335-.335-1.005.335-.335-1.005.335-.67 1.005-1.006v-.335l.335-.335 1.341-.67 1.676-1.005-.67-1.006-1.006-1.005.335-.67v-1.005l.335-.336.336-.335-1.006-.67h-.335l-.335-.335.67-1.676-.67-1.675-.671.335h-.335l-.335-1.005-.67-1.006-1.006.335-.67.336v.335h-.336l-.67-.671v-.67h.335l.335-.335-.67-.335-.67-.335-.335-.335v-.67h-.336v-1.341l-1.005-1.34-.335-1.34h-.335l-.336.335-.67-1.341v-2.01l-1.341.335-.67-.335zm65.024 31.498h-1.005l-.671-.335v-.67l.336-.67-.336-.67-.67-.671-.335-.335-1.341.67-.67 1.006h-.67v.335l.334.335.336.335v.335l.335.335h1.34l-.67 2.011-1.341.67v1.341l-1.34 1.005-1.676.67-.335-.335-.335-.335-.336.335-.334.335v-.67l-.336-.335-.335.335-.335-.335h-.335l-.671 1.005-.335 1.005v.67l-.67.671v3.686l-.335.67.335.67-.335.335-.336.67.336 1.006-.671.67h-2.681l-1.006.335-.335 1.34-.67.335-.335.335.335.671.335.67 1.006 2.011.335 2.01.335.335v.335l-.335 2.346-1.006.335-.335.67h.335l.335.335.336.67.335.671.335-.671v-.335l-.335-.335-.335-.335h1.675v-.67l.336-1.34.67-1.006-.335-.335.335-.335h.335v1.005l.335-.335.335-.335.336-.335v-.335l.335 1.005v.67h.335v-.335h.335l.335.335.335-.335.671.335.335.336v-.671l.335.335.67-.335.671-.67 2.011-2.01 1.34-2.346.336-.335v-.67h.335v-1.341l.335-1.005v-.67l.67-.671.335-1.675.671-2.01.67-2.011.671-1.675.335-1.676.335-2.011v-1.675l.335-1.341v-1.005zm42.586-67.108l.889-.297.789.495 1.729-.198-.592-.593-.742.247-1.137-.395.15-.494-.939.642-.147.593zm4.464-1.797l.872.018.296-.192.888-.08-.073-.172-2.076.197.093.229zm-15.542-8.837h-.672v4.021h.334v-1.005l.338-.67v-.67l.334-.336.334-.67-.668-.67zm1.34-21.111l-.337.335v1.005h-.669l-.334.335-.338.335-1.006-.335-1.34-.335h-1.34l-1.34.335-.335-2.01-.336-1.676h-1.675l-.336-.335h-.67l-1.005.335-1.006.335-.335-.335h-.671l-.67.335-.335.335-.671.67-.67.336h-.335l-1.341.67v.335h-1.005l-.671.335-.335.335-.67.67.335.67.335.335.671 1.34v1.341l.67 1.005 1.005 1.006v.67l.336.67v.335l.335.67.67.67 1.341.67v1.342l.335.335h.335v1.006l.335.335.336.67h.335l.335-.335v-.335l.335.335h.67V78.72h-1.005l-.67-1.34v-.67l-.336-.336-.335-1.005 1.006-.67.335-1.006h1.676l-.671.67-.335 1.34.671 1.006.67 1.005v.67l.335.67h.67l.336 1.006v.67l.335.335.335.336-.335.67-.671.67v1.005l-.335.335-.335.67v1.006l.335.335-.335 2.01v1.676l-.335.335v.335l-.335 1.34v1.341l.335.335.335.335v.335l-.335.335v2.01l-.335 1.341-.335 1.34-.336.67-.335.336v1.005l-.67.335-.67.335.67.335.67 1.006v2.01l-.335 1.676.67 2.011 1.006 2.01 4.692 6.367 6.033 6.032 1.006 1.675 1.34 1.34 1.006.671.334-1.676v-1.675l.338-.335.334-1.006-.334-3.015-.672-.671h-.334v-.67l-.335-.67h-.337l-.334-.335.334-.335.672.335 1.006-2.346.668-.335h.338v-.335l-1.678-1.341-.669-2.01v-1.676l1.003-1.675h.338l.334.335.672-1.34v-1.006l-1.006-.67-1.006-.67-1.006-2.346.334-2.346v-.335l-.334-.335.334-.67.337.335v1.005h.669l.334-1.005-1.674-1.34v-.335l-.335.335-.337.335-1.003-1.005-.672-1.006v-1.005l-.334-1.005h-1.678l-.334.335.334.335-.668.335-.672-.335-1.006-3.016v-2.01l-.334-.336h.334v-.335h-.334v-1.005l-.334-.335h-.338l-.334-1.676.672-1.34.334-.335-.334-.335h1.006l.668.335.334-1.005-.668-.335v-.336l.668-1.34.338-1.34.334.335 1.34 2.01v-2.345l.335-1.676 1.006-2.01 1.34-.67 1.678-.671 1.34.67h1.006l-.334-1.005-.672-1.005.334-.67.338-1.006v-1.675l.334-.335-.334-.67h-.338l.338-.336h.334l-.334-.335-.338-.335h.338l.334-1.005-.334-.335h-.338l.338-.335.334-.335V64.31h-.334v-.67h.334l.334-.67v-.67l.334-.335-.334-.336v-.335h-.668l-.672.335-.672-.67-.334-.335-3.352 4.021-.669.336z" fill="#EBF2FA" stroke="#EBF2FA" stroke-width=".246"/><path d="M295.829 69h-.335l-.671.336h-1.005l-.335-1.34-.671-.336h-1.005v.67l-.67.336-.336 1.005-.335.67h-.335l-.67-.335-.335.335-.336.335-1.005.335-1.341.335v.67h-1.005v.67l.335.67-.335.671-.335.67v1.006l.67.335-.67 1.005v1.676l.67.67.67.335-.335.67v.335h.335v.67h-.67l-.335 1.005-.335.67-.336.336-.67.335v.335l-.335.67-1.006-.335-1.34-.67-.336.67-.67.67h-.67l-.671.335.671 1.006-.335 1.005-.336.335-.335-.335-.335.335-.335.335-.67.335h-.671l-.335 1.006-.335 1.34.335 3.016 1.005.67.671.67v.335l-.335.67.335.336v.67l-.335.67v1.34l1.675-.335 1.341-.335 2.011 1.34 1.006 2.011h-.336v.67l.169.338.167.332-1.006.336v1.34l1.006.335h1.341l1.34.67 1.006 1.006v1.005l1.005-.335h.335l.671-.67.67-.671h.67l1.006-.335-.335-.335h-.335v-.67h.335v-1.34l1.005-.335 1.006-.336h1.006v.336h.67v-.671l1.005-.67.671.335.67.335.67-.335h.336v.335h-.336l-.67.67-.67.335.335 1.006h.335l.67-.335.671-1.006.335-.335h.67l.671-.335v-1.005l.335-.67 1.005-.335h.671l.335-.335v-.67h1.005l-.335-.336h.335l.335-.335-.335-.67-.67-.335-.67.335-.336.335v.335l-.335.335h-.335v-1.34h-.335l-.335-.335v-.335l.335-.335h-.335v-2.01l.67-1.341.335-1.676-.335-.335v-1.34l.335-.67-.335-.67-.335-.67.67-1.341.335-1.005h.671l.335-.336 1.341-2.01h1.005l.671.335.335-1.005v-.67l.67.67.335.67v1.34l.335.335.336.335v.336l.335.335.335-.335.335-.336.335.67.335 1.006.671-3.351.67-3.686h-.335l-.335-.67-.335-.335v-1.006h-.336l-.335-.335v-1.34l-1.34-.67-.671-.67-.335-.67v-.336l-.335-.67v-.67l-1.006-1.006-.67-1.005v-1.34l-.67-1.34-.336-.336-1.005.67-.67.67h-1.676l-1.006-.334-1.005.67h-1.341L296.5 69h-.671z" fill="#EBF2FA" stroke="#EBF2FA" stroke-width=".246"/><path d="M205.332 55.931h-.67v1.006h-.336l.336.67 1.005.67.67-.335.336-.67-1.341-1.34zm34.858-4.355l-.67-1.006-1.006-.335.671.67 1.005.67zm-3.352-7.708v-1.34l-.335-.335-.67.335.67 1.005v.67l.335-.335zm8.38 3.351l.335 1.34.335.336h.67v-1.34l-1.34-.336zm5.698 4.021l.67-1.34v-.335l-.335-.335-1.676-1.006h-1.676l-.67 1.006v1.34l-.335.67-.336.335-.335.335h.671l.67-.334.67-.336h1.006l1.676-.335v.335zm-2.347-12.733l.336-.335-1.676-.335-1.341-.336-.335.336-.671.334-1.34-.67-1.006-.335v.335l.335.335h-.335l-.335.336v.335l.335.67v.335l.335.335-1.005-.335-1.006-.335-.67-.335h-.335l-.335-.335v-.335l-.335.335-.336.67-.335.67-.335.335-.335.335.335.335v1.006l-.335.67h.335l.335.335v.67l.335.67.671.67 1.005.335.335.67.336.336h1.675v-2.01l.336.334.335.335.335-.335.335-.335 1.341-1.005h1.341l.335-.335.335-.335.335-.335-.671-.335h-.67l-1.341-1.006-.67-1.34 1.006-1.005v.335l2.011 2.68 1.005-1.34-.335-1.34.335-.335zm8.045-2.01l-.335.334-1.006-.335-1.005.335v.335l-.336.335-.67-.335v-.335h-1.006l-.67.335v.67l-.335.335-.67-.67v-.335l-.336.67.336 1.34 1.34.336 1.676.335 2.011-.67 1.341-1.34v-.67l-.335-.67zm22.121 12.063l-5.363 3.35-1.676 2.011-1.34.67-1.341-.67-1.341-.67h-1.676l-1.34-.335v.335l-.335.335h-.671l-.335-.335.335-.67.671-.335-.671-.67-1.005-.67-1.341.334-1.005.335-1.341 2.681-1.341 2.346h-.335v-.67l-.335-.336.67-.334.335-.336-.335-.335v-.67l.671-.335.335-.67-.671.335-1.675 1.005-.336.335-.335.335-.335-.67 1.006-1.005h.335l1.005-.67 1.006-.335-3.687.335-3.687 1.34h-1.676l-.67.335.335.335.67.335-.335 1.005-1.005.336-.671 1.675.335.335.671-.335v.67l.335.335.335.67v.67l.67.336v.67h-.67v.67l-.335-.335-.335-.335h-.335l-.336.335h-.67v2.011l-1.341-.67-2.346-.335-1.006 1.34-1.34 1.006-1.341-.336-1.005-.67-.336-.67.671-.335-.671-.335-.335 3.016-.335 3.685-.335.336-.335-.336-.335-.334v.334h-.671l-.335-.334v-.336h-1.005l-.671-1.005-.67-1.005h-.335l-.335-.335.335-.335.335-.335-.335-.67-.671-.336.336.335v.335l-.336.336-.67-.67-.335-.67-1.676-1.006-.67-.335h1.005l.67.67.671.67h1.005l.671-.67-.335-1.005-.671-.67v-1.34l-.335-.671v-.335l-.67-.67h-.671l-2.011-1.676-.67.335-.67.335h-1.676l-1.006-.67-1.34-.335v.335l-.336.335-.67 1.676.335 1.34v1.34l-.67-.335h-1.006v.336h-.67l-.671.335-.335.335-1.005-.335-.671-.335h-2.01l-.671-.336v-.67l.671-.67-.336-.335h-2.681l-.67-.335-.335.335h-.336l-.67-.335h-.67l-.335.335-.336.335-.67.335-1.005.335v1.006l-.671-.67.335-.671-.335-1.005-.67-.67v1.005l-.335.335h-1.006l-1.006-.67-.335.335-.335 1.005-.67.67.335.335h.335v1.006l.335.335-.335 1.34.335 1.34.335.336v1.005l.336.335.67.335.67.67.335 1.34v1.341l.671 1.34.335 1.006v.335l-1.341 1.005-1.34 1.005-.336 1.006v.67l-.335.335-.67.335v1.34l-.67 1.006h-.671l-1.006-.335-1.005.335-.67.67h-.671l-.67-.335v.335h-.335l-.335.67v.335l.335 1.34.67 1.006v4.691l-.335 3.686-1.006.67-.67.671.335.335.335.335v2.346l.336.67v1.675l.335.671.67.67.67.67-.335.67-.335.335-.67 1.006v1.005l-.671 1.005.671 1.341h.67l.335.335.335.335 1.341.335h2.346l.336.67.335 1.005-.335.335-.671 1.006 1.006.335 1.005 1.005.326 2.282.009 1.739.671.671.67 1.005-.335.67-.67.67.335 1.676 1.005 1.005-.67 1.675-.67 2.011v1.005l-.336.335-.335.335v1.676l.335 1.34h.671l1.676-.335.335-.67 1.005.335h.335v-.335h2.011l.336-.335.67-.67v.335l.335.67.67.335-.335 1.006 1.676-1.676 1.341-2.011h.671l.335-.67.335-1.005.67-.335h.671l1.005-1.006h1.341l1.005.335.67.671.671.335v.67l.335.335v.67h3.351l.336.671v.67l.335.67v1.005l.335.671.335.335v.335l.336.67v2.011l.67 1.34.335-.335h.335l.335 1.34 1.006 1.34 1.341-.67 1.34-.335.671.335.67.335.67.335h1.341l.671.336.334.335h2.012l1.676.335.67.67.67.67 1.676.335 1.006-.335h1.005l.671.335h.67l1.005-.67.671-.335h.335l.67.335v-.335l.335-.67h1.341v-.335l1.006.335 1.005.335.335-.335v-.335l.671-.67.67-.335v-.335l.335-.336h1.006l.67-.67.335-1.675v-1.341l.671-.335.335-.335v-.67l-.335-.67-.671-.335-.335-.335h-.67l.335-.67.67-.336v-1.005l.336-.335.334-.335-1.005-.67-.67-1.006h1.005l-.335-1.34.335-1.005.335-2.011.335-.67.671-.67h.67l1.676-.671 1.676-.67.335-.335v-.67l.335-.67.381.19.29.145h.335l.67-.335 1.676-1.005.335-1.341v-.335l.335-.335.671.67.335-.335-.335-1.005-.67-.671-.336-1.34-.335-1.675-.67-1.006.335-1.34v-.335l.335-.335v-.335l.335-.336v-.67l.67-.335.336-.335v-2.01l.335-2.011h1.34l1.676.67h.671l.335-.335.335.335.335.335.671-1.005.67-.67h.335l.335.335.336-.335.335-.335.335.335.67.67.335-1.005v-2.346l.336-.67v-.67l-.336-.335.336-.67v-.336l-.671-.67-1.005-.67-.335-3.016.335-1.34.335-1.006h.67l.671-.335.335-.335.335-.335.335.335.335-.335.335-1.005-.67-1.006.67-.335h.671l.67-.67.335-.67 1.341.67 1.006.335.335-.67v-.335l.67-.335.335-.335.335-.67.671-1.006h.335v-.67h-.335v-.335l.335-.67-.335-.336-1.006-.67v-1.675l.671-1.005-.671-.335v-1.006l.335-.67.336-.67-.336-.67v-.67h1.006v-.67l1.341-.336 1.005-.335.335-.335.335-.335.671.335h.335l.335-.67.335-1.006.671-.335v-.67l-.671-1.005-.67-1.34.335-.335v-.336l-2.011-.67-2.011-1.34v-.67l.335-.67-.335-.336-.335-.335 1.675-2.346 2.347-2.68.335-.336.67-.335-.335-.67-.67-1.005v-.67l-.671-.335h-.335l-.335-.67-.335-.336h-.335l-.336-.335-.334-.67-.336.67v.67h-.335v-.335h-.335v1.676l-.335-.67-.67-.67-1.006.334h-1.341l-.335-1.005-.67-1.34-3.687-1.005zm-32.847 14.074l.67.335.671-.335v-.335l-.335-.335-.671.335-.335.335z" fill="#EBF2FA"/><path d="M231.811 64.31l.335.67.67.67.336-.336v-.334l-.336-.336.671.335.335.67-.335.336-.335.335.335.335h.335l.67 1.005.671 1.005h1.005V69l.335.335h.671V69l.335.335.335.336.335-.336.335-3.685.335-3.016.671.335-.671.335.336.67 1.005.67 1.341.335 1.34-1.005 1.006-1.34 2.346.335 1.341.67v-2.01h.67l.336-.336h.335l.335.335.335.336v-.67h.67v-.67l-.67-.336v-.67l-.335-.67-.335-.336v-.67l-.671.335-.335-.335.671-1.675 1.005-.336.335-1.005-.67-.335-.335-.335.67-.335h1.676l3.687-1.34 3.687-.335-1.006.335-1.005.67h-.335l-1.006 1.005.335.67.335-.335.336-.335 1.675-1.005.671-.335-.335.67-.671.335v.67l.335.335-.335.335-.67.335.335.336v.67h.335l1.341-2.346 1.341-2.68 1.005-.336 1.341-.335 1.005.67.671.67-.671.336-.335.67.335.335h.671l.335-.335v-.335l1.34.335h1.676l1.341.67 1.341.67 1.34-.67 1.676-2.01 5.363-3.351 3.687 1.005.67 1.34.335 1.005h1.341l1.006-.334.67.67.335.67V51.24h.335v.334h.335v-.67l.336-.67.334.67.336.335h.335l.335.335.335.67h.335l.671.336v.67l.67 1.005.335.67-.67.335-.335.335-2.347 2.681-1.675 2.346.335.335.335.335-.335.67v.67l2.011 1.341 2.011.67v.335l-.335.335.67 1.34.671 1.006v.67l-.671.335-.335 1.006-.335.67h-.335l-.671-.335-.335.335-.335.335-1.005.335-1.341.335v.67h-1.006v.67l.336.67-.336.671-.335.67v1.006l.671.335-.671 1.005v1.675l1.006.67.335.336-.335.67v.335h.335v.67h-.335l-.671 1.005-.335.67-.335.336-.67.335v.335l-.335.67-1.006-.335-1.341-.67-.335.67-.67.67h-.671l-.67.335.67 1.006-.335 1.005-.335.335-.335-.335-.335.335-.335.335-.671.335h-.67l-.335 1.006-.335 1.34.335 3.016 1.005.67.671.67v.335l-.336.67.336.336v.67l-.336.67v2.346l-.335 1.005-.67-.67-.335-.335-.335.335-.336.335-.335-.335h-.335l-.67.67-.671 1.005-.335-.335-.335-.335-.335.335h-.671l-1.676-.67h-1.34l-.335 2.011v2.01l-.336.335-.67.335v.67l-.335.336v.335l-.335.335v.335l-.335 1.34.67 1.006.335 1.675.336 1.34.67.671.335 1.005-.335.335-.671-.67-.335.335v.335l-.335 1.341-1.676 1.005-.67.335h-.335l-.29-.145-.381-.19-.335.67v.67l-.335.335-1.676.67-1.676.671h-.67l-.671.67-.335.67-.335 2.011-.335 1.005.335 1.34h-1.005l.67 1.006 1.005.67-.334.335-.336.335v1.005l-.67.336-.335.67h.67l.335.335.671.335.335.67v.67l-.335.335-.671.335v1.341l-.335 1.675-.67.67h-1.006l-.335.336v.335l-.67.335-.671.67v.335l-.335.335-1.005-.335-1.006-.335v.335h-1.341l-.335.67v.335l-.67-.335h-.335l-.671.335-1.005.67h-.67l-.671-.335h-1.005l-1.006.335-1.676-.335-.67-.67-.67-.67-1.676-.335h-2.012l-.334-.335-.671-.336h-1.341l-.67-.335-.67-.335-.671-.335-1.34.335-1.341.67-1.006-1.34-.335-1.34h-.335l-.335.335-.67-1.34v-2.011l-.336-.67v-.335l-.335-.335-.335-.671v-1.005l-.335-.67v-.67l-.336-.671h-3.351v-.67l-.335-.335v-.67l-.671-.335-.67-.671-1.005-.335h-1.341l-1.005 1.006h-.671l-.67.335-.335 1.005-.335.67h-.671l-1.341 2.011-1.676 1.676.335-1.006-.67-.335-.335-.67v-.335l-.67.67-.336.335h-2.011v.335h-.335l-1.005-.335-.335.67-1.676.335h-.671l-.335-1.34v-1.676l.335-.335.336-.335v-1.005l.67-2.011.67-1.675-1.005-1.005-.335-1.676.67-.67.335-.67-.67-1.005-.671-.671-.009-1.739-.326-2.282-1.005-1.005-1.006-.335.671-1.006.335-.335-.335-1.005-.336-.67h-2.346l-1.341-.335-.335-.335-.335-.335h-.67l-.671-1.341.671-1.005v-1.005l.67-1.006.335-.335.335-.67-.67-.67-.67-.67-.335-.67v-1.676l-.336-.67v-2.346l-.335-.335-.335-.335.67-.67 1.006-.67.335-3.687v-4.69l-.67-1.005-.335-1.34v-.336l.335-.67h.335v-.335l.67.335h.671l.67-.67 1.005-.335 1.006.335h.671l.67-1.005v-1.34l.67-.336.335-.335v-.67l.336-1.006 1.34-1.005 1.341-1.005v-.335l-.335-1.006-.671-1.34v-1.34l-.335-1.34-.67-.671-.67-.335-.336-.335V66.32l-.335-.335-.335-1.34.335-1.341-.335-.335v-1.006h-.335l-.335-.335.67-.67.335-1.005.335-.335 1.006.67h1.006l.335-.335v-1.006l.67.67.335 1.006-.335.67.671.67v-1.005l1.005-.335.67-.335.336-.335.335-.335h.67l.67.335h.336l.335-.335.67.335h2.681l.336.335-.671.67v.67l.671.336h2.01l.671.335 1.005.335.335-.335.671-.335h.67v-.336h1.006l.67.336v-1.341l-.335-1.34.67-1.676.336-.335v-.335l1.34.335 1.006.67h1.676l.67-.335.67-.335 2.011 1.675h.671l.67.67v.336l.335.67v1.34l.671.67.335 1.006-.671.67h-1.005zm0 0l-1.676-1.006-.67-.335h1.005l.67.67.671.67zm-26.479-8.379h-.67v1.006h-.336l.336.67 1.005.67.67-.335.336-.67-1.341-1.34zm34.858-4.355l-.67-1.006-1.006-.335.671.67 1.005.67zm-3.352-7.708v-1.34l-.335-.335-.67.335.67 1.005v.67l.335-.335zm8.38 3.351l.335 1.34.335.336h.67v-1.34l-1.34-.336zm5.698 4.021l.67-1.34v-.335l-.335-.335-1.676-1.006h-1.676l-.67 1.006v1.34l-.335.67-.336.335-.335.335h.671l.67-.334.67-.336h1.006l1.676-.335v.335zm-2.347-12.733l.336-.335-1.676-.335-1.341-.336-.335.336-.671.334-1.34-.67-1.006-.335v.335l.335.335h-.335l-.335.336v.335l.335.67v.335l.335.335-1.005-.335-1.006-.335-.67-.335h-.335l-.335-.335v-.335l-.335.335-.336.67-.335.67-.335.335-.335.335.335.335v1.006l-.335.67h.335l.335.335v.67l.335.67.671.67 1.005.335.335.67.336.336h1.675v-2.01l.336.334.335.335.335-.335.335-.335 1.341-1.005h1.341l.335-.335.335-.335.335-.335-.671-.335h-.67l-1.341-1.006-.67-1.34 1.006-1.005v.335l2.011 2.68 1.005-1.34-.335-1.34.335-.335zm8.045-2.01l-.335.334-1.006-.335-1.005.335v.335l-.336.335-.67-.335v-.335h-1.006l-.67.335v.67l-.335.335-.67-.67v-.335l-.336.67.336 1.34 1.34.336 1.676.335 2.011-.67 1.341-1.34v-.67l-.335-.67zm-10.726 26.137l.67.335.671-.335v-.335l-.335-.335-.671.335-.335.335z" stroke="#EBF2FA" stroke-width=".246"/><path d="M154.05 59.283l.335.67h1.006v-2.01l-1.341 1.34zm8.044-11.394h.335v.335l.335.335.336-1.34-.336-.335v.335l-.67.67zm2.011-25.233v-.301l-.335-.235-1.006-.436.671.537v.469l.67-.034zm5.698-7.673l-1.005-.268-.671.301.335.335h.336l.67.201.335-.57zm34.188 29.555l.335.336v.334l.67.336-.335-1.005-.335-.336-.335.335zm-21.786-2.68h1.005l.67-1.006h-.67l-.335.335-.335.335-.335.336zm-.336-16.789l.336-.972-.671-.67-1.005-.335-.335-.168-.671.403v.87l.671.269.335.268v.67l1.34-.335zm7.374.503l-1.005-1.776-1.006.737-.67 1.106-.335.402-.335.2.335-.435.335-.368v-.168l-.335.168-.671.268-.335-.067 1.341-.77.335-1.274-1.005-.369-1.341.134-.335.067v.168h-.336l-.335.134-.67.603.335.402v.402l-.335.067-.335.034-.335.402-.336.503-.335.134v.502l.335.1v-.535l.336-.1v.837l.335-.034.335.134-.335.637v.67l.335.201v.738l.335.368h.336l.335-.335v.67h1.005l.671.67.67.67 1.341.336 1.34-1.006-.335-.67v-.67l-.335-.637v-.033l.335-.034.335-1.575.335-1.608zm7.374 9.248h-.335v.336l-.335.335h.335l.335-.67zm.335 1.34h.671l.335-.334-.335-.335h-.671l-.335.335v.335h.335zm-5.698-6.869v-.804l-.335.134-.335.335-.335.838v.67l.335.335h-.335l-.335.335v1.006h-.335v-.335l-.336.67-.335.67v1.005l-.67 1.006-.335 1.005.67.67 1.005-.67.671-.67h1.341l2.011-.67 1.005-.336.336-1.005v-1.005l-.336-.67h-.335v.335h-.335v-1.005l-.335-.336-.335-.335v-.67l-.671.67-.67 1.006v.335h-.335v-.335l1.005-2.782-.67-.368-.335-.034v.603l-.336.402zm14.078 17.593v.335l-.336-.67v-.67l-.335-.335h-.67l-.671-1.005-.67-1.006-.335.335-.335-.335h-.335v.335h-1.676l-.671.335-.335-.335h-.335l-.335.335-.671 1.34h-1.005l.671-1.675v-1.34h-2.011l.335-.335v-.335l-1.006.335-.67-.335.67-.335.671-.67.335-.336h.335l.335-.335-.67-.67-1.006-.335-.335-.335v-.335h-.67l-.67.335h-.336l-2.011 2.346-1.341 2.345.336.335v1.005l-2.011.67-.336-.334h-.67v.335l.67 1.005.336.67h-.671l-.335-.67-.67.335h-.335v.335l-.336.335h-.335v.335h-1.006l-.334.335h-.336v-.335l-.335-.335-.67.335-.336.335.336-.67.335-.335-2.011-.67-2.011.335-.335.335.67.335h.671v.335l-.671.335h-.67l-1.341.335-1.006.336h-2.011l-.67.334-1.341.67-.67.67h-2.011l.335.336.67.335-.335.335-.67.335-.335.67v.67l-.671-.67-1.005-.335v.336l1.005 1.005.671.67-.335.335-.336-.335-.335-.335-.335.335h-.67l.67.67 1.006 1.006-.336.335v2.01h-.335l-.67.335h-.335l.335-.335.335-.335.335-.335v-.335l-1.34-.335-1.006.335h-1.676l-2.011-.335-2.011-.335h-1.006l-.67-.335v.335l-.335.67-.335.335.335.335v.336h-.335v.67l.335.335-.335 1.005-.335.67v.67l-.335.335 1.005 1.006 1.006.67v2.01l1.005.67.335 1.341-.67 1.006-.671 1.005.336.67-.336 3.016-.67.335-.67.335 1.005 2.346.335 1.34h-.335v-.335l-.67-.335-.335-.335v-1.34l-.335-.67-.336-.336 1.341-3.35-.335-.671-.67-.335.335-.335v-.67l1.005-.67 1.006-1.34-1.006-.671-1.676-.335-.335-1.005-.335-1.006-1.005-1.34-1.006-1.006h-1.005l.335.67.335.67.67.671.671.67v1.006l-.671.67h-1.005v1.34l.67.67.67.67v1.676l-.335 1.676h-.67l-.67-.336-.671.67-1.34 1.006h-.336v.335l-.67.335v1.006l.335.67.335 1.005 1.006.67.67.67h1.006l.67-.67.335.335v.336l.335.335.335.335-.67 4.02-.67 1.676-1.341.67v1.34l.534.398-.308.534-.561.409v.335l.335.335.335 1.005.336 1.676-.336 1.34v2.346l.336 1.005 1.005.335v2.346l-.335.67h-.335l.335 1.006h.67l.335.67.671.335.67-.335.335 1.005-.335 2.011-1.341 2.01h-.67l-.335.335v.671l.335.335.67.335-.335.67-.335.335v.335l-.335.671-1.006 1.34-1.675 1.34.335 2.346 1.34.67.671.67-2.346 1.341-2.682.67v4.356l1.297.649 1.385-.314 1.34.335 1.006.336.67.335v.335l.335.335h.335l.671.67v1.005l.335.67 1.005.335.671 1.006-.671.335-1.005.67-.335 1.005v1.006l1.34 1.34.671 1.676v.335h-.335v.67l-.336.335h-.67l-.671 1.34-.215.646-.12.36v.335l.335.335h-.335l-.335.67.335.335.335.335.336 3.016v.335l-1.006.335-1.005 1.005 1.005 1.006 1.006 1.005h1.005l.671-.335.67.67 1.005.335.336 2.011.67 2.011-.67 1.675.335.335v.335l.335.335.335.335v.335l-.67.671-.67.335v.335l-.671 1.34h-.67l-.335.335-.671.671-.335 1.005.671.335.335.67 2.011.67 2.346.336 2.346-1.341 1.676-2.346.67-.335.671-.335.335-1.005.335-.67h1.006l.335-.336h.335v.336h.67l.335-.336 1.006.336 1.676-.671-.671-1.005-.67-1.005-.67-.335-.335-.335v-.67l1.005-.671 1.006-.335h.335v-1.005l.335-1.005v-.671l.335-.335.335-.335-.335-.67.335-1.006 1.341-1.34 1.005-.67h.336l.335-.335-.335-.335v-1.676l-.336-.67-.67-.335.67-1.675 1.006-1.676 1.006.335h1.006l.67.335h1.341l.335-1.34.335-.335h.67v.67l.671 2.011 1.34.67v-1.676h-.335l1.341-2.68 2.681-1.676v-.335l.335-.67 1.006-.67h.67l.335.335v1.005l.671.335h.335v.67h.67l.335.335.336.335h.335l.67-1.005v-.335l.67-.67.336-1.006-.671-1.005-.67-.67.335-.335.335-.335v-.335h1.006v-1.341l-.67-.67-1.006-.335-.67-2.681.335-1.675v-.335l.335-.335.734-.065 1.612-1.611 1.34-1.675v-.671l-.334-.335.334-.67.336-.335-.336-1.005-.335-.67.335-1.676.671-1.675v-.335l.67-.336.335.336.336.335.335-.335.335-.336.67-.335h.335v-1.34h-1.34l-1.341-.335-.335-.335-.335-.335h-.671l-.67-1.341.67-1.005v-1.005l.671-1.006.335-.335.335-.67-.67-.67-.671-.67-.335-.67v-1.676l-.335-.67v-2.346l-.335-.335-.335-.335.67-.67 1.005-.67.336-3.686V84.75l-.671-1.005-.335-1.34v-.335l.335-.67h.335v-.336l.671.336h.67l.671-.67 1.005-.336 1.006.335h.67l.67-1.005v-1.34l.671-.336.335-.335v-.67l.335-1.005 1.341-1.006 1.341-1.005v-.335l-.336-1.005-.67-1.34v-1.341l-.335-1.34-.671-.67-.67-.336-.335-.335V66.32l-.335-.335-.335-1.34.335-1.34-.335-.336v-1.006h-.336l-.335-.335.671-.67.335-1.005.335-.335v-.67l.335-.336-.67.335-.335.336-.671-.336-1.005.67v1.006h.67l1.006-.335v.335l-.336.335h-.335l-.67 1.005-.67.336-.336-.336-.335.67-.67.336v1.005l-.67-.335-.336-.335v.335h-2.346l-.335 1.005-1.005 1.006h-.336l.336-.67.67-.67v-.671l.335-.67 1.006-.335.335-1.006-.335-.335-.671-.335h-.335l2.011.335 1.341-1.34h.335l.335-.67.335-.67.671-.67.67-.67.335-1.006 2.011-1.34v-.336l.335-.335.671-1.005 1.005-1.005.335-1.676-.67-.335-.335-.67v.335l-.335.335V49.23h.335l.67.335v.67l.335-.67v-1.676h-.67v-1.005l-.67-.67v.67zm-24.468-25.5l-.335.066-.335.201.335.134.335.1.335.302.335.335-.335.034-.335-.034v.235l.335.067.335.034.335.368.336.201.67-.234.335-.302 2.682-.335.335-.168v-1.81l.67-.401.335-.402v-.369l-.335-.369v-.067l-.335-.167-.67-1.575-.336-1.24-.67-.034v.47l-1.676.938-1.341 1.072v.57l.336.134v.301l-.336.335v.37l-.335.368-.335.167-.335.168v.268l.335.235v.1h-.335v-.067zm-.67-5.63l-.336.435v.302h.336l.67.301.67-.838-1.34-.2zm2.681 30.46l-.67-.335.335.67.67.335v-.67h-.335zM70.256 121.946l.336-1.005h-.336l-.335-.335v-.335l-.335-.336-.335-.335v-2.01l.187-.562.148-.443-.67-.671v-.67l.335-.335v-.335h-.335l-.67-1.006-1.006.335-.67 1.341-.67.335-.671.335-.67 1.005-.67.671h-.671l-.335.335-1.341.67-1.006 1.005-2.681.335v.336l.67 1.005v.67l1.006.67h1.676v1.675l1.005.336.67.67.336.67v.67l.335 1.341.335 1.34-.335.335v.671l.67-.336.335-.67.336.335h.335v1.006l.67.67.335.67h1.006l.335-.335.335-.335 1.34.335 1.342.67.335.67v.335h.67l.67-.335.336.335.335.335h.67l.335 1.006-.335.67 1.676 2.346h1.005l.67-.671.336.671v.335l2.346 1.005 2.011-1.675-1.005-1.676-1.006-1.34h.335v-.335l-.335-.671v-.67h-.335l.67-1.005.67-.335-1.005-1.005-1.005-.335-.335.335h-.336v-.671l-.335-.335-.335.671h-.67l-.67 1.34-1.341-.335-.336-.335-.67-.335h-1.34l-.336-.335-.335-.671h-.335l.67-1.675-.335-.335-.335-.335.67-.67.67-1.006-1.005-.335-.67.67h-.335l-.67-2.01h.67v-.336l-.336-.67v-.67z" fill="#EBF2FA" stroke="#EBF2FA" stroke-width=".246"/><path d="M48.994 109.548h-.189l-.67-.335-1.005-.671v-.335l-.336-.335-.335-.335h-.67l-.335-.335-.336-.67-1.005-.335-.67-1.006-1.633.653-1.652.688.067 1.005-.47 1.34.202 1.341.804.67h1.006v.335l.335.335h.67v.67h.336l.335.336.335 1.005-.67 1.005-.671.335.335.335h.336v.335l.335.336.335-.336h.335l.335.336v.67l.67.335h.67l.336 1.005.67 1.34v.335l1.006 1.676v2.011l1.676-.671.335-1.005.335-1.005h.335v.335l.335.335h1.676l.335-.335.336-.67 2.68.67.671-.335.67-.335.336.335h.335v-.671l-.335-1.005-.335-1.34-.336-.335v-1.005h-.335v-1.006l-.67-.335-.335-.335v-.67l-.335-.67v-.671l-.336-.335-2.01-.335-1.006-1.34-.335-.335-.67-.335h-.671l-1.005.335v-.671l-.147.001z" fill="#EBF2FA" stroke="#EBF2FA" stroke-width=".246"/><path d="M41.767 111.222v-.335H40.76l-.804-.67-.201-1.34-.738-.336-.871-.335-.369-.335-.302-.67h-.435l-.503.335-.804-.335h-.838l-.034.67.1.671-.703.67-.738.335.068 1.34.334 1.676-.904.67-.939 1.005h.134l.201.335.168.67.067 1.005-1.207.671-1.106-.335-.436.335-.402.335h-.335l-.167.335.335.67.502 1.005-.335 2.011h.57v.335l-.168.335h.537l.234.335.201.335 1.643-.67 1.24.67.436-.67.235-.67.502.335v.67h1.006l.57-.335h.435l.269.335h.066l.068-.335.368.335h1.508l1.006.335.2.671.336.67.67-.335.335-.335h1.006v-.671l.335-1.005 1.34-1.005 1.677-.335.335-.335.335-.335v-.336l-.67-1.34-.336-1.005h-.67l-.67-.335v-.671l-.335-.335h-.335l-.335.335-.336-.335v-.335h-.335l-.335-.335.67-.335.67-1.005-.334-1.005-.335-.335h-.336v-.671h-.67l-.335-.335z" fill="#EBF2FA" stroke="#EBF2FA" stroke-width=".246"/><path d="M34.326 99.16v-.336l-.804-.335-.939-.335.067.335-.201.335v.335h-.503l-.436-.335-.368.67-.47.671-.067.67-.536.335.436.335h.47l-.336.67h-.47v1.006l.068.67-.335.335h-.336l-.502 1.005-.336.67-.301.336-.235.335.369 2.01.603.335.268.335.771.67 1.374.336 1.441-.336.235-.335h.268l.737-.335.704-.67-.1-.67.033-.67h.838l.805.335.503-.335h.435l.302.67.369.335.871.335.737.335.47-1.34-.067-1.005-.436-.335.067-.336h-.502l-.336-.67-.368-.67-.704-.335-.603-.335.1-.335.168-.671-.336-.335-.268-.335-.904-1.005-.839-.67.1-.335-.3-.67h-.403l-.302-.336h.034zm3.62-21.11l-1.274-.336-1.776-.335-1.308-1.676-1.407-1.675-.47-.67h-.703l-.436.334-.738.67-1.005 1.006h-.637l-.033.67.067.335h.1l.034.336h-.302l-.335.335-.302.67-.134 1.005.134.67-.033.336-.335.335-.403.335.202.335.368.335.1 1.005-.334.335.067.67-.134.335h.737l.335-.335h1.173l1.173-.335.57-.335h.536l.235-.335.302-.335.704.335.502 1.005h.57l.301-.335.302.335.335.335 2.581-.67 1.296-1.35.548-1.33-.436-.335-.503-.67-.134-.336-.1-.67z" fill="#EBF2FA" stroke="#EBF2FA" stroke-width=".246"/><path d="M44.783 71.347l-1.005-.67-.336.334-.335.335-1.005.336-1.006.335h-.335l-.335-.335-.302-.336-1.843-.335-1.877-.67-.47-.335-.435-.67-.537.335-.469.335h.034l.167.335-.301.335-.302.335v.67l-.201 1.006-1.71 1.34 1.408 1.676 1.308 1.675 1.776.335 1.274.336.1.67.134.335.503.67.435.335.939-.335.722-.352h.33l.34-.329.668 1.338 1.996.683.35.325.655-.66.67.335.671.336h.335l.335.67v.67l1.006-1.34 1.006-.336-.336-.335v-1.675l.336-.67v-.67h.67l.405-.406.265-.265-.335-.335.67-.335h.67l.336-2.01-1.341-.335h-1.006l-.67-.335h-.335l-.335-.67-.67-.336h-.336l-.335.335-.67-.335-.335-.335h-.336l-.67-1.005zm44.243 21.11l-.67-.67-.67-1.006-.67.336-.608-.405-.398-.266.335-.67-.67-.67h-.67l-2.012-.67-.67 1.676.335 1.005-.67.335 1.34 1.34 1.34 1.006-1.005 1.34-1.675 1.005v1.005l.67.67-.335.336-.335 1.005-.67.335-.336.67-1.005 3.016-1.341 3.016-.335.335-.335-.335v.335l-.336.336h-.335l-.335.335v1.675l.335-.335h.335l.336 1.005.335.67 1.005.335h1.006v.335l.335.336.335.335h.335l.336 1.005v.335h1.34l.67-.67.336-1.005v-.336l.67-.335h1.676l.67-1.005.67-.67.671.67h1.005v-.67l.336-1.005 1.675-.335 1.006-1.006v-1.34l.67-1.006-.67-1.675 1.005-1.006.67-.335.671-.335 1.676-1.675 1.676-1.675v-.67l.67-1.341 1.006-1.34-3.352-.335-2.01-2.011-1.007.335-.67.335-.335-.335h-.335l-.335.335h-.67v-.335h-1.341l-.67.335zm40.892 8.042l-.671-1.005-1.676.335-1.675-.335v-2.346l-.671-.67-.335-.67v-1.006l.335-.67.335-.335-.67-.67h-.335l-.335-.335v-.335h-.671l-.335.335h-.335l-1.005-.335-.671.335-.67.335-1.006-1.005-.67-1.005.67-.336.335-.335-.67-.334-.335-.336-1.006-.67-1.005-.335h-.335l-.336.335-.335-.335v-.335h-.67l-.67.335-.336-.335h-1.005l-.336-.67.336-.67-1.006-.336-.335-.67.335-.67h.67l.336-1.005.67-1.006v-.335l-.335-.67v-.67l-.335-1.005-.67.335-1.006.335v.335l-.67.335-.671.335-.67.335-.335-.67v-.335h-.671l-.67.335h-.335l-.335.335-.671.335-.335.335-.335 2.01-1.341 1.34-1.34 1.341-.671 1.34-.67 1.341v.335l.335.336-.335.67h-.671l-.335 1.005-.335.67v.335l.335.335v1.006l1.006.67 1.005.67 1.006 2.346.335.67.67 1.005-.67 1.341-.335 1.34-.335.67v1.006l.67.335v.67l-.335 1.34-.335 1.341 1.005.67 1.006.67v3.686l.335.335 1.006.335h1.005l.335-.67.671-.335h.335l.335.335h1.676l.67.335h.335l.336-.335.335-.335 1.34-.335.671-1.005.335-.336h.67l.335.671.336.335h1.005l1.006.335.335.335h.335l.335.335.67 1.005.336 1.341h.335l.335.335v.335l-.335.335.67.67h.335v1.676l.671.335 1.005.67.335.335.336.335h1.005l.67.67 1.341-1.34 1.341-1.34h2.011l1.006-1.676.335-1.34.335-.335h.335l.335-.67-.335-.671.335-.335.335.335 1.341.335 1.34.335.336.336.335.335.67-.335h.671v.67l.67.67h1.341l1.34-.335v.67l.671.67h1.005l.335.336.671.335.335-.335h.335l1.006-.671.67-.335 1.006.67 1.005.335 2.681-.67 2.347-1.34-.671-.67-1.34-.671-.335-2.346-.671-1.34-.67-.67h-1.341l-.67-1.005-.671-1.005h-1.34l-1.006-1.006v-1.005h-.335l-1.341.67-2.011.67-.67-.335-.67-.335h-2.347l-.67-.67-.335-1.34-1.676-1.006-1.341-1.005-1.675-.335-.671-.335-.67-.67-.335-1.006z" fill="#EBF2FA" stroke="#EBF2FA" stroke-width=".246"/><path d="M142.989 117.59h-1.005l-.671-.67v-.67l-1.34.335h-1.341l-.67-.67v-.67h-.671l-.67.335-.335-.335-.335-.336-1.341-.335-1.341-.335-.335-.335-.335.335.335.671-.335.67h-.335l-.335.335-.336 1.34-1.005 1.676h-2.011l-1.341 1.34-1.341 1.341v1.005h-.335v1.005h-.335v.335l.335.335v1.34l.335.671v.67l-.335.335.335.67.335.335.671.671.67.335 4.014 1.36-.313.347 2.332 1.308 1.676 2.681 2.347.335.335 1.341h2.011l.335.335v-.335l.335-.335h1.006l.335.67-.335.335v1.34l-.336.336-.335.335.17.17.501.5.67-.335.335-1.006.335.335h2.346l.671-.335.335.335h.335l.335-.335.671-.67h.335l.335.335.335-.335h2.346l.336-.335.67.335.67.335 1.006-.67h1.34l.336-1.005.67-1.34h.67l.335-.336v-.67h.336v-.335l-.671-1.675-1.34-1.341v-1.005l.335-1.005 1.005-.671.671-.335-.671-1.005-1.005-.335-.335-.67v-1.006l-.671-.67h-.335l-.335-.335v-.335l-.67-.335-1.006-.335-1.341-.335-1.385.313-1.296-.648v-4.356l-1.006-.336-1.005-.67-.67.335-1.006.671h-.335l-.335.335-.671-.335-.335-.336zm59.326-9.383h-1.005v1.34h-.336l-.67.335-.335.336-.336.335-.67-.671-.307.154-.363.182v.335l-.671 1.675-.335 1.675.335.671.336 1.005-.336.335-.335.67.335.335v.671l-1.34 1.675-1.612 1.611-.734.065-.335.335v.335l-.336 1.675.671 2.681 1.006.335.67.67v1.341h-1.006v.335l-.335.335-.335.335.67.67.671 1.005-.336 1.006-.67.67v.335l-.67 1.005h-.336l-.335-.335-.335-.335h-.67v-.67h-.335l-.671-.335v-1.005l-.335-.335h-.67l-1.006.67-.335.67v.335l-2.681 1.676-1.341 2.68h.335v1.676l-1.34-.67-.671-2.011v-.67h-.67l-.335.335-.335 1.34h-1.341l-.671-.335h-1.005l-1.006-.335-1.005 1.676-.671 1.675.671.335.335.67v1.676l.335.335-.335.335h-.335l-1.006.67-1.34 1.341-.336 1.005.336.67-.336.335-.335.336v.67l-.335 1.005v1.005h-.335l-1.006.335-1.005.67v.671l.335.335.67.335.671 1.005.67 1.005h.67l1.676 1.341 1.676 1.34h1.341l.335.335v.671l.335.335 1.341-1.006 1.34-1.34.336.67.335 1.006 1.34 1.005 1.676 1.005.335 1.005.336.671h.335l.335-.335 2.346 2.01v.67l.335.67.336.336.67.67v1.341h.335l.335-.336h1.341l1.005-1.005v-.335l-2.346-.67 1.006-.335 1.676-.671-.336-.335-.67-.335v-.335l-.335-.335v-.335l1.005 1.005 1.341.671 4.022-4.357 5.028-7.372-.335-2.681.335-2.681.335-.67h.67l-.335-.67-.67-.335v-.67h-.671l-.335-1.676.671-.67 1.005-.67.335.335h.335l.336-.67.67-.671.335.335v.335h.335l.335.336h1.676l1.006-.671.335-.67.335.335.335.335h1.676l.67-.335v.67l.671.671h.67l.671-.335 1.34.335 1.676-.671 1.676-2.01 1.676.335-.335.335h-.335l-.671.67 1.676-.335h.335l.671.335.335-.335.67-.67.335.335h.336v-2.011h-.671l-.335-2.345v-.335h.335v-1.005h.336l.335-.335-.671-.671.671-.67 1.005.335.671.335 1.34-.335-.335-.67v-.335l-.335-.335-.335-.67v-1.006l-.335-.67v-.67l-.336-.671h-3.351v-.67l-.335-.335v-.67l-.671-.335-.67-.67-1.006-.335h-1.34l-1.006 1.005h-.67l-.67.335-.336 1.005-.335.671h-.67l-1.341 2.01-1.676 1.676.335-1.005-.67-.336-.335-.67v-.335l-.604.604-.402.402h-2.011v.335h-.335l-1.006-.335-.335.67-1.676.335h-.67l-.335-1.34v-1.676l.335-.335.335-.335v-1.005l.671-2.011.67-1.676-1.006-1.005-.335-1.675.671-.671.335-.67-.671-1.005-.67-.67v-1.676l-.335-2.345-1.006-1.006-1.005-.335.67-1.005.335-.335-.335-1.006-.335-.67z" fill="#EBF2FA" stroke="#EBF2FA" stroke-width=".246"/></g></svg>